%TF.GenerationSoftware,KiCad,Pcbnew,7.0.10*%
%TF.CreationDate,2024-04-16T14:15:44-05:00*%
%TF.ProjectId,QIDI Breakout Board,51494449-2042-4726-9561-6b6f75742042,rev?*%
%TF.SameCoordinates,PX2210b40PY7ada320*%
%TF.FileFunction,Copper,L2,Bot*%
%TF.FilePolarity,Positive*%
%FSLAX46Y46*%
G04 Gerber Fmt 4.6, Leading zero omitted, Abs format (unit mm)*
G04 Created by KiCad (PCBNEW 7.0.10) date 2024-04-16 14:15:44*
%MOMM*%
%LPD*%
G01*
G04 APERTURE LIST*
G04 Aperture macros list*
%AMRoundRect*
0 Rectangle with rounded corners*
0 $1 Rounding radius*
0 $2 $3 $4 $5 $6 $7 $8 $9 X,Y pos of 4 corners*
0 Add a 4 corners polygon primitive as box body*
4,1,4,$2,$3,$4,$5,$6,$7,$8,$9,$2,$3,0*
0 Add four circle primitives for the rounded corners*
1,1,$1+$1,$2,$3*
1,1,$1+$1,$4,$5*
1,1,$1+$1,$6,$7*
1,1,$1+$1,$8,$9*
0 Add four rect primitives between the rounded corners*
20,1,$1+$1,$2,$3,$4,$5,0*
20,1,$1+$1,$4,$5,$6,$7,0*
20,1,$1+$1,$6,$7,$8,$9,0*
20,1,$1+$1,$8,$9,$2,$3,0*%
G04 Aperture macros list end*
%TA.AperFunction,ComponentPad*%
%ADD10RoundRect,0.250000X-0.600000X-0.750000X0.600000X-0.750000X0.600000X0.750000X-0.600000X0.750000X0*%
%TD*%
%TA.AperFunction,ComponentPad*%
%ADD11O,1.700000X2.000000*%
%TD*%
%TA.AperFunction,ComponentPad*%
%ADD12RoundRect,0.250000X-0.600000X-0.725000X0.600000X-0.725000X0.600000X0.725000X-0.600000X0.725000X0*%
%TD*%
%TA.AperFunction,ComponentPad*%
%ADD13O,1.700000X1.950000*%
%TD*%
%TA.AperFunction,ComponentPad*%
%ADD14C,7.000000*%
%TD*%
%TA.AperFunction,ComponentPad*%
%ADD15R,1.700000X1.700000*%
%TD*%
%TA.AperFunction,ComponentPad*%
%ADD16O,1.700000X1.700000*%
%TD*%
%TA.AperFunction,ComponentPad*%
%ADD17R,2.400000X2.400000*%
%TD*%
%TA.AperFunction,ComponentPad*%
%ADD18C,2.400000*%
%TD*%
%TA.AperFunction,ViaPad*%
%ADD19C,2.000000*%
%TD*%
%TA.AperFunction,Conductor*%
%ADD20C,1.800000*%
%TD*%
%TA.AperFunction,Conductor*%
%ADD21C,1.000000*%
%TD*%
%TA.AperFunction,Conductor*%
%ADD22C,0.400000*%
%TD*%
%TA.AperFunction,Profile*%
%ADD23C,0.250000*%
%TD*%
G04 APERTURE END LIST*
D10*
%TO.P,J12,1,Pin_1*%
%TO.N,/EXT1*%
X46400000Y-12800000D03*
D11*
%TO.P,J12,2,Pin_2*%
%TO.N,/EXT2*%
X48900000Y-12800000D03*
%TD*%
D12*
%TO.P,J10,1,Pin_1*%
%TO.N,GND*%
X23000000Y-39800000D03*
D13*
%TO.P,J10,2,Pin_2*%
%TO.N,+5V*%
X25500000Y-39800000D03*
%TO.P,J10,3,Pin_3*%
%TO.N,/IN*%
X28000000Y-39800000D03*
%TO.P,J10,4,Pin_4*%
%TO.N,GND*%
X30500000Y-39800000D03*
%TO.P,J10,5,Pin_5*%
%TO.N,/OUT*%
X33000000Y-39800000D03*
%TD*%
D14*
%TO.P,H2,1*%
%TO.N,N/C*%
X55000000Y-38000000D03*
%TD*%
D10*
%TO.P,J7,1,Pin_1*%
%TO.N,/VF2*%
X40600000Y-32800000D03*
D11*
%TO.P,J7,2,Pin_2*%
%TO.N,/GF2*%
X43100000Y-32800000D03*
%TD*%
D10*
%TO.P,J11,1,Pin_1*%
%TO.N,/SW1*%
X39400000Y-39800000D03*
D11*
%TO.P,J11,2,Pin_2*%
%TO.N,/SW2*%
X41900000Y-39800000D03*
%TD*%
D12*
%TO.P,J9,1,Pin_1*%
%TO.N,/1A*%
X23600000Y-12800000D03*
D13*
%TO.P,J9,2,Pin_2*%
%TO.N,/1B*%
X26100000Y-12800000D03*
%TO.P,J9,3,Pin_3*%
%TO.N,/2A*%
X28600000Y-12800000D03*
%TO.P,J9,4,Pin_4*%
%TO.N,/2B*%
X31100000Y-12800000D03*
%TD*%
D15*
%TO.P,J1,1,Pin_1*%
%TO.N,/OUT*%
X17860000Y-38100000D03*
D16*
%TO.P,J1,2,Pin_2*%
%TO.N,/SW1*%
X15320000Y-38100000D03*
%TO.P,J1,3,Pin_3*%
%TO.N,/IN*%
X17860000Y-35560000D03*
%TO.P,J1,4,Pin_4*%
%TO.N,/SW2*%
X15320000Y-35560000D03*
%TO.P,J1,5,Pin_5*%
%TO.N,/GF2*%
X17860000Y-33020000D03*
%TO.P,J1,6,Pin_6*%
%TO.N,/EXT1*%
X15320000Y-33020000D03*
%TO.P,J1,7,Pin_7*%
%TO.N,/VF2*%
X17860000Y-30480000D03*
%TO.P,J1,8,Pin_8*%
%TO.N,/EXT2*%
X15320000Y-30480000D03*
%TO.P,J1,9,Pin_9*%
%TO.N,/GF1*%
X17860000Y-27940000D03*
%TO.P,J1,10,Pin_10*%
%TO.N,GND*%
X15320000Y-27940000D03*
%TO.P,J1,11,Pin_11*%
%TO.N,/VF1*%
X17860000Y-25400000D03*
%TO.P,J1,12,Pin_12*%
%TO.N,+5V*%
X15320000Y-25400000D03*
%TO.P,J1,13,Pin_13*%
%TO.N,/Heater*%
X17860000Y-22860000D03*
%TO.P,J1,14,Pin_14*%
X15320000Y-22860000D03*
%TO.P,J1,15,Pin_15*%
%TO.N,/VBB*%
X17860000Y-20320000D03*
%TO.P,J1,16,Pin_16*%
X15320000Y-20320000D03*
%TO.P,J1,17,Pin_17*%
%TO.N,/1A*%
X17860000Y-17780000D03*
%TO.P,J1,18,Pin_18*%
%TO.N,/Ther3b*%
X15320000Y-17780000D03*
%TO.P,J1,19,Pin_19*%
%TO.N,/1B*%
X17860000Y-15240000D03*
%TO.P,J1,20,Pin_20*%
%TO.N,/Ther3a*%
X15320000Y-15240000D03*
%TO.P,J1,21,Pin_21*%
%TO.N,/2A*%
X17860000Y-12700000D03*
%TO.P,J1,22,Pin_22*%
%TO.N,/Ther2b*%
X15320000Y-12700000D03*
%TO.P,J1,23,Pin_23*%
%TO.N,/2B*%
X17860000Y-10160000D03*
%TO.P,J1,24,Pin_24*%
%TO.N,/Ther2a*%
X15320000Y-10160000D03*
%TO.P,J1,25,Pin_25*%
%TO.N,/Ther1a*%
X17860000Y-7620000D03*
%TO.P,J1,26,Pin_26*%
%TO.N,/Ther1b*%
X15320000Y-7620000D03*
%TD*%
D14*
%TO.P,H3,1*%
%TO.N,N/C*%
X30000000Y-23000000D03*
%TD*%
D10*
%TO.P,J2,1,Pin_1*%
%TO.N,/Ther1a*%
X23575000Y-5600000D03*
D11*
%TO.P,J2,2,Pin_2*%
%TO.N,/Ther1b*%
X26075000Y-5600000D03*
%TD*%
D17*
%TO.P,J8,1,Pin_1*%
%TO.N,/VBB*%
X37000000Y-13800000D03*
D18*
%TO.P,J8,2,Pin_2*%
%TO.N,/Heater*%
X40500000Y-13800000D03*
%TD*%
D10*
%TO.P,J4,1,Pin_1*%
%TO.N,/Ther3a*%
X41200000Y-5600000D03*
D11*
%TO.P,J4,2,Pin_2*%
%TO.N,/Ther3b*%
X43700000Y-5600000D03*
%TD*%
D10*
%TO.P,J3,1,Pin_1*%
%TO.N,/Ther2a*%
X32400000Y-5600000D03*
D11*
%TO.P,J3,2,Pin_2*%
%TO.N,/Ther2b*%
X34900000Y-5600000D03*
%TD*%
D10*
%TO.P,J5,1,Pin_1*%
%TO.N,/VF1*%
X23000000Y-32800000D03*
D11*
%TO.P,J5,2,Pin_2*%
%TO.N,/GF1*%
X25500000Y-32800000D03*
%TD*%
D14*
%TO.P,H1,1*%
%TO.N,N/C*%
X55000000Y-8000000D03*
%TD*%
D10*
%TO.P,J6,1,Pin_1*%
%TO.N,/VF2*%
X31800000Y-32800000D03*
D11*
%TO.P,J6,2,Pin_2*%
%TO.N,/GF2*%
X34300000Y-32800000D03*
%TD*%
D19*
%TO.N,+5V*%
X11800000Y-43600000D03*
%TD*%
D20*
%TO.N,+5V*%
X10200000Y-42000000D02*
X10200000Y-28600000D01*
X11800000Y-43600000D02*
X10200000Y-42000000D01*
X10200000Y-28600000D02*
X13400000Y-25400000D01*
X13400000Y-25400000D02*
X15320000Y-25400000D01*
%TO.N,/Heater*%
X32800000Y-29200000D02*
X40500000Y-21500000D01*
X15320000Y-22860000D02*
X17860000Y-22860000D01*
X27200000Y-29200000D02*
X32800000Y-29200000D01*
X20860000Y-22860000D02*
X27200000Y-29200000D01*
X40500000Y-21500000D02*
X40500000Y-13800000D01*
X17860000Y-22860000D02*
X20860000Y-22860000D01*
D21*
%TO.N,/1B*%
X26100000Y-11550000D02*
X26100000Y-12800000D01*
X22400000Y-10800000D02*
X25350000Y-10800000D01*
X17860000Y-15240000D02*
X17960000Y-15240000D01*
X17960000Y-15240000D02*
X22400000Y-10800000D01*
X25350000Y-10800000D02*
X26100000Y-11550000D01*
%TO.N,/2B*%
X18040000Y-10160000D02*
X20600000Y-7600000D01*
X27000000Y-7600000D02*
X31100000Y-11700000D01*
X20600000Y-7600000D02*
X27000000Y-7600000D01*
X31100000Y-11700000D02*
X31100000Y-12800000D01*
X17860000Y-10160000D02*
X18040000Y-10160000D01*
%TO.N,/1A*%
X17860000Y-17780000D02*
X18020000Y-17780000D01*
X18020000Y-17780000D02*
X23000000Y-12800000D01*
X23000000Y-12800000D02*
X23600000Y-12800000D01*
%TO.N,/2A*%
X21500000Y-9200000D02*
X26200000Y-9200000D01*
X28600000Y-11600000D02*
X28600000Y-12800000D01*
X26200000Y-9200000D02*
X28600000Y-11600000D01*
X18000000Y-12700000D02*
X21500000Y-9200000D01*
X17860000Y-12700000D02*
X18000000Y-12700000D01*
D22*
%TO.N,/VF1*%
X20800000Y-25400000D02*
X27800000Y-32400000D01*
X27800000Y-32400000D02*
X27800000Y-34000000D01*
X26200000Y-35600000D02*
X24600000Y-35600000D01*
X23000000Y-34000000D02*
X23000000Y-32800000D01*
X24600000Y-35600000D02*
X23000000Y-34000000D01*
X27800000Y-34000000D02*
X26200000Y-35600000D01*
X17860000Y-25400000D02*
X20800000Y-25400000D01*
%TO.N,/VF2*%
X31800000Y-31600000D02*
X32400000Y-31000000D01*
X23000000Y-36600000D02*
X30400000Y-36600000D01*
X32400000Y-31000000D02*
X39800000Y-31000000D01*
X31800000Y-35200000D02*
X31800000Y-32800000D01*
X40600000Y-31800000D02*
X40600000Y-32800000D01*
X18880000Y-30480000D02*
X20800000Y-32400000D01*
X30400000Y-36600000D02*
X31800000Y-35200000D01*
X39800000Y-31000000D02*
X40600000Y-31800000D01*
X31800000Y-32800000D02*
X31800000Y-31600000D01*
X20800000Y-32400000D02*
X20800000Y-34400000D01*
X17860000Y-30480000D02*
X18880000Y-30480000D01*
X20800000Y-34400000D02*
X23000000Y-36600000D01*
%TO.N,/OUT*%
X33000000Y-40800000D02*
X33000000Y-39800000D01*
X17860000Y-38100000D02*
X17860000Y-38860000D01*
X21200000Y-42200000D02*
X31600000Y-42200000D01*
X17860000Y-38860000D02*
X21200000Y-42200000D01*
X31600000Y-42200000D02*
X33000000Y-40800000D01*
%TO.N,/IN*%
X18960000Y-35560000D02*
X20400000Y-37000000D01*
X20400000Y-37000000D02*
X20400000Y-40200000D01*
X21600000Y-41400000D02*
X27400000Y-41400000D01*
X17860000Y-35560000D02*
X18960000Y-35560000D01*
X28000000Y-40800000D02*
X28000000Y-39800000D01*
X20400000Y-40200000D02*
X21600000Y-41400000D01*
X27400000Y-41400000D02*
X28000000Y-40800000D01*
D20*
%TO.N,/VBB*%
X17860000Y-20320000D02*
X23680000Y-20320000D01*
X27600000Y-16400000D02*
X34400000Y-16400000D01*
X15320000Y-20320000D02*
X17860000Y-20320000D01*
X23680000Y-20320000D02*
X27600000Y-16400000D01*
X34400000Y-16400000D02*
X37000000Y-13800000D01*
D22*
%TO.N,/GF2*%
X17860000Y-33020000D02*
X18020000Y-33020000D01*
X18020000Y-33020000D02*
X22600000Y-37600000D01*
X40400000Y-37600000D02*
X43100000Y-34900000D01*
X43100000Y-34900000D02*
X43100000Y-32800000D01*
X34300000Y-34900000D02*
X37000000Y-37600000D01*
X22600000Y-37600000D02*
X31600000Y-37600000D01*
X37000000Y-37600000D02*
X40400000Y-37600000D01*
X34300000Y-32800000D02*
X34300000Y-34900000D01*
X31600000Y-37600000D02*
X34300000Y-34900000D01*
%TO.N,/GF1*%
X21940000Y-27940000D02*
X25500000Y-31500000D01*
X25500000Y-31500000D02*
X25500000Y-32800000D01*
X17860000Y-27940000D02*
X21940000Y-27940000D01*
%TO.N,/Ther1a*%
X17860000Y-7620000D02*
X19880000Y-5600000D01*
X19880000Y-5600000D02*
X23575000Y-5600000D01*
%TO.N,/Ther1b*%
X26075000Y-4475000D02*
X26075000Y-5600000D01*
X18000000Y-4000000D02*
X25600000Y-4000000D01*
X25600000Y-4000000D02*
X26075000Y-4475000D01*
X15320000Y-7620000D02*
X15320000Y-6680000D01*
X15320000Y-6680000D02*
X18000000Y-4000000D01*
%TO.N,/Ther2a*%
X16800000Y-3200000D02*
X31200000Y-3200000D01*
X13600000Y-9400000D02*
X13600000Y-6400000D01*
X32465000Y-5535000D02*
X32400000Y-5600000D01*
X32465000Y-4465000D02*
X32465000Y-5535000D01*
X15320000Y-10160000D02*
X14360000Y-10160000D01*
X14360000Y-10160000D02*
X13600000Y-9400000D01*
X13600000Y-6400000D02*
X16800000Y-3200000D01*
X31200000Y-3200000D02*
X32465000Y-4465000D01*
%TO.N,/Ther2b*%
X34965000Y-4565000D02*
X34965000Y-5535000D01*
X16500000Y-2400000D02*
X32800000Y-2400000D01*
X12800000Y-11100000D02*
X12800000Y-6100000D01*
X15320000Y-12700000D02*
X14400000Y-12700000D01*
X34965000Y-5535000D02*
X34900000Y-5600000D01*
X32800000Y-2400000D02*
X34965000Y-4565000D01*
X14400000Y-12700000D02*
X12800000Y-11100000D01*
X12800000Y-6100000D02*
X16500000Y-2400000D01*
%TO.N,/Ther3a*%
X12000000Y-5800000D02*
X16200000Y-1600000D01*
X41355000Y-4555000D02*
X41355000Y-5445000D01*
X41355000Y-5445000D02*
X41200000Y-5600000D01*
X38400000Y-1600000D02*
X41355000Y-4555000D01*
X15320000Y-15240000D02*
X14440000Y-15240000D01*
X12000000Y-12800000D02*
X12000000Y-5800000D01*
X16200000Y-1600000D02*
X38400000Y-1600000D01*
X14440000Y-15240000D02*
X12000000Y-12800000D01*
%TO.N,/Ther3b*%
X11200000Y-14600000D02*
X11200000Y-5500000D01*
X43855000Y-4455000D02*
X43855000Y-5445000D01*
X11200000Y-5500000D02*
X15900000Y-800000D01*
X14380000Y-17780000D02*
X11200000Y-14600000D01*
X40200000Y-800000D02*
X43855000Y-4455000D01*
X43855000Y-5445000D02*
X43700000Y-5600000D01*
X15900000Y-800000D02*
X40200000Y-800000D01*
X15320000Y-17780000D02*
X14380000Y-17780000D01*
%TO.N,/SW1*%
X15320000Y-38100000D02*
X15320000Y-39120000D01*
X39400000Y-41000000D02*
X39400000Y-39800000D01*
X15320000Y-39120000D02*
X19200000Y-43000000D01*
X19200000Y-43000000D02*
X37400000Y-43000000D01*
X37400000Y-43000000D02*
X39400000Y-41000000D01*
%TO.N,/SW2*%
X13400000Y-36600000D02*
X13400000Y-39400000D01*
X15320000Y-35560000D02*
X14440000Y-35560000D01*
X13400000Y-39400000D02*
X17800000Y-43800000D01*
X41900000Y-41100000D02*
X41900000Y-39800000D01*
X39200000Y-43800000D02*
X41900000Y-41100000D01*
X17800000Y-43800000D02*
X39200000Y-43800000D01*
X14440000Y-35560000D02*
X13400000Y-36600000D01*
%TO.N,/EXT1*%
X41800000Y-44600000D02*
X46400000Y-40000000D01*
X46400000Y-40000000D02*
X46400000Y-12800000D01*
X15320000Y-33020000D02*
X14380000Y-33020000D01*
X14380000Y-33020000D02*
X12600000Y-34800000D01*
X17400000Y-44600000D02*
X41800000Y-44600000D01*
X12600000Y-39800000D02*
X17400000Y-44600000D01*
X12600000Y-34800000D02*
X12600000Y-39800000D01*
%TO.N,/EXT2*%
X15320000Y-30480000D02*
X14320000Y-30480000D01*
X42084567Y-45400000D02*
X48900000Y-38584567D01*
X14320000Y-30480000D02*
X11800000Y-33000000D01*
X48900000Y-38584567D02*
X48900000Y-12800000D01*
X11800000Y-33000000D02*
X11800000Y-40200000D01*
X17000000Y-45400000D02*
X42084567Y-45400000D01*
X11800000Y-40200000D02*
X17000000Y-45400000D01*
%TD*%
%TA.AperFunction,Conductor*%
%TO.N,GND*%
G36*
X57003242Y-668D02*
G01*
X57133176Y-7478D01*
X57313944Y-17631D01*
X57326325Y-18956D01*
X57474883Y-42485D01*
X57475947Y-42660D01*
X57635355Y-69744D01*
X57646614Y-72203D01*
X57795545Y-112109D01*
X57797635Y-112690D01*
X57949188Y-156352D01*
X57959286Y-159738D01*
X58051008Y-194947D01*
X58104587Y-215514D01*
X58107601Y-216717D01*
X58251772Y-276434D01*
X58260610Y-280507D01*
X58386652Y-344729D01*
X58399994Y-351527D01*
X58403680Y-353484D01*
X58481873Y-396700D01*
X58539576Y-428591D01*
X58547130Y-433124D01*
X58678697Y-518564D01*
X58682891Y-521413D01*
X58809174Y-611016D01*
X58815451Y-615776D01*
X58937570Y-714666D01*
X58942127Y-718545D01*
X58942146Y-718561D01*
X59057425Y-821581D01*
X59062479Y-826358D01*
X59173637Y-937515D01*
X59178410Y-942565D01*
X59281452Y-1057869D01*
X59285346Y-1062445D01*
X59384220Y-1184545D01*
X59388984Y-1190825D01*
X59478580Y-1317099D01*
X59481438Y-1321308D01*
X59566890Y-1452892D01*
X59571407Y-1460420D01*
X59572380Y-1462181D01*
X59646509Y-1596308D01*
X59648466Y-1599994D01*
X59719488Y-1739383D01*
X59723564Y-1748224D01*
X59751685Y-1816114D01*
X59783246Y-1892308D01*
X59783284Y-1892398D01*
X59784487Y-1895415D01*
X59840257Y-2040703D01*
X59843647Y-2050812D01*
X59887286Y-2202283D01*
X59887907Y-2204518D01*
X59927787Y-2353356D01*
X59930260Y-2364678D01*
X59957303Y-2523841D01*
X59957528Y-2525214D01*
X59981038Y-2673647D01*
X59982370Y-2686093D01*
X59992525Y-2866932D01*
X59992550Y-2867393D01*
X59999329Y-2996716D01*
X59999499Y-3003207D01*
X59999499Y-42996752D01*
X59999329Y-43003243D01*
X59992527Y-43133016D01*
X59992502Y-43133477D01*
X59982371Y-43313893D01*
X59981039Y-43326340D01*
X59957513Y-43474870D01*
X59957288Y-43476241D01*
X59930263Y-43635304D01*
X59927790Y-43646628D01*
X59887880Y-43795570D01*
X59887259Y-43797804D01*
X59843653Y-43949164D01*
X59840263Y-43959273D01*
X59784463Y-44104639D01*
X59783260Y-44107655D01*
X59723574Y-44251750D01*
X59719497Y-44260592D01*
X59648432Y-44400063D01*
X59646476Y-44403749D01*
X59571427Y-44539540D01*
X59566895Y-44547094D01*
X59481407Y-44678736D01*
X59478540Y-44682957D01*
X59389010Y-44809136D01*
X59384247Y-44815415D01*
X59285323Y-44937577D01*
X59281417Y-44942169D01*
X59178427Y-45057415D01*
X59173648Y-45062469D01*
X59062469Y-45173648D01*
X59057415Y-45178427D01*
X58942169Y-45281417D01*
X58937577Y-45285323D01*
X58815415Y-45384247D01*
X58809136Y-45389010D01*
X58682957Y-45478540D01*
X58678736Y-45481407D01*
X58547094Y-45566895D01*
X58539540Y-45571427D01*
X58403749Y-45646476D01*
X58400063Y-45648432D01*
X58260592Y-45719497D01*
X58251750Y-45723574D01*
X58107655Y-45783260D01*
X58104639Y-45784463D01*
X57959273Y-45840263D01*
X57949164Y-45843653D01*
X57797804Y-45887259D01*
X57795570Y-45887880D01*
X57646628Y-45927790D01*
X57635304Y-45930263D01*
X57476241Y-45957288D01*
X57474870Y-45957513D01*
X57326340Y-45981039D01*
X57313893Y-45982371D01*
X57133477Y-45992502D01*
X57133016Y-45992527D01*
X57003243Y-45999329D01*
X56996752Y-45999499D01*
X42416018Y-45999499D01*
X42348979Y-45979814D01*
X42303224Y-45927010D01*
X42293280Y-45857852D01*
X42322305Y-45794296D01*
X42334741Y-45783219D01*
X42334346Y-45782794D01*
X42335486Y-45781735D01*
X42340024Y-45778514D01*
X42346162Y-45773048D01*
X42348274Y-45771607D01*
X42355101Y-45766567D01*
X42355105Y-45766566D01*
X42395542Y-45726127D01*
X42398828Y-45722961D01*
X42440761Y-45684055D01*
X42440763Y-45684050D01*
X42446554Y-45676790D01*
X42447210Y-45677313D01*
X42456599Y-45665070D01*
X49195744Y-38925924D01*
X49206093Y-38916676D01*
X49233970Y-38894446D01*
X49266198Y-38847174D01*
X49268812Y-38843490D01*
X49302793Y-38797449D01*
X49302793Y-38797446D01*
X49302795Y-38797445D01*
X49306787Y-38789891D01*
X49310471Y-38782242D01*
X49310472Y-38782240D01*
X49327330Y-38727581D01*
X49328762Y-38723229D01*
X49347646Y-38669266D01*
X49347646Y-38669263D01*
X49349228Y-38660903D01*
X49350500Y-38652466D01*
X49350500Y-38595321D01*
X49350587Y-38590683D01*
X49352725Y-38533557D01*
X49351685Y-38524325D01*
X49352513Y-38524231D01*
X49350500Y-38508928D01*
X49350500Y-38000000D01*
X51244680Y-38000000D01*
X51263946Y-38379918D01*
X51321551Y-38755935D01*
X51321552Y-38755940D01*
X51385291Y-39002116D01*
X51416904Y-39124212D01*
X51549016Y-39480925D01*
X51549022Y-39480940D01*
X51716548Y-39822463D01*
X51716553Y-39822472D01*
X51917771Y-40145295D01*
X52139366Y-40431574D01*
X52150620Y-40446112D01*
X52404205Y-40712883D01*
X52412709Y-40721829D01*
X52701343Y-40969614D01*
X52701346Y-40969616D01*
X53013571Y-41186931D01*
X53346179Y-41371543D01*
X53695758Y-41521559D01*
X53695761Y-41521560D01*
X53695766Y-41521562D01*
X54058709Y-41635436D01*
X54058712Y-41635436D01*
X54058720Y-41635439D01*
X54431340Y-41712015D01*
X54734104Y-41742803D01*
X54809795Y-41750500D01*
X54809796Y-41750500D01*
X55190205Y-41750500D01*
X55253280Y-41744085D01*
X55568660Y-41712015D01*
X55941280Y-41635439D01*
X56029203Y-41607853D01*
X56304233Y-41521562D01*
X56304234Y-41521561D01*
X56304242Y-41521559D01*
X56653821Y-41371543D01*
X56986429Y-41186931D01*
X57298654Y-40969616D01*
X57587291Y-40721829D01*
X57849380Y-40446112D01*
X58082229Y-40145295D01*
X58283451Y-39822464D01*
X58450981Y-39480932D01*
X58583098Y-39124204D01*
X58678448Y-38755940D01*
X58736053Y-38379919D01*
X58755320Y-38000000D01*
X58736053Y-37620081D01*
X58678448Y-37244060D01*
X58583098Y-36875796D01*
X58579362Y-36865709D01*
X58450983Y-36519074D01*
X58450977Y-36519059D01*
X58283451Y-36177536D01*
X58283446Y-36177527D01*
X58100523Y-35884055D01*
X58082229Y-35854705D01*
X57849380Y-35553888D01*
X57587291Y-35278171D01*
X57587290Y-35278170D01*
X57298656Y-35030385D01*
X56986429Y-34813069D01*
X56986424Y-34813066D01*
X56653820Y-34628456D01*
X56304233Y-34478437D01*
X55941290Y-34364563D01*
X55941284Y-34364562D01*
X55941281Y-34364561D01*
X55941280Y-34364561D01*
X55568660Y-34287985D01*
X55568659Y-34287984D01*
X55568655Y-34287984D01*
X55190205Y-34249500D01*
X55190204Y-34249500D01*
X54809796Y-34249500D01*
X54809795Y-34249500D01*
X54431344Y-34287984D01*
X54058715Y-34364562D01*
X54058709Y-34364563D01*
X53695766Y-34478437D01*
X53346179Y-34628456D01*
X53013575Y-34813066D01*
X53013570Y-34813069D01*
X52701343Y-35030385D01*
X52412709Y-35278170D01*
X52150615Y-35553893D01*
X51917771Y-35854704D01*
X51716553Y-36177527D01*
X51716548Y-36177536D01*
X51549022Y-36519059D01*
X51549016Y-36519074D01*
X51416904Y-36875787D01*
X51321551Y-37244064D01*
X51263946Y-37620081D01*
X51244680Y-38000000D01*
X49350500Y-38000000D01*
X49350500Y-14033783D01*
X49370185Y-13966744D01*
X49422989Y-13920989D01*
X49422990Y-13920988D01*
X49452422Y-13907547D01*
X49452753Y-13907396D01*
X49623952Y-13785486D01*
X49645370Y-13763024D01*
X49768985Y-13633379D01*
X49769561Y-13632483D01*
X49882613Y-13456572D01*
X49960725Y-13261457D01*
X50000500Y-13055085D01*
X50000500Y-12597575D01*
X49985528Y-12440782D01*
X49926316Y-12239125D01*
X49830011Y-12052318D01*
X49830009Y-12052316D01*
X49830008Y-12052313D01*
X49700094Y-11887116D01*
X49700090Y-11887112D01*
X49541253Y-11749478D01*
X49359249Y-11644398D01*
X49359245Y-11644396D01*
X49359244Y-11644396D01*
X49160633Y-11575656D01*
X48952602Y-11545746D01*
X48952598Y-11545746D01*
X48742672Y-11555745D01*
X48538421Y-11605296D01*
X48538417Y-11605298D01*
X48347256Y-11692598D01*
X48347251Y-11692601D01*
X48176046Y-11814515D01*
X48176040Y-11814520D01*
X48031014Y-11966620D01*
X47917388Y-12143425D01*
X47839274Y-12338544D01*
X47814494Y-12467118D01*
X47799500Y-12544915D01*
X47799500Y-13002425D01*
X47814472Y-13159218D01*
X47873684Y-13360875D01*
X47910131Y-13431572D01*
X47969991Y-13547686D01*
X48099905Y-13712883D01*
X48099908Y-13712886D01*
X48258744Y-13850519D01*
X48387501Y-13924857D01*
X48435715Y-13975422D01*
X48449500Y-14032243D01*
X48449500Y-38346601D01*
X48429815Y-38413640D01*
X48413181Y-38434282D01*
X47062181Y-39785282D01*
X47000858Y-39818767D01*
X46931166Y-39813783D01*
X46875233Y-39771911D01*
X46850816Y-39706447D01*
X46850500Y-39697601D01*
X46850500Y-14174499D01*
X46870185Y-14107460D01*
X46922989Y-14061705D01*
X46974500Y-14050499D01*
X47047871Y-14050499D01*
X47047872Y-14050499D01*
X47107483Y-14044091D01*
X47242331Y-13993796D01*
X47357546Y-13907546D01*
X47443796Y-13792331D01*
X47494091Y-13657483D01*
X47500500Y-13597873D01*
X47500499Y-12002128D01*
X47494091Y-11942517D01*
X47482752Y-11912116D01*
X47443797Y-11807671D01*
X47443793Y-11807664D01*
X47357547Y-11692455D01*
X47357544Y-11692452D01*
X47242335Y-11606206D01*
X47242328Y-11606202D01*
X47107482Y-11555908D01*
X47107483Y-11555908D01*
X47047883Y-11549501D01*
X47047881Y-11549500D01*
X47047873Y-11549500D01*
X47047864Y-11549500D01*
X45752129Y-11549500D01*
X45752123Y-11549501D01*
X45692516Y-11555908D01*
X45557671Y-11606202D01*
X45557664Y-11606206D01*
X45442455Y-11692452D01*
X45442452Y-11692455D01*
X45356206Y-11807664D01*
X45356202Y-11807671D01*
X45305908Y-11942517D01*
X45300629Y-11991622D01*
X45299501Y-12002123D01*
X45299500Y-12002135D01*
X45299500Y-13597870D01*
X45299501Y-13597876D01*
X45305908Y-13657483D01*
X45356202Y-13792328D01*
X45356206Y-13792335D01*
X45442452Y-13907544D01*
X45442455Y-13907547D01*
X45557664Y-13993793D01*
X45557671Y-13993797D01*
X45602618Y-14010561D01*
X45692517Y-14044091D01*
X45752127Y-14050500D01*
X45825500Y-14050499D01*
X45892538Y-14070183D01*
X45938294Y-14122986D01*
X45949500Y-14174499D01*
X45949500Y-39762035D01*
X45929815Y-39829074D01*
X45913181Y-39849716D01*
X41649716Y-44113181D01*
X41588393Y-44146666D01*
X41562035Y-44149500D01*
X39786965Y-44149500D01*
X39719926Y-44129815D01*
X39674171Y-44077011D01*
X39664227Y-44007853D01*
X39693252Y-43944297D01*
X39699284Y-43937819D01*
X40323210Y-43313893D01*
X42195744Y-41441357D01*
X42206093Y-41432109D01*
X42233970Y-41409879D01*
X42266198Y-41362607D01*
X42268812Y-41358923D01*
X42302793Y-41312882D01*
X42302793Y-41312879D01*
X42302795Y-41312878D01*
X42306787Y-41305324D01*
X42310471Y-41297675D01*
X42327324Y-41243035D01*
X42328762Y-41238662D01*
X42347646Y-41184699D01*
X42347646Y-41184696D01*
X42349228Y-41176336D01*
X42350500Y-41167899D01*
X42350500Y-41110754D01*
X42350587Y-41106116D01*
X42352725Y-41048995D01*
X42352724Y-41048993D01*
X42352725Y-41048990D01*
X42352724Y-41048986D01*
X42352513Y-41047114D01*
X42352872Y-41045060D01*
X42353073Y-41039703D01*
X42353805Y-41039730D01*
X42364562Y-40978291D01*
X42411906Y-40926908D01*
X42424223Y-40920425D01*
X42426877Y-40919213D01*
X42452753Y-40907396D01*
X42623952Y-40785486D01*
X42633397Y-40775581D01*
X42768985Y-40633379D01*
X42769628Y-40632379D01*
X42882613Y-40456572D01*
X42960725Y-40261457D01*
X43000500Y-40055085D01*
X43000500Y-39597575D01*
X42985528Y-39440782D01*
X42926316Y-39239125D01*
X42830011Y-39052318D01*
X42830009Y-39052316D01*
X42830008Y-39052313D01*
X42700094Y-38887116D01*
X42700090Y-38887112D01*
X42541253Y-38749478D01*
X42359249Y-38644398D01*
X42359245Y-38644396D01*
X42359244Y-38644396D01*
X42160633Y-38575656D01*
X41952602Y-38545746D01*
X41952598Y-38545746D01*
X41742672Y-38555745D01*
X41538421Y-38605296D01*
X41538417Y-38605298D01*
X41347256Y-38692598D01*
X41347251Y-38692601D01*
X41176046Y-38814515D01*
X41176040Y-38814520D01*
X41031014Y-38966620D01*
X40917388Y-39143425D01*
X40839274Y-39338544D01*
X40809692Y-39492034D01*
X40799500Y-39544915D01*
X40799500Y-40002425D01*
X40814472Y-40159218D01*
X40873684Y-40360875D01*
X40923019Y-40456572D01*
X40969991Y-40547686D01*
X41099905Y-40712883D01*
X41099909Y-40712887D01*
X41258739Y-40850515D01*
X41258754Y-40850526D01*
X41279590Y-40862555D01*
X41327806Y-40913121D01*
X41341030Y-40981728D01*
X41315062Y-41046593D01*
X41305272Y-41057623D01*
X39049716Y-43313181D01*
X38988393Y-43346666D01*
X38962035Y-43349500D01*
X37986965Y-43349500D01*
X37919926Y-43329815D01*
X37874171Y-43277011D01*
X37864227Y-43207853D01*
X37893252Y-43144297D01*
X37899284Y-43137819D01*
X38324741Y-42712362D01*
X39695744Y-41341357D01*
X39706093Y-41332109D01*
X39733970Y-41309879D01*
X39766198Y-41262607D01*
X39768812Y-41258923D01*
X39802793Y-41212882D01*
X39802793Y-41212879D01*
X39802795Y-41212878D01*
X39806787Y-41205324D01*
X39810471Y-41197675D01*
X39810472Y-41197673D01*
X39827330Y-41143014D01*
X39828768Y-41138645D01*
X39830556Y-41133536D01*
X39871282Y-41076763D01*
X39936236Y-41051020D01*
X39947595Y-41050499D01*
X40047871Y-41050499D01*
X40047872Y-41050499D01*
X40107483Y-41044091D01*
X40242331Y-40993796D01*
X40357546Y-40907546D01*
X40443796Y-40792331D01*
X40494091Y-40657483D01*
X40500500Y-40597873D01*
X40500499Y-39002128D01*
X40494091Y-38942517D01*
X40484448Y-38916664D01*
X40443797Y-38807671D01*
X40443793Y-38807664D01*
X40357547Y-38692455D01*
X40357544Y-38692452D01*
X40242335Y-38606206D01*
X40242328Y-38606202D01*
X40107482Y-38555908D01*
X40107483Y-38555908D01*
X40047883Y-38549501D01*
X40047881Y-38549500D01*
X40047873Y-38549500D01*
X40047864Y-38549500D01*
X38752129Y-38549500D01*
X38752123Y-38549501D01*
X38692516Y-38555908D01*
X38557671Y-38606202D01*
X38557664Y-38606206D01*
X38442455Y-38692452D01*
X38442452Y-38692455D01*
X38356206Y-38807664D01*
X38356202Y-38807671D01*
X38305908Y-38942517D01*
X38300629Y-38991622D01*
X38299501Y-39002123D01*
X38299500Y-39002135D01*
X38299500Y-40597870D01*
X38299501Y-40597876D01*
X38305908Y-40657483D01*
X38356202Y-40792328D01*
X38356206Y-40792335D01*
X38419595Y-40877011D01*
X38442454Y-40907546D01*
X38557669Y-40993796D01*
X38557670Y-40993796D01*
X38564024Y-40998553D01*
X38605895Y-41054487D01*
X38610879Y-41124179D01*
X38577394Y-41185501D01*
X37249716Y-42513181D01*
X37188393Y-42546666D01*
X37162035Y-42549500D01*
X32186965Y-42549500D01*
X32119926Y-42529815D01*
X32074171Y-42477011D01*
X32064227Y-42407853D01*
X32093252Y-42344297D01*
X32099284Y-42337819D01*
X32383741Y-42053362D01*
X33295744Y-41141357D01*
X33306093Y-41132109D01*
X33333970Y-41109879D01*
X33366198Y-41062607D01*
X33368812Y-41058923D01*
X33402793Y-41012882D01*
X33402793Y-41012879D01*
X33402795Y-41012878D01*
X33406787Y-41005324D01*
X33410469Y-40997678D01*
X33410469Y-40997676D01*
X33410472Y-40997673D01*
X33412138Y-40992269D01*
X33450705Y-40934012D01*
X33479115Y-40916025D01*
X33552753Y-40882396D01*
X33723952Y-40760486D01*
X33724317Y-40760104D01*
X33868985Y-40608379D01*
X33874830Y-40599284D01*
X33982613Y-40431572D01*
X34060725Y-40236457D01*
X34100500Y-40030085D01*
X34100500Y-39622575D01*
X34085528Y-39465782D01*
X34026316Y-39264125D01*
X33930011Y-39077318D01*
X33930009Y-39077316D01*
X33930008Y-39077313D01*
X33800094Y-38912116D01*
X33800090Y-38912112D01*
X33641253Y-38774478D01*
X33459249Y-38669398D01*
X33459245Y-38669396D01*
X33459244Y-38669396D01*
X33260633Y-38600656D01*
X33052602Y-38570746D01*
X33052598Y-38570746D01*
X32842672Y-38580745D01*
X32638421Y-38630296D01*
X32638417Y-38630298D01*
X32447256Y-38717598D01*
X32447251Y-38717601D01*
X32276046Y-38839515D01*
X32276040Y-38839520D01*
X32131014Y-38991620D01*
X32017388Y-39168425D01*
X31939274Y-39363544D01*
X31904318Y-39544915D01*
X31899500Y-39569915D01*
X31899500Y-39977425D01*
X31906403Y-40049716D01*
X31914472Y-40134217D01*
X31914473Y-40134221D01*
X31973628Y-40335686D01*
X31973684Y-40335875D01*
X32023019Y-40431572D01*
X32069991Y-40522686D01*
X32199905Y-40687883D01*
X32199914Y-40687892D01*
X32246641Y-40728382D01*
X32284415Y-40787160D01*
X32284415Y-40857030D01*
X32253119Y-40909775D01*
X31449716Y-41713181D01*
X31388393Y-41746666D01*
X31362035Y-41749500D01*
X27986965Y-41749500D01*
X27919926Y-41729815D01*
X27874171Y-41677011D01*
X27864227Y-41607853D01*
X27893252Y-41544297D01*
X27899284Y-41537819D01*
X27995737Y-41441366D01*
X28295744Y-41141357D01*
X28306093Y-41132109D01*
X28333970Y-41109879D01*
X28366198Y-41062607D01*
X28368812Y-41058923D01*
X28402793Y-41012882D01*
X28402793Y-41012879D01*
X28402795Y-41012878D01*
X28406787Y-41005324D01*
X28410469Y-40997678D01*
X28410469Y-40997676D01*
X28410472Y-40997673D01*
X28412138Y-40992269D01*
X28450705Y-40934012D01*
X28479115Y-40916025D01*
X28552753Y-40882396D01*
X28723952Y-40760486D01*
X28724317Y-40760104D01*
X28868985Y-40608379D01*
X28874830Y-40599284D01*
X28982613Y-40431572D01*
X29060725Y-40236457D01*
X29100500Y-40030085D01*
X29100500Y-39622575D01*
X29093570Y-39549999D01*
X29403846Y-39549999D01*
X29403847Y-39550000D01*
X30096031Y-39550000D01*
X30063481Y-39600649D01*
X30025000Y-39731705D01*
X30025000Y-39868295D01*
X30063481Y-39999351D01*
X30096031Y-40050000D01*
X29406931Y-40050000D01*
X29414963Y-40134112D01*
X29414966Y-40134126D01*
X29474149Y-40335686D01*
X29570413Y-40522414D01*
X29700268Y-40687537D01*
X29700271Y-40687540D01*
X29859030Y-40825105D01*
X29859041Y-40825114D01*
X30040960Y-40930144D01*
X30040967Y-40930147D01*
X30239487Y-40998856D01*
X30250000Y-41000367D01*
X30250000Y-40208018D01*
X30364801Y-40260446D01*
X30466025Y-40275000D01*
X30533975Y-40275000D01*
X30635199Y-40260446D01*
X30750000Y-40208018D01*
X30750000Y-40996257D01*
X30861409Y-40969229D01*
X31052507Y-40881959D01*
X31223619Y-40760110D01*
X31223625Y-40760104D01*
X31368592Y-40608067D01*
X31482166Y-40431342D01*
X31560244Y-40236314D01*
X31596153Y-40050000D01*
X30903969Y-40050000D01*
X30936519Y-39999351D01*
X30975000Y-39868295D01*
X30975000Y-39731705D01*
X30936519Y-39600649D01*
X30903969Y-39550000D01*
X31593068Y-39550000D01*
X31593068Y-39549999D01*
X31585036Y-39465887D01*
X31585033Y-39465873D01*
X31525850Y-39264313D01*
X31429586Y-39077585D01*
X31299731Y-38912462D01*
X31299728Y-38912459D01*
X31140969Y-38774894D01*
X31140958Y-38774885D01*
X30959039Y-38669855D01*
X30959032Y-38669852D01*
X30760516Y-38601144D01*
X30750000Y-38599632D01*
X30750000Y-39391981D01*
X30635199Y-39339554D01*
X30533975Y-39325000D01*
X30466025Y-39325000D01*
X30364801Y-39339554D01*
X30250000Y-39391981D01*
X30250000Y-38603740D01*
X30249999Y-38603740D01*
X30138594Y-38630768D01*
X30138582Y-38630772D01*
X29947497Y-38718037D01*
X29947496Y-38718038D01*
X29776380Y-38839889D01*
X29776374Y-38839895D01*
X29631407Y-38991932D01*
X29517833Y-39168657D01*
X29439755Y-39363685D01*
X29403846Y-39549999D01*
X29093570Y-39549999D01*
X29085528Y-39465782D01*
X29026316Y-39264125D01*
X28930011Y-39077318D01*
X28930009Y-39077316D01*
X28930008Y-39077313D01*
X28800094Y-38912116D01*
X28800090Y-38912112D01*
X28641253Y-38774478D01*
X28459249Y-38669398D01*
X28459245Y-38669396D01*
X28459244Y-38669396D01*
X28260633Y-38600656D01*
X28052602Y-38570746D01*
X28052598Y-38570746D01*
X27842672Y-38580745D01*
X27638421Y-38630296D01*
X27638417Y-38630298D01*
X27447256Y-38717598D01*
X27447251Y-38717601D01*
X27276046Y-38839515D01*
X27276040Y-38839520D01*
X27131014Y-38991620D01*
X27017388Y-39168425D01*
X26939274Y-39363544D01*
X26904318Y-39544915D01*
X26899500Y-39569915D01*
X26899500Y-39977425D01*
X26906403Y-40049716D01*
X26914472Y-40134217D01*
X26914473Y-40134221D01*
X26973628Y-40335686D01*
X26973684Y-40335875D01*
X27023019Y-40431572D01*
X27069991Y-40522686D01*
X27199904Y-40687881D01*
X27199910Y-40687888D01*
X27246642Y-40728382D01*
X27284416Y-40787160D01*
X27284416Y-40857030D01*
X27253133Y-40909762D01*
X27249728Y-40913168D01*
X27188410Y-40946662D01*
X27162034Y-40949500D01*
X26333295Y-40949500D01*
X26266256Y-40929815D01*
X26220501Y-40877011D01*
X26210557Y-40807853D01*
X26239582Y-40744297D01*
X26243552Y-40739930D01*
X26293170Y-40687892D01*
X26368986Y-40608378D01*
X26482613Y-40431572D01*
X26560725Y-40236457D01*
X26600500Y-40030085D01*
X26600500Y-39622575D01*
X26585528Y-39465782D01*
X26526316Y-39264125D01*
X26430011Y-39077318D01*
X26430009Y-39077316D01*
X26430008Y-39077313D01*
X26300094Y-38912116D01*
X26300090Y-38912112D01*
X26141253Y-38774478D01*
X25959249Y-38669398D01*
X25959245Y-38669396D01*
X25959244Y-38669396D01*
X25760633Y-38600656D01*
X25552602Y-38570746D01*
X25552598Y-38570746D01*
X25342672Y-38580745D01*
X25138421Y-38630296D01*
X25138417Y-38630298D01*
X24947256Y-38717598D01*
X24947251Y-38717601D01*
X24776046Y-38839515D01*
X24776040Y-38839520D01*
X24631014Y-38991620D01*
X24517388Y-39168425D01*
X24439274Y-39363544D01*
X24404318Y-39544915D01*
X24399500Y-39569915D01*
X24399500Y-39977425D01*
X24406403Y-40049716D01*
X24414472Y-40134217D01*
X24414473Y-40134221D01*
X24473628Y-40335686D01*
X24473684Y-40335875D01*
X24523019Y-40431572D01*
X24569991Y-40522686D01*
X24699905Y-40687883D01*
X24699909Y-40687887D01*
X24750572Y-40731787D01*
X24788346Y-40790566D01*
X24788346Y-40860435D01*
X24750571Y-40919213D01*
X24687016Y-40948238D01*
X24669369Y-40949500D01*
X24152740Y-40949500D01*
X24085701Y-40929815D01*
X24039946Y-40877011D01*
X24030002Y-40807853D01*
X24040743Y-40775581D01*
X24040254Y-40775399D01*
X24093596Y-40632379D01*
X24093598Y-40632372D01*
X24099999Y-40572844D01*
X24100000Y-40572827D01*
X24100000Y-40050000D01*
X23403969Y-40050000D01*
X23436519Y-39999351D01*
X23475000Y-39868295D01*
X23475000Y-39731705D01*
X23436519Y-39600649D01*
X23403969Y-39550000D01*
X24100000Y-39550000D01*
X24100000Y-39027172D01*
X24099999Y-39027155D01*
X24093598Y-38967627D01*
X24093596Y-38967620D01*
X24043354Y-38832913D01*
X24043350Y-38832906D01*
X23957190Y-38717812D01*
X23957187Y-38717809D01*
X23842093Y-38631649D01*
X23842086Y-38631645D01*
X23707379Y-38581403D01*
X23707372Y-38581401D01*
X23647844Y-38575000D01*
X23250000Y-38575000D01*
X23250000Y-39391981D01*
X23135199Y-39339554D01*
X23033975Y-39325000D01*
X22966025Y-39325000D01*
X22864801Y-39339554D01*
X22750000Y-39391981D01*
X22750000Y-38575000D01*
X22352155Y-38575000D01*
X22292627Y-38581401D01*
X22292620Y-38581403D01*
X22157913Y-38631645D01*
X22157906Y-38631649D01*
X22042812Y-38717809D01*
X22042809Y-38717812D01*
X21956649Y-38832906D01*
X21956645Y-38832913D01*
X21906403Y-38967620D01*
X21906401Y-38967627D01*
X21900000Y-39027155D01*
X21900000Y-39550000D01*
X22596031Y-39550000D01*
X22563481Y-39600649D01*
X22525000Y-39731705D01*
X22525000Y-39868295D01*
X22563481Y-39999351D01*
X22596031Y-40050000D01*
X21900000Y-40050000D01*
X21900000Y-40572844D01*
X21906401Y-40632372D01*
X21906403Y-40632379D01*
X21959746Y-40775399D01*
X21958242Y-40775959D01*
X21970944Y-40834341D01*
X21946530Y-40899806D01*
X21890599Y-40941680D01*
X21847260Y-40949500D01*
X21837965Y-40949500D01*
X21770926Y-40929815D01*
X21750284Y-40913181D01*
X20886819Y-40049716D01*
X20853334Y-39988393D01*
X20850500Y-39962035D01*
X20850500Y-37032261D01*
X20851280Y-37018376D01*
X20851770Y-37014032D01*
X20855270Y-36982965D01*
X20844637Y-36926770D01*
X20843864Y-36922217D01*
X20837096Y-36877313D01*
X20835348Y-36865713D01*
X20835347Y-36865711D01*
X20835347Y-36865709D01*
X20832831Y-36857552D01*
X20830024Y-36849528D01*
X20803306Y-36798977D01*
X20801225Y-36794857D01*
X20786691Y-36764677D01*
X20775341Y-36695737D01*
X20803064Y-36631603D01*
X20861060Y-36592638D01*
X20930915Y-36591213D01*
X20986094Y-36623197D01*
X22258630Y-37895733D01*
X22267895Y-37906100D01*
X22290121Y-37933970D01*
X22290123Y-37933972D01*
X22337363Y-37966180D01*
X22341145Y-37968863D01*
X22387118Y-38002793D01*
X22394654Y-38006776D01*
X22402319Y-38010467D01*
X22402327Y-38010472D01*
X22427188Y-38018140D01*
X22456980Y-38027330D01*
X22461371Y-38028774D01*
X22515301Y-38047646D01*
X22515305Y-38047646D01*
X22523679Y-38049230D01*
X22532096Y-38050499D01*
X22532098Y-38050500D01*
X22589262Y-38050500D01*
X22593898Y-38050586D01*
X22651010Y-38052724D01*
X22660244Y-38051684D01*
X22660337Y-38052513D01*
X22675636Y-38050500D01*
X31567738Y-38050500D01*
X31581620Y-38051279D01*
X31592565Y-38052513D01*
X31617033Y-38055270D01*
X31617033Y-38055269D01*
X31617035Y-38055270D01*
X31673236Y-38044635D01*
X31677726Y-38043872D01*
X31734287Y-38035348D01*
X31734291Y-38035345D01*
X31742447Y-38032830D01*
X31750469Y-38030024D01*
X31750470Y-38030023D01*
X31750472Y-38030023D01*
X31801088Y-38003270D01*
X31805093Y-38001248D01*
X31856642Y-37976425D01*
X31856643Y-37976423D01*
X31856645Y-37976423D01*
X31863695Y-37971616D01*
X31870534Y-37966567D01*
X31870538Y-37966566D01*
X31910974Y-37926128D01*
X31914260Y-37922962D01*
X31956194Y-37884055D01*
X31956196Y-37884050D01*
X31961987Y-37876790D01*
X31962643Y-37877313D01*
X31972032Y-37865070D01*
X34212318Y-35624783D01*
X34273641Y-35591299D01*
X34343333Y-35596283D01*
X34387680Y-35624784D01*
X36658630Y-37895733D01*
X36667895Y-37906100D01*
X36690121Y-37933970D01*
X36690123Y-37933972D01*
X36737363Y-37966180D01*
X36741145Y-37968863D01*
X36787118Y-38002793D01*
X36794654Y-38006776D01*
X36802319Y-38010467D01*
X36802327Y-38010472D01*
X36827188Y-38018140D01*
X36856980Y-38027330D01*
X36861371Y-38028774D01*
X36915301Y-38047646D01*
X36915305Y-38047646D01*
X36923698Y-38049234D01*
X36932095Y-38050500D01*
X36932098Y-38050500D01*
X36989245Y-38050500D01*
X36993883Y-38050587D01*
X37051009Y-38052725D01*
X37051009Y-38052724D01*
X37051010Y-38052725D01*
X37051010Y-38052724D01*
X37060242Y-38051685D01*
X37060335Y-38052513D01*
X37075639Y-38050500D01*
X40367738Y-38050500D01*
X40381620Y-38051279D01*
X40392565Y-38052513D01*
X40417033Y-38055270D01*
X40417033Y-38055269D01*
X40417035Y-38055270D01*
X40473236Y-38044635D01*
X40477726Y-38043872D01*
X40534287Y-38035348D01*
X40534291Y-38035345D01*
X40542447Y-38032830D01*
X40550469Y-38030024D01*
X40550470Y-38030023D01*
X40550472Y-38030023D01*
X40601088Y-38003270D01*
X40605093Y-38001248D01*
X40656642Y-37976425D01*
X40656643Y-37976423D01*
X40656645Y-37976423D01*
X40663695Y-37971616D01*
X40670534Y-37966567D01*
X40670538Y-37966566D01*
X40710974Y-37926128D01*
X40714260Y-37922962D01*
X40756194Y-37884055D01*
X40756196Y-37884050D01*
X40761987Y-37876790D01*
X40762643Y-37877313D01*
X40772032Y-37865070D01*
X43395744Y-35241357D01*
X43406093Y-35232109D01*
X43433970Y-35209879D01*
X43466198Y-35162607D01*
X43468812Y-35158923D01*
X43502793Y-35112882D01*
X43502793Y-35112879D01*
X43502795Y-35112878D01*
X43506787Y-35105324D01*
X43510471Y-35097675D01*
X43514032Y-35086130D01*
X43527330Y-35043014D01*
X43528762Y-35038662D01*
X43547646Y-34984699D01*
X43547646Y-34984696D01*
X43549228Y-34976336D01*
X43550500Y-34967899D01*
X43550500Y-34910754D01*
X43550587Y-34906116D01*
X43552725Y-34848990D01*
X43551685Y-34839758D01*
X43552513Y-34839664D01*
X43550500Y-34824361D01*
X43550500Y-34033783D01*
X43570185Y-33966744D01*
X43622989Y-33920989D01*
X43622990Y-33920988D01*
X43652422Y-33907547D01*
X43652753Y-33907396D01*
X43823952Y-33785486D01*
X43846313Y-33762035D01*
X43968985Y-33633379D01*
X43968986Y-33633378D01*
X44082613Y-33456572D01*
X44160725Y-33261457D01*
X44200500Y-33055085D01*
X44200500Y-32597575D01*
X44185528Y-32440782D01*
X44126316Y-32239125D01*
X44030011Y-32052318D01*
X44030009Y-32052316D01*
X44030008Y-32052313D01*
X43900094Y-31887116D01*
X43900090Y-31887112D01*
X43741253Y-31749478D01*
X43559249Y-31644398D01*
X43559245Y-31644396D01*
X43559244Y-31644396D01*
X43360633Y-31575656D01*
X43152602Y-31545746D01*
X43152598Y-31545746D01*
X42942672Y-31555745D01*
X42738421Y-31605296D01*
X42738417Y-31605298D01*
X42547256Y-31692598D01*
X42547251Y-31692601D01*
X42376046Y-31814515D01*
X42376040Y-31814520D01*
X42231014Y-31966620D01*
X42117388Y-32143425D01*
X42039274Y-32338544D01*
X41999500Y-32544914D01*
X41999500Y-32544915D01*
X41999500Y-33002425D01*
X42014472Y-33159218D01*
X42073684Y-33360875D01*
X42123019Y-33456572D01*
X42169991Y-33547686D01*
X42299905Y-33712883D01*
X42299908Y-33712886D01*
X42458744Y-33850519D01*
X42587501Y-33924857D01*
X42635715Y-33975422D01*
X42649500Y-34032243D01*
X42649500Y-34662035D01*
X42629815Y-34729074D01*
X42613181Y-34749716D01*
X40249716Y-37113181D01*
X40188393Y-37146666D01*
X40162035Y-37149500D01*
X37237965Y-37149500D01*
X37170926Y-37129815D01*
X37150284Y-37113181D01*
X34786819Y-34749716D01*
X34753334Y-34688393D01*
X34750500Y-34662035D01*
X34750500Y-34033783D01*
X34770185Y-33966744D01*
X34822989Y-33920989D01*
X34822990Y-33920988D01*
X34852422Y-33907547D01*
X34852753Y-33907396D01*
X35023952Y-33785486D01*
X35046313Y-33762035D01*
X35168985Y-33633379D01*
X35168986Y-33633378D01*
X35282613Y-33456572D01*
X35360725Y-33261457D01*
X35400500Y-33055085D01*
X35400500Y-32597575D01*
X35385528Y-32440782D01*
X35326316Y-32239125D01*
X35230011Y-32052318D01*
X35230009Y-32052316D01*
X35230008Y-32052313D01*
X35100094Y-31887116D01*
X35100090Y-31887112D01*
X34941253Y-31749478D01*
X34824182Y-31681887D01*
X34775966Y-31631320D01*
X34762744Y-31562713D01*
X34788712Y-31497848D01*
X34845626Y-31457320D01*
X34886182Y-31450500D01*
X39562034Y-31450500D01*
X39629073Y-31470185D01*
X39649715Y-31486819D01*
X39663017Y-31500121D01*
X39696502Y-31561444D01*
X39691518Y-31631136D01*
X39649652Y-31687065D01*
X39642454Y-31692453D01*
X39642452Y-31692455D01*
X39556206Y-31807664D01*
X39556202Y-31807671D01*
X39505908Y-31942517D01*
X39503317Y-31966622D01*
X39499501Y-32002123D01*
X39499500Y-32002135D01*
X39499500Y-33597870D01*
X39499501Y-33597876D01*
X39505908Y-33657483D01*
X39556202Y-33792328D01*
X39556206Y-33792335D01*
X39642452Y-33907544D01*
X39642455Y-33907547D01*
X39757664Y-33993793D01*
X39757671Y-33993797D01*
X39892517Y-34044091D01*
X39892516Y-34044091D01*
X39899444Y-34044835D01*
X39952127Y-34050500D01*
X41247872Y-34050499D01*
X41307483Y-34044091D01*
X41442331Y-33993796D01*
X41557546Y-33907546D01*
X41643796Y-33792331D01*
X41694091Y-33657483D01*
X41700500Y-33597873D01*
X41700499Y-32002128D01*
X41694091Y-31942517D01*
X41685506Y-31919500D01*
X41643797Y-31807671D01*
X41643793Y-31807664D01*
X41557547Y-31692455D01*
X41557544Y-31692452D01*
X41442335Y-31606206D01*
X41442328Y-31606202D01*
X41307482Y-31555908D01*
X41307483Y-31555908D01*
X41247883Y-31549501D01*
X41247881Y-31549500D01*
X41247873Y-31549500D01*
X41247865Y-31549500D01*
X41037966Y-31549500D01*
X40970927Y-31529815D01*
X40950285Y-31513181D01*
X40926152Y-31489048D01*
X40922935Y-31485708D01*
X40884057Y-31443807D01*
X40876790Y-31438012D01*
X40877310Y-31437359D01*
X40865070Y-31427966D01*
X40141368Y-30704265D01*
X40132102Y-30693897D01*
X40118668Y-30677051D01*
X40109879Y-30666030D01*
X40109878Y-30666029D01*
X40109877Y-30666028D01*
X40084350Y-30648624D01*
X40062633Y-30633818D01*
X40058869Y-30631147D01*
X40012886Y-30597209D01*
X40005297Y-30593198D01*
X39997675Y-30589528D01*
X39943049Y-30572679D01*
X39938644Y-30571230D01*
X39884695Y-30552352D01*
X39876326Y-30550768D01*
X39867904Y-30549500D01*
X39867902Y-30549500D01*
X39810738Y-30549500D01*
X39806101Y-30549413D01*
X39804085Y-30549337D01*
X39748989Y-30547275D01*
X39739756Y-30548316D01*
X39739662Y-30547486D01*
X39724364Y-30549500D01*
X33154096Y-30549500D01*
X33087057Y-30529815D01*
X33041302Y-30477011D01*
X33031358Y-30407853D01*
X33060383Y-30344297D01*
X33114683Y-30307930D01*
X33137728Y-30300206D01*
X33143125Y-30298534D01*
X33217389Y-30277405D01*
X33233635Y-30269314D01*
X33249486Y-30262748D01*
X33266702Y-30256979D01*
X33334155Y-30219407D01*
X33339134Y-30216782D01*
X33408255Y-30182366D01*
X33422730Y-30171434D01*
X33437113Y-30162061D01*
X33452975Y-30153227D01*
X33512373Y-30103902D01*
X33516822Y-30100378D01*
X33578407Y-30053872D01*
X33630398Y-29996839D01*
X33634332Y-29992719D01*
X41292719Y-22334332D01*
X41296841Y-22330397D01*
X41353872Y-22278407D01*
X41400405Y-22216785D01*
X41403888Y-22212389D01*
X41453226Y-22152975D01*
X41462054Y-22137123D01*
X41471421Y-22122746D01*
X41482366Y-22108255D01*
X41516781Y-22039138D01*
X41519414Y-22034142D01*
X41556979Y-21966702D01*
X41562748Y-21949487D01*
X41569316Y-21933633D01*
X41577405Y-21917389D01*
X41598528Y-21843147D01*
X41600202Y-21837741D01*
X41624739Y-21764537D01*
X41627245Y-21746567D01*
X41630792Y-21729754D01*
X41632360Y-21724244D01*
X41635756Y-21712310D01*
X41642877Y-21635450D01*
X41643536Y-21629771D01*
X41652487Y-21565603D01*
X41654195Y-21553362D01*
X41650632Y-21476285D01*
X41650500Y-21470560D01*
X41650500Y-14727932D01*
X41670185Y-14660893D01*
X41670692Y-14660110D01*
X41698834Y-14617036D01*
X41780049Y-14492728D01*
X41876610Y-14272591D01*
X41935620Y-14039563D01*
X41948643Y-13882398D01*
X41955471Y-13800005D01*
X41955471Y-13799994D01*
X41939593Y-13608379D01*
X41935620Y-13560437D01*
X41876610Y-13327409D01*
X41780049Y-13107272D01*
X41774814Y-13099260D01*
X41695211Y-12977419D01*
X41648571Y-12906031D01*
X41485764Y-12729175D01*
X41485759Y-12729171D01*
X41485757Y-12729169D01*
X41296075Y-12581533D01*
X41296069Y-12581529D01*
X41084657Y-12467118D01*
X41084652Y-12467116D01*
X40857300Y-12389066D01*
X40679468Y-12359391D01*
X40620192Y-12349500D01*
X40379808Y-12349500D01*
X40332387Y-12357413D01*
X40142699Y-12389066D01*
X39915347Y-12467116D01*
X39915342Y-12467118D01*
X39703930Y-12581529D01*
X39703924Y-12581533D01*
X39514242Y-12729169D01*
X39514239Y-12729172D01*
X39351430Y-12906029D01*
X39351427Y-12906033D01*
X39219951Y-13107270D01*
X39123389Y-13327410D01*
X39064379Y-13560440D01*
X39044529Y-13799994D01*
X39044529Y-13800005D01*
X39064379Y-14039559D01*
X39123389Y-14272589D01*
X39219951Y-14492729D01*
X39329308Y-14660110D01*
X39349496Y-14726999D01*
X39349500Y-14727932D01*
X39349500Y-20972085D01*
X39329815Y-21039124D01*
X39313181Y-21059766D01*
X32359766Y-28013181D01*
X32298443Y-28046666D01*
X32272085Y-28049500D01*
X27727915Y-28049500D01*
X27660876Y-28029815D01*
X27640234Y-28013181D01*
X22627053Y-23000000D01*
X26244680Y-23000000D01*
X26263946Y-23379918D01*
X26290968Y-23556302D01*
X26321552Y-23755940D01*
X26383644Y-23995755D01*
X26416904Y-24124212D01*
X26549016Y-24480925D01*
X26549022Y-24480940D01*
X26716548Y-24822463D01*
X26716553Y-24822472D01*
X26917771Y-25145295D01*
X27114926Y-25400000D01*
X27150620Y-25446112D01*
X27407356Y-25716198D01*
X27412709Y-25721829D01*
X27701343Y-25969614D01*
X27701346Y-25969616D01*
X28013571Y-26186931D01*
X28346179Y-26371543D01*
X28695758Y-26521559D01*
X28695761Y-26521560D01*
X28695766Y-26521562D01*
X29058709Y-26635436D01*
X29058712Y-26635436D01*
X29058720Y-26635439D01*
X29431340Y-26712015D01*
X29734104Y-26742803D01*
X29809795Y-26750500D01*
X29809796Y-26750500D01*
X30190205Y-26750500D01*
X30253280Y-26744085D01*
X30568660Y-26712015D01*
X30941280Y-26635439D01*
X30941290Y-26635436D01*
X31304233Y-26521562D01*
X31304234Y-26521561D01*
X31304242Y-26521559D01*
X31653821Y-26371543D01*
X31986429Y-26186931D01*
X32298654Y-25969616D01*
X32587291Y-25721829D01*
X32849380Y-25446112D01*
X33082229Y-25145295D01*
X33283451Y-24822464D01*
X33450981Y-24480932D01*
X33583098Y-24124204D01*
X33678448Y-23755940D01*
X33736053Y-23379919D01*
X33755320Y-23000000D01*
X33736053Y-22620081D01*
X33678448Y-22244060D01*
X33583098Y-21875796D01*
X33571012Y-21843164D01*
X33494089Y-21635463D01*
X33450981Y-21519068D01*
X33444078Y-21504996D01*
X33283451Y-21177536D01*
X33283446Y-21177527D01*
X33082228Y-20854704D01*
X32849384Y-20553893D01*
X32849383Y-20553892D01*
X32849380Y-20553888D01*
X32587291Y-20278171D01*
X32511833Y-20213392D01*
X32298656Y-20030385D01*
X31986429Y-19813069D01*
X31986424Y-19813066D01*
X31653820Y-19628456D01*
X31304233Y-19478437D01*
X30941290Y-19364563D01*
X30941284Y-19364562D01*
X30941281Y-19364561D01*
X30941280Y-19364561D01*
X30568660Y-19287985D01*
X30568659Y-19287984D01*
X30568655Y-19287984D01*
X30190205Y-19249500D01*
X30190204Y-19249500D01*
X29809796Y-19249500D01*
X29809795Y-19249500D01*
X29431344Y-19287984D01*
X29058715Y-19364562D01*
X29058709Y-19364563D01*
X28695766Y-19478437D01*
X28346179Y-19628456D01*
X28013575Y-19813066D01*
X28013570Y-19813069D01*
X27701343Y-20030385D01*
X27412709Y-20278170D01*
X27150615Y-20553893D01*
X26917771Y-20854704D01*
X26716553Y-21177527D01*
X26716548Y-21177536D01*
X26549022Y-21519059D01*
X26549016Y-21519074D01*
X26416904Y-21875787D01*
X26321551Y-22244064D01*
X26263946Y-22620081D01*
X26244680Y-23000000D01*
X22627053Y-23000000D01*
X21694353Y-22067300D01*
X21690397Y-22063158D01*
X21638405Y-22006126D01*
X21576850Y-21959641D01*
X21572362Y-21956086D01*
X21512975Y-21906773D01*
X21497120Y-21897942D01*
X21482730Y-21888565D01*
X21468258Y-21877636D01*
X21468249Y-21877630D01*
X21399184Y-21843240D01*
X21394119Y-21840570D01*
X21326703Y-21803021D01*
X21326698Y-21803019D01*
X21309495Y-21797253D01*
X21293633Y-21790683D01*
X21277391Y-21782596D01*
X21277389Y-21782595D01*
X21203179Y-21761480D01*
X21197719Y-21759789D01*
X21124536Y-21735261D01*
X21124535Y-21735260D01*
X21124533Y-21735260D01*
X21124532Y-21735259D01*
X21106558Y-21732752D01*
X21089762Y-21729209D01*
X21072310Y-21724244D01*
X21004618Y-21717971D01*
X20939681Y-21692184D01*
X20898994Y-21635384D01*
X20895474Y-21565603D01*
X20930240Y-21504996D01*
X20992253Y-21472807D01*
X21016060Y-21470500D01*
X23650546Y-21470500D01*
X23656272Y-21470632D01*
X23733362Y-21474196D01*
X23809830Y-21463528D01*
X23815444Y-21462878D01*
X23892310Y-21455756D01*
X23909761Y-21450789D01*
X23926566Y-21447245D01*
X23944536Y-21444739D01*
X24017743Y-21420201D01*
X24023125Y-21418534D01*
X24097389Y-21397405D01*
X24113635Y-21389314D01*
X24129486Y-21382748D01*
X24146702Y-21376979D01*
X24214155Y-21339407D01*
X24219134Y-21336782D01*
X24288255Y-21302366D01*
X24302730Y-21291434D01*
X24317113Y-21282061D01*
X24332975Y-21273227D01*
X24392373Y-21223902D01*
X24396822Y-21220378D01*
X24458407Y-21173872D01*
X24510398Y-21116839D01*
X24514332Y-21112719D01*
X28040234Y-17586819D01*
X28101557Y-17553334D01*
X28127915Y-17550500D01*
X34370546Y-17550500D01*
X34376272Y-17550632D01*
X34453362Y-17554196D01*
X34529830Y-17543528D01*
X34535444Y-17542878D01*
X34612310Y-17535756D01*
X34629761Y-17530789D01*
X34646566Y-17527245D01*
X34664536Y-17524739D01*
X34737743Y-17500201D01*
X34743125Y-17498534D01*
X34817389Y-17477405D01*
X34833635Y-17469314D01*
X34849486Y-17462748D01*
X34866702Y-17456979D01*
X34934155Y-17419407D01*
X34939134Y-17416782D01*
X35008255Y-17382366D01*
X35022730Y-17371434D01*
X35037113Y-17362061D01*
X35052975Y-17353227D01*
X35112373Y-17303902D01*
X35116822Y-17300378D01*
X35178407Y-17253872D01*
X35230398Y-17196839D01*
X35234332Y-17192719D01*
X37140234Y-15286819D01*
X37201557Y-15253334D01*
X37227915Y-15250500D01*
X38224676Y-15250500D01*
X38224677Y-15250499D01*
X38297740Y-15235966D01*
X38380601Y-15180601D01*
X38435966Y-15097740D01*
X38450500Y-15024674D01*
X38450500Y-12575326D01*
X38450500Y-12575323D01*
X38450499Y-12575321D01*
X38435967Y-12502264D01*
X38435966Y-12502260D01*
X38412484Y-12467116D01*
X38380601Y-12419399D01*
X38297740Y-12364034D01*
X38297739Y-12364033D01*
X38297735Y-12364032D01*
X38224677Y-12349500D01*
X38224674Y-12349500D01*
X35775326Y-12349500D01*
X35775323Y-12349500D01*
X35702264Y-12364032D01*
X35702260Y-12364033D01*
X35619399Y-12419399D01*
X35564033Y-12502260D01*
X35564032Y-12502264D01*
X35549500Y-12575321D01*
X35549500Y-13572085D01*
X35529815Y-13639124D01*
X35513181Y-13659766D01*
X33959766Y-15213181D01*
X33898443Y-15246666D01*
X33872085Y-15249500D01*
X27629439Y-15249500D01*
X27623714Y-15249368D01*
X27615901Y-15249006D01*
X27546638Y-15245805D01*
X27546637Y-15245805D01*
X27546634Y-15245805D01*
X27470232Y-15256462D01*
X27464544Y-15257122D01*
X27387690Y-15264244D01*
X27387687Y-15264244D01*
X27370229Y-15269211D01*
X27353434Y-15272754D01*
X27335460Y-15275261D01*
X27262286Y-15299786D01*
X27256817Y-15301480D01*
X27182609Y-15322595D01*
X27182608Y-15322595D01*
X27166365Y-15330683D01*
X27150510Y-15337251D01*
X27133301Y-15343019D01*
X27133290Y-15343024D01*
X27065884Y-15380568D01*
X27060820Y-15383237D01*
X26991744Y-15417633D01*
X26991743Y-15417634D01*
X26977260Y-15428571D01*
X26962881Y-15437941D01*
X26947026Y-15446772D01*
X26947024Y-15446774D01*
X26887653Y-15496074D01*
X26883167Y-15499628D01*
X26821593Y-15546128D01*
X26821590Y-15546130D01*
X26769611Y-15603147D01*
X26765657Y-15607288D01*
X23239766Y-19133181D01*
X23178443Y-19166666D01*
X23152085Y-19169500D01*
X17913194Y-19169500D01*
X15266806Y-19169500D01*
X15139513Y-19181295D01*
X15107689Y-19184244D01*
X14902607Y-19242596D01*
X14902605Y-19242596D01*
X14711746Y-19337632D01*
X14541593Y-19466127D01*
X14397947Y-19623699D01*
X14285702Y-19804980D01*
X14285701Y-19804982D01*
X14208680Y-20003799D01*
X14208679Y-20003802D01*
X14169500Y-20213390D01*
X14169500Y-20426610D01*
X14208679Y-20636198D01*
X14285702Y-20835019D01*
X14397948Y-21016302D01*
X14487683Y-21114736D01*
X14541593Y-21173872D01*
X14711746Y-21302367D01*
X14902606Y-21397403D01*
X14902608Y-21397403D01*
X14902611Y-21397405D01*
X15107690Y-21455756D01*
X15223954Y-21466529D01*
X15288891Y-21492315D01*
X15329579Y-21549115D01*
X15333099Y-21618896D01*
X15298334Y-21679503D01*
X15236321Y-21711693D01*
X15223958Y-21713470D01*
X15139147Y-21721329D01*
X15107689Y-21724244D01*
X14902607Y-21782596D01*
X14902605Y-21782596D01*
X14711746Y-21877632D01*
X14541593Y-22006127D01*
X14397947Y-22163699D01*
X14285702Y-22344980D01*
X14285701Y-22344982D01*
X14208680Y-22543799D01*
X14208679Y-22543802D01*
X14169500Y-22753390D01*
X14169500Y-22966610D01*
X14208679Y-23176198D01*
X14285702Y-23375019D01*
X14397948Y-23556302D01*
X14541593Y-23713872D01*
X14711746Y-23842367D01*
X14902606Y-23937403D01*
X14902608Y-23937403D01*
X14902611Y-23937405D01*
X15107690Y-23995756D01*
X15175389Y-24002029D01*
X15240326Y-24027815D01*
X15281014Y-24084615D01*
X15284534Y-24154396D01*
X15249769Y-24215003D01*
X15187756Y-24247193D01*
X15163948Y-24249500D01*
X13429439Y-24249500D01*
X13423714Y-24249368D01*
X13415901Y-24249006D01*
X13346638Y-24245805D01*
X13346637Y-24245805D01*
X13346634Y-24245805D01*
X13270232Y-24256462D01*
X13264544Y-24257122D01*
X13187690Y-24264244D01*
X13187687Y-24264244D01*
X13170229Y-24269211D01*
X13153434Y-24272754D01*
X13135460Y-24275261D01*
X13062286Y-24299786D01*
X13056817Y-24301480D01*
X12982609Y-24322595D01*
X12982608Y-24322595D01*
X12966365Y-24330683D01*
X12950510Y-24337251D01*
X12933301Y-24343019D01*
X12933290Y-24343024D01*
X12865884Y-24380568D01*
X12860820Y-24383237D01*
X12791744Y-24417633D01*
X12791743Y-24417634D01*
X12777260Y-24428571D01*
X12762881Y-24437941D01*
X12747026Y-24446772D01*
X12747024Y-24446774D01*
X12687653Y-24496074D01*
X12683167Y-24499628D01*
X12621593Y-24546128D01*
X12621590Y-24546130D01*
X12569611Y-24603147D01*
X12565657Y-24607288D01*
X9407288Y-27765657D01*
X9403147Y-27769611D01*
X9346125Y-27821595D01*
X9346123Y-27821597D01*
X9299633Y-27883159D01*
X9296079Y-27887646D01*
X9246773Y-27947024D01*
X9246769Y-27947030D01*
X9237937Y-27962886D01*
X9228566Y-27977267D01*
X9217635Y-27991742D01*
X9217633Y-27991744D01*
X9183235Y-28060824D01*
X9180566Y-28065888D01*
X9143021Y-28133296D01*
X9137255Y-28150501D01*
X9130686Y-28166359D01*
X9122599Y-28182600D01*
X9122595Y-28182612D01*
X9101480Y-28256820D01*
X9099786Y-28262290D01*
X9075261Y-28335463D01*
X9072754Y-28353435D01*
X9069211Y-28370232D01*
X9064243Y-28387692D01*
X9057123Y-28464531D01*
X9056463Y-28470219D01*
X9045804Y-28546633D01*
X9049368Y-28623727D01*
X9049500Y-28629453D01*
X9049500Y-41970545D01*
X9049368Y-41976270D01*
X9045804Y-42053366D01*
X9056463Y-42129779D01*
X9057123Y-42135467D01*
X9064244Y-42212310D01*
X9069209Y-42229762D01*
X9072752Y-42246558D01*
X9075259Y-42264532D01*
X9075260Y-42264533D01*
X9099786Y-42337707D01*
X9101480Y-42343179D01*
X9122596Y-42417391D01*
X9130683Y-42433633D01*
X9137253Y-42449495D01*
X9143019Y-42466698D01*
X9143021Y-42466703D01*
X9180570Y-42534119D01*
X9183240Y-42539184D01*
X9217630Y-42608249D01*
X9217636Y-42608258D01*
X9228565Y-42622730D01*
X9237942Y-42637120D01*
X9246773Y-42652975D01*
X9296086Y-42712362D01*
X9299641Y-42716850D01*
X9346126Y-42778405D01*
X9403158Y-42830397D01*
X9407300Y-42834353D01*
X10620818Y-44047871D01*
X10645519Y-44083147D01*
X10712896Y-44227636D01*
X10712897Y-44227638D01*
X10712898Y-44227639D01*
X10838402Y-44406877D01*
X10993123Y-44561598D01*
X11172361Y-44687102D01*
X11370670Y-44779575D01*
X11582023Y-44836207D01*
X11764926Y-44852208D01*
X11799998Y-44855277D01*
X11800000Y-44855277D01*
X11800002Y-44855277D01*
X11828254Y-44852805D01*
X12017977Y-44836207D01*
X12229330Y-44779575D01*
X12427639Y-44687102D01*
X12606877Y-44561598D01*
X12761598Y-44406877D01*
X12887102Y-44227639D01*
X12979575Y-44029330D01*
X13036207Y-43817977D01*
X13055277Y-43600000D01*
X13036207Y-43382023D01*
X12979575Y-43170670D01*
X12887102Y-42972362D01*
X12887100Y-42972359D01*
X12887099Y-42972357D01*
X12761599Y-42793124D01*
X12685325Y-42716850D01*
X12606877Y-42638402D01*
X12427639Y-42512898D01*
X12427638Y-42512897D01*
X12427636Y-42512896D01*
X12283147Y-42445519D01*
X12247871Y-42420818D01*
X11386819Y-41559766D01*
X11353334Y-41498443D01*
X11350500Y-41472085D01*
X11350500Y-40686965D01*
X11370185Y-40619926D01*
X11422989Y-40574171D01*
X11492147Y-40564227D01*
X11555703Y-40593252D01*
X11562166Y-40599270D01*
X14095913Y-43133016D01*
X16658630Y-45695733D01*
X16667895Y-45706100D01*
X16690121Y-45733970D01*
X16690123Y-45733972D01*
X16737363Y-45766180D01*
X16741145Y-45768863D01*
X16750448Y-45775729D01*
X16792699Y-45831377D01*
X16798157Y-45901033D01*
X16765089Y-45962582D01*
X16703995Y-45996483D01*
X16676814Y-45999499D01*
X3003245Y-45999499D01*
X2996755Y-45999329D01*
X2866648Y-45992510D01*
X2866186Y-45992485D01*
X2686129Y-45982374D01*
X2673683Y-45981042D01*
X2524954Y-45957486D01*
X2523581Y-45957261D01*
X2364704Y-45930266D01*
X2353381Y-45927793D01*
X2204334Y-45887855D01*
X2202101Y-45887234D01*
X2050864Y-45843664D01*
X2040753Y-45840274D01*
X1895251Y-45784421D01*
X1892236Y-45783218D01*
X1748276Y-45723588D01*
X1739434Y-45719512D01*
X1599877Y-45648404D01*
X1596191Y-45646447D01*
X1460481Y-45571443D01*
X1452938Y-45566917D01*
X1321209Y-45481371D01*
X1317010Y-45478520D01*
X1190879Y-45389025D01*
X1184611Y-45384271D01*
X1062381Y-45285291D01*
X1057790Y-45281385D01*
X942598Y-45178442D01*
X937568Y-45173687D01*
X826324Y-45062443D01*
X821550Y-45057394D01*
X718601Y-44942194D01*
X714695Y-44937602D01*
X615737Y-44815398D01*
X610974Y-44809119D01*
X521483Y-44682994D01*
X518617Y-44678773D01*
X433087Y-44547068D01*
X428554Y-44539514D01*
X355250Y-44406881D01*
X353543Y-44403792D01*
X351589Y-44400111D01*
X280486Y-44260563D01*
X276410Y-44251720D01*
X216780Y-44107759D01*
X215577Y-44104745D01*
X159724Y-43959243D01*
X156334Y-43949133D01*
X154941Y-43944297D01*
X112750Y-43797851D01*
X112167Y-43795753D01*
X72196Y-43646581D01*
X69734Y-43635304D01*
X42728Y-43476357D01*
X42533Y-43475173D01*
X18953Y-43326292D01*
X17626Y-43313900D01*
X7510Y-43133755D01*
X668Y-43003200D01*
X499Y-42996720D01*
X499Y-14617036D01*
X10744729Y-14617036D01*
X10755355Y-14673196D01*
X10756132Y-14677765D01*
X10764652Y-14734291D01*
X10767162Y-14742427D01*
X10769976Y-14750470D01*
X10796688Y-14801011D01*
X10798776Y-14805149D01*
X10823574Y-14856641D01*
X10828362Y-14863665D01*
X10833431Y-14870532D01*
X10833434Y-14870538D01*
X10833438Y-14870542D01*
X10873846Y-14910950D01*
X10877063Y-14914289D01*
X10915947Y-14956196D01*
X10923210Y-14961988D01*
X10922689Y-14962641D01*
X10934930Y-14972034D01*
X14038630Y-18075733D01*
X14047895Y-18086100D01*
X14070121Y-18113970D01*
X14070123Y-18113972D01*
X14117363Y-18146180D01*
X14121145Y-18148863D01*
X14167118Y-18182793D01*
X14174654Y-18186776D01*
X14182319Y-18190467D01*
X14182327Y-18190472D01*
X14207188Y-18198140D01*
X14236980Y-18207330D01*
X14241355Y-18208769D01*
X14269783Y-18218716D01*
X14326557Y-18259437D01*
X14339827Y-18280486D01*
X14380327Y-18361821D01*
X14441781Y-18443200D01*
X14503237Y-18524581D01*
X14653958Y-18661980D01*
X14653960Y-18661982D01*
X14753141Y-18723392D01*
X14827363Y-18769348D01*
X15017544Y-18843024D01*
X15218024Y-18880500D01*
X15218026Y-18880500D01*
X15421974Y-18880500D01*
X15421976Y-18880500D01*
X15622456Y-18843024D01*
X15812637Y-18769348D01*
X15986041Y-18661981D01*
X16136764Y-18524579D01*
X16259673Y-18361821D01*
X16350582Y-18179250D01*
X16406397Y-17983083D01*
X16425215Y-17780000D01*
X16406397Y-17576917D01*
X16350582Y-17380750D01*
X16345946Y-17371440D01*
X16306272Y-17291764D01*
X16259673Y-17198179D01*
X16159937Y-17066107D01*
X16136762Y-17035418D01*
X15986041Y-16898019D01*
X15986039Y-16898017D01*
X15812642Y-16790655D01*
X15812635Y-16790651D01*
X15717546Y-16753814D01*
X15622456Y-16716976D01*
X15421976Y-16679500D01*
X15218024Y-16679500D01*
X15017544Y-16716976D01*
X15017541Y-16716976D01*
X15017541Y-16716977D01*
X14827364Y-16790651D01*
X14827357Y-16790655D01*
X14653960Y-16898017D01*
X14653958Y-16898019D01*
X14503236Y-17035419D01*
X14503236Y-17035420D01*
X14489844Y-17053154D01*
X14433734Y-17094789D01*
X14364022Y-17099480D01*
X14303210Y-17066107D01*
X11686819Y-14449716D01*
X11653334Y-14388393D01*
X11650500Y-14362035D01*
X11650500Y-13386965D01*
X11670185Y-13319926D01*
X11722989Y-13274171D01*
X11792147Y-13264227D01*
X11855703Y-13293252D01*
X11862167Y-13299271D01*
X12920914Y-14358017D01*
X14098630Y-15535733D01*
X14107895Y-15546100D01*
X14130121Y-15573970D01*
X14130123Y-15573972D01*
X14177363Y-15606180D01*
X14181145Y-15608863D01*
X14227118Y-15642793D01*
X14234654Y-15646776D01*
X14242322Y-15650468D01*
X14242327Y-15650472D01*
X14253794Y-15654009D01*
X14312053Y-15692577D01*
X14328246Y-15717228D01*
X14380327Y-15821821D01*
X14503237Y-15984581D01*
X14653958Y-16121980D01*
X14653960Y-16121982D01*
X14753141Y-16183392D01*
X14827363Y-16229348D01*
X15017544Y-16303024D01*
X15218024Y-16340500D01*
X15218026Y-16340500D01*
X15421974Y-16340500D01*
X15421976Y-16340500D01*
X15622456Y-16303024D01*
X15812637Y-16229348D01*
X15986041Y-16121981D01*
X16136764Y-15984579D01*
X16259673Y-15821821D01*
X16350582Y-15639250D01*
X16406397Y-15443083D01*
X16425215Y-15240000D01*
X16412032Y-15097735D01*
X16406397Y-15036917D01*
X16402914Y-15024676D01*
X16350582Y-14840750D01*
X16330794Y-14801011D01*
X16293941Y-14726999D01*
X16259673Y-14658179D01*
X16191375Y-14567738D01*
X16136762Y-14495418D01*
X15986041Y-14358019D01*
X15986039Y-14358017D01*
X15812642Y-14250655D01*
X15812635Y-14250651D01*
X15717546Y-14213814D01*
X15622456Y-14176976D01*
X15421976Y-14139500D01*
X15218024Y-14139500D01*
X15017544Y-14176976D01*
X15017541Y-14176976D01*
X15017541Y-14176977D01*
X14827364Y-14250651D01*
X14827357Y-14250655D01*
X14653960Y-14358017D01*
X14653958Y-14358019D01*
X14501432Y-14497065D01*
X14438628Y-14527682D01*
X14369241Y-14519484D01*
X14330213Y-14493109D01*
X12486819Y-12649715D01*
X12453334Y-12588392D01*
X12450500Y-12562034D01*
X12450500Y-11686965D01*
X12470185Y-11619926D01*
X12522989Y-11574171D01*
X12592147Y-11564227D01*
X12655703Y-11593252D01*
X12662167Y-11599271D01*
X13299758Y-12236861D01*
X14058630Y-12995733D01*
X14067895Y-13006100D01*
X14090121Y-13033970D01*
X14090123Y-13033972D01*
X14137363Y-13066180D01*
X14141141Y-13068860D01*
X14182313Y-13099247D01*
X14187118Y-13102793D01*
X14194654Y-13106776D01*
X14202320Y-13110467D01*
X14202327Y-13110472D01*
X14209223Y-13112599D01*
X14256964Y-13127325D01*
X14261350Y-13128767D01*
X14265550Y-13130237D01*
X14322330Y-13170952D01*
X14335607Y-13192011D01*
X14380327Y-13281821D01*
X14421147Y-13335875D01*
X14503237Y-13444581D01*
X14653958Y-13581980D01*
X14653960Y-13581982D01*
X14696593Y-13608379D01*
X14827363Y-13689348D01*
X15017544Y-13763024D01*
X15218024Y-13800500D01*
X15218026Y-13800500D01*
X15421974Y-13800500D01*
X15421976Y-13800500D01*
X15622456Y-13763024D01*
X15812637Y-13689348D01*
X15986041Y-13581981D01*
X16136764Y-13444579D01*
X16259673Y-13281821D01*
X16350582Y-13099250D01*
X16406397Y-12903083D01*
X16425215Y-12700000D01*
X16410844Y-12544914D01*
X16406397Y-12496917D01*
X16368588Y-12364034D01*
X16350582Y-12300750D01*
X16338773Y-12277035D01*
X16272244Y-12143425D01*
X16259673Y-12118179D01*
X16172036Y-12002129D01*
X16136762Y-11955418D01*
X15986041Y-11818019D01*
X15986039Y-11818017D01*
X15812642Y-11710655D01*
X15812635Y-11710651D01*
X15645068Y-11645736D01*
X15622456Y-11636976D01*
X15421976Y-11599500D01*
X15218024Y-11599500D01*
X15017544Y-11636976D01*
X15017541Y-11636976D01*
X15017541Y-11636977D01*
X14827364Y-11710651D01*
X14827357Y-11710655D01*
X14653960Y-11818017D01*
X14653958Y-11818019D01*
X14503236Y-11955419D01*
X14503232Y-11955424D01*
X14498447Y-11961761D01*
X14442337Y-12003395D01*
X14372625Y-12008084D01*
X14311815Y-11974712D01*
X13286819Y-10949716D01*
X13253334Y-10888393D01*
X13250500Y-10862035D01*
X13250500Y-9986965D01*
X13270185Y-9919926D01*
X13322989Y-9874171D01*
X13392147Y-9864227D01*
X13455703Y-9893252D01*
X13462169Y-9899273D01*
X13678083Y-10115186D01*
X14018630Y-10455733D01*
X14027895Y-10466100D01*
X14050121Y-10493970D01*
X14050123Y-10493972D01*
X14097363Y-10526180D01*
X14101145Y-10528863D01*
X14147118Y-10562793D01*
X14154665Y-10566781D01*
X14162322Y-10570468D01*
X14162327Y-10570472D01*
X14216983Y-10587330D01*
X14221342Y-10588765D01*
X14274002Y-10607191D01*
X14330777Y-10647912D01*
X14344047Y-10668961D01*
X14380327Y-10741821D01*
X14503237Y-10904581D01*
X14653958Y-11041980D01*
X14653960Y-11041982D01*
X14753141Y-11103392D01*
X14827363Y-11149348D01*
X15017544Y-11223024D01*
X15218024Y-11260500D01*
X15218026Y-11260500D01*
X15421974Y-11260500D01*
X15421976Y-11260500D01*
X15622456Y-11223024D01*
X15812637Y-11149348D01*
X15986041Y-11041981D01*
X16136764Y-10904579D01*
X16259673Y-10741821D01*
X16350582Y-10559250D01*
X16406397Y-10363083D01*
X16425215Y-10160000D01*
X16421918Y-10124424D01*
X16406397Y-9956917D01*
X16389999Y-9899284D01*
X16350582Y-9760750D01*
X16348313Y-9756194D01*
X16306272Y-9671764D01*
X16259673Y-9578179D01*
X16168542Y-9457502D01*
X16136762Y-9415418D01*
X15986041Y-9278019D01*
X15986039Y-9278017D01*
X15812642Y-9170655D01*
X15812635Y-9170651D01*
X15692740Y-9124204D01*
X15622456Y-9096976D01*
X15421976Y-9059500D01*
X15218024Y-9059500D01*
X15017544Y-9096976D01*
X15017541Y-9096976D01*
X15017541Y-9096977D01*
X14827364Y-9170651D01*
X14827357Y-9170655D01*
X14653960Y-9278017D01*
X14653958Y-9278019D01*
X14503239Y-9415416D01*
X14490771Y-9431926D01*
X14481238Y-9444550D01*
X14425130Y-9486184D01*
X14355418Y-9490875D01*
X14294605Y-9457502D01*
X14086819Y-9249716D01*
X14053334Y-9188393D01*
X14050500Y-9162035D01*
X14050500Y-8065873D01*
X14070185Y-7998834D01*
X14122989Y-7953079D01*
X14192147Y-7943135D01*
X14255703Y-7972160D01*
X14285649Y-8014721D01*
X14286862Y-8014118D01*
X14380327Y-8201821D01*
X14503237Y-8364581D01*
X14653958Y-8501980D01*
X14653960Y-8501982D01*
X14690753Y-8524763D01*
X14827363Y-8609348D01*
X15017544Y-8683024D01*
X15218024Y-8720500D01*
X15218026Y-8720500D01*
X15421974Y-8720500D01*
X15421976Y-8720500D01*
X15622456Y-8683024D01*
X15812637Y-8609348D01*
X15986041Y-8501981D01*
X16136764Y-8364579D01*
X16259673Y-8201821D01*
X16350582Y-8019250D01*
X16406397Y-7823083D01*
X16425215Y-7620000D01*
X16406397Y-7416917D01*
X16350582Y-7220750D01*
X16327161Y-7173715D01*
X16297607Y-7114361D01*
X16259673Y-7038179D01*
X16136764Y-6875421D01*
X16123177Y-6863035D01*
X16036523Y-6784039D01*
X16000242Y-6724327D01*
X16002003Y-6654480D01*
X16032379Y-6604723D01*
X18150285Y-4486819D01*
X18211608Y-4453334D01*
X18237966Y-4450500D01*
X22411231Y-4450500D01*
X22478270Y-4470185D01*
X22524025Y-4522989D01*
X22533969Y-4592147D01*
X22527413Y-4617833D01*
X22480908Y-4742517D01*
X22478317Y-4766622D01*
X22474501Y-4802123D01*
X22474500Y-4802135D01*
X22474500Y-5025500D01*
X22454815Y-5092539D01*
X22402011Y-5138294D01*
X22350500Y-5149500D01*
X19912262Y-5149500D01*
X19898379Y-5148720D01*
X19893370Y-5148155D01*
X19862963Y-5144729D01*
X19806810Y-5155354D01*
X19802241Y-5156131D01*
X19745715Y-5164651D01*
X19737532Y-5167175D01*
X19729529Y-5169976D01*
X19678985Y-5196689D01*
X19674848Y-5198777D01*
X19623358Y-5223573D01*
X19616338Y-5228359D01*
X19609460Y-5233435D01*
X19569058Y-5273837D01*
X19565722Y-5277051D01*
X19523804Y-5315946D01*
X19518013Y-5323208D01*
X19517362Y-5322688D01*
X19507967Y-5334928D01*
X18308578Y-6534317D01*
X18247255Y-6567802D01*
X18177563Y-6562818D01*
X18176105Y-6562263D01*
X18162465Y-6556979D01*
X18162457Y-6556976D01*
X18067239Y-6539177D01*
X17961976Y-6519500D01*
X17758024Y-6519500D01*
X17557544Y-6556976D01*
X17557541Y-6556976D01*
X17557541Y-6556977D01*
X17367364Y-6630651D01*
X17367357Y-6630655D01*
X17193960Y-6738017D01*
X17193958Y-6738019D01*
X17043237Y-6875418D01*
X16920327Y-7038178D01*
X16829422Y-7220739D01*
X16829417Y-7220752D01*
X16773602Y-7416917D01*
X16754785Y-7619999D01*
X16754785Y-7620000D01*
X16773602Y-7823082D01*
X16829417Y-8019247D01*
X16829422Y-8019260D01*
X16920327Y-8201821D01*
X17043237Y-8364581D01*
X17193958Y-8501980D01*
X17193960Y-8501982D01*
X17230753Y-8524763D01*
X17367363Y-8609348D01*
X17557544Y-8683024D01*
X17758024Y-8720500D01*
X17758026Y-8720500D01*
X17961974Y-8720500D01*
X17961976Y-8720500D01*
X18129394Y-8689204D01*
X18198906Y-8696235D01*
X18253584Y-8739733D01*
X18276067Y-8805886D01*
X18259214Y-8873693D01*
X18239857Y-8898774D01*
X18106898Y-9031733D01*
X18045575Y-9065218D01*
X17996433Y-9065941D01*
X17961976Y-9059500D01*
X17758024Y-9059500D01*
X17557544Y-9096976D01*
X17557541Y-9096976D01*
X17557541Y-9096977D01*
X17367364Y-9170651D01*
X17367357Y-9170655D01*
X17193960Y-9278017D01*
X17193958Y-9278019D01*
X17043237Y-9415418D01*
X16920327Y-9578178D01*
X16829422Y-9760739D01*
X16829417Y-9760752D01*
X16773602Y-9956917D01*
X16754785Y-10159999D01*
X16754785Y-10160000D01*
X16773602Y-10363082D01*
X16829417Y-10559247D01*
X16829422Y-10559260D01*
X16920327Y-10741821D01*
X17043237Y-10904581D01*
X17193958Y-11041980D01*
X17193960Y-11041982D01*
X17293141Y-11103392D01*
X17367363Y-11149348D01*
X17557544Y-11223024D01*
X17758024Y-11260500D01*
X17758026Y-11260500D01*
X17961973Y-11260500D01*
X17961976Y-11260500D01*
X18080198Y-11238400D01*
X18149708Y-11245431D01*
X18204387Y-11288928D01*
X18226870Y-11355082D01*
X18210018Y-11422889D01*
X18190660Y-11447970D01*
X18073197Y-11565433D01*
X18011874Y-11598918D01*
X17967724Y-11599569D01*
X17967682Y-11600029D01*
X17963410Y-11599633D01*
X17962744Y-11599643D01*
X17961983Y-11599500D01*
X17961976Y-11599500D01*
X17758024Y-11599500D01*
X17557544Y-11636976D01*
X17557541Y-11636976D01*
X17557541Y-11636977D01*
X17367364Y-11710651D01*
X17367357Y-11710655D01*
X17193960Y-11818017D01*
X17193958Y-11818019D01*
X17043237Y-11955418D01*
X16920327Y-12118178D01*
X16829422Y-12300739D01*
X16829417Y-12300752D01*
X16773602Y-12496917D01*
X16754785Y-12699999D01*
X16754785Y-12700000D01*
X16773602Y-12903082D01*
X16829417Y-13099247D01*
X16829422Y-13099260D01*
X16920327Y-13281821D01*
X17043237Y-13444581D01*
X17193958Y-13581980D01*
X17193960Y-13581982D01*
X17236593Y-13608379D01*
X17367363Y-13689348D01*
X17557544Y-13763024D01*
X17758024Y-13800500D01*
X17758026Y-13800500D01*
X17961973Y-13800500D01*
X17961976Y-13800500D01*
X18030999Y-13787597D01*
X18100512Y-13794628D01*
X18155190Y-13838125D01*
X18177673Y-13904279D01*
X18160821Y-13972086D01*
X18141464Y-13997167D01*
X18035448Y-14103182D01*
X17974128Y-14136666D01*
X17947769Y-14139500D01*
X17758024Y-14139500D01*
X17557544Y-14176976D01*
X17557541Y-14176976D01*
X17557541Y-14176977D01*
X17367364Y-14250651D01*
X17367357Y-14250655D01*
X17193960Y-14358017D01*
X17193958Y-14358019D01*
X17043237Y-14495418D01*
X16920327Y-14658178D01*
X16829422Y-14840739D01*
X16829417Y-14840752D01*
X16773602Y-15036917D01*
X16754785Y-15239999D01*
X16754785Y-15240000D01*
X16773602Y-15443082D01*
X16829417Y-15639247D01*
X16829422Y-15639260D01*
X16920327Y-15821821D01*
X17043237Y-15984581D01*
X17193958Y-16121980D01*
X17193960Y-16121982D01*
X17293141Y-16183392D01*
X17367363Y-16229348D01*
X17557544Y-16303024D01*
X17758024Y-16340500D01*
X17758026Y-16340500D01*
X17961974Y-16340500D01*
X17961976Y-16340500D01*
X18104796Y-16313802D01*
X18174307Y-16320833D01*
X18228985Y-16364330D01*
X18251468Y-16430484D01*
X18234616Y-16498291D01*
X18215258Y-16523372D01*
X18090047Y-16648583D01*
X18028724Y-16682068D01*
X17979583Y-16682791D01*
X17961976Y-16679500D01*
X17758024Y-16679500D01*
X17557544Y-16716976D01*
X17557541Y-16716976D01*
X17557541Y-16716977D01*
X17367364Y-16790651D01*
X17367357Y-16790655D01*
X17193960Y-16898017D01*
X17193958Y-16898019D01*
X17043237Y-17035418D01*
X16920327Y-17198178D01*
X16829422Y-17380739D01*
X16829417Y-17380752D01*
X16773602Y-17576917D01*
X16754785Y-17779999D01*
X16754785Y-17780000D01*
X16773602Y-17983082D01*
X16829417Y-18179247D01*
X16829422Y-18179260D01*
X16920327Y-18361821D01*
X17043237Y-18524581D01*
X17193958Y-18661980D01*
X17193960Y-18661982D01*
X17293141Y-18723392D01*
X17367363Y-18769348D01*
X17557544Y-18843024D01*
X17758024Y-18880500D01*
X17758026Y-18880500D01*
X17961974Y-18880500D01*
X17961976Y-18880500D01*
X18162456Y-18843024D01*
X18352637Y-18769348D01*
X18526041Y-18661981D01*
X18676764Y-18524579D01*
X18799673Y-18361821D01*
X18890582Y-18179250D01*
X18946397Y-17983083D01*
X18949221Y-17952595D01*
X18975005Y-17887659D01*
X18985003Y-17876362D01*
X22805204Y-14056161D01*
X22866525Y-14022678D01*
X22906135Y-14020555D01*
X22952127Y-14025500D01*
X24247872Y-14025499D01*
X24307483Y-14019091D01*
X24442331Y-13968796D01*
X24557546Y-13882546D01*
X24643796Y-13767331D01*
X24694091Y-13632483D01*
X24700500Y-13572873D01*
X24700499Y-12027128D01*
X24694091Y-11967517D01*
X24693757Y-11966622D01*
X24643797Y-11832671D01*
X24643795Y-11832668D01*
X24632829Y-11818019D01*
X24581019Y-11748810D01*
X24556602Y-11683348D01*
X24571453Y-11615074D01*
X24620858Y-11565669D01*
X24680286Y-11550500D01*
X24987770Y-11550500D01*
X25054809Y-11570185D01*
X25075451Y-11586819D01*
X25181236Y-11692604D01*
X25267048Y-11778415D01*
X25300533Y-11839738D01*
X25295549Y-11909429D01*
X25269112Y-11951664D01*
X25231014Y-11991621D01*
X25231011Y-11991625D01*
X25117388Y-12168425D01*
X25039274Y-12363544D01*
X25004318Y-12544915D01*
X24999500Y-12569915D01*
X24999500Y-12977425D01*
X25014472Y-13134218D01*
X25073684Y-13335875D01*
X25135907Y-13456572D01*
X25169991Y-13522686D01*
X25299905Y-13687883D01*
X25299909Y-13687887D01*
X25458746Y-13825521D01*
X25640750Y-13930601D01*
X25640752Y-13930601D01*
X25640756Y-13930604D01*
X25839367Y-13999344D01*
X26047398Y-14029254D01*
X26257330Y-14019254D01*
X26461576Y-13969704D01*
X26559781Y-13924855D01*
X26652743Y-13882401D01*
X26652746Y-13882399D01*
X26652753Y-13882396D01*
X26823952Y-13760486D01*
X26869338Y-13712887D01*
X26968985Y-13608379D01*
X26968986Y-13608378D01*
X27082613Y-13431572D01*
X27160725Y-13236457D01*
X27200500Y-13030085D01*
X27200500Y-12622575D01*
X27185528Y-12465782D01*
X27126316Y-12264125D01*
X27030011Y-12077318D01*
X27030009Y-12077316D01*
X27030008Y-12077313D01*
X26900094Y-11912116D01*
X26900090Y-11912112D01*
X26893292Y-11906221D01*
X26855521Y-11847441D01*
X26850500Y-11812512D01*
X26850500Y-11613705D01*
X26851809Y-11595735D01*
X26853115Y-11586819D01*
X26855289Y-11571977D01*
X26854716Y-11565433D01*
X26850972Y-11522635D01*
X26850500Y-11511826D01*
X26850500Y-11506296D01*
X26850500Y-11506291D01*
X26846894Y-11475443D01*
X26846534Y-11471916D01*
X26845078Y-11455274D01*
X26839998Y-11397203D01*
X26839997Y-11397201D01*
X26838538Y-11390135D01*
X26838598Y-11390122D01*
X26836966Y-11382764D01*
X26836908Y-11382778D01*
X26835242Y-11375750D01*
X26835241Y-11375748D01*
X26835241Y-11375745D01*
X26809567Y-11305206D01*
X26808420Y-11301908D01*
X26784814Y-11230666D01*
X26784811Y-11230662D01*
X26781762Y-11224121D01*
X26781815Y-11224095D01*
X26778531Y-11217311D01*
X26778479Y-11217338D01*
X26775236Y-11210882D01*
X26734025Y-11148222D01*
X26732087Y-11145180D01*
X26722866Y-11130230D01*
X26704426Y-11062837D01*
X26725349Y-10996174D01*
X26778992Y-10951405D01*
X26848323Y-10942744D01*
X26911330Y-10972941D01*
X26916086Y-10977453D01*
X27742643Y-11804011D01*
X27776128Y-11865334D01*
X27771144Y-11935026D01*
X27744708Y-11977258D01*
X27731019Y-11991615D01*
X27731011Y-11991625D01*
X27617388Y-12168425D01*
X27539274Y-12363544D01*
X27504318Y-12544915D01*
X27499500Y-12569915D01*
X27499500Y-12977425D01*
X27514472Y-13134218D01*
X27573684Y-13335875D01*
X27635907Y-13456572D01*
X27669991Y-13522686D01*
X27799905Y-13687883D01*
X27799909Y-13687887D01*
X27958746Y-13825521D01*
X28140750Y-13930601D01*
X28140752Y-13930601D01*
X28140756Y-13930604D01*
X28339367Y-13999344D01*
X28547398Y-14029254D01*
X28757330Y-14019254D01*
X28961576Y-13969704D01*
X29059781Y-13924855D01*
X29152743Y-13882401D01*
X29152746Y-13882399D01*
X29152753Y-13882396D01*
X29323952Y-13760486D01*
X29369338Y-13712887D01*
X29468985Y-13608379D01*
X29468986Y-13608378D01*
X29582613Y-13431572D01*
X29660725Y-13236457D01*
X29700500Y-13030085D01*
X29700500Y-12622575D01*
X29685528Y-12465782D01*
X29626316Y-12264125D01*
X29530011Y-12077318D01*
X29530009Y-12077316D01*
X29530008Y-12077313D01*
X29400094Y-11912116D01*
X29400090Y-11912112D01*
X29393292Y-11906221D01*
X29355521Y-11847441D01*
X29350500Y-11812512D01*
X29350500Y-11663705D01*
X29351809Y-11645736D01*
X29353317Y-11635437D01*
X29355289Y-11621977D01*
X29354565Y-11613705D01*
X29350972Y-11572630D01*
X29350500Y-11561822D01*
X29350500Y-11556296D01*
X29350500Y-11556291D01*
X29346901Y-11525509D01*
X29346536Y-11521929D01*
X29339999Y-11447201D01*
X29338539Y-11440129D01*
X29338597Y-11440116D01*
X29336965Y-11432757D01*
X29336906Y-11432772D01*
X29335241Y-11425751D01*
X29335241Y-11425745D01*
X29309569Y-11355212D01*
X29308421Y-11351909D01*
X29284814Y-11280666D01*
X29284812Y-11280663D01*
X29283617Y-11277056D01*
X29281215Y-11207228D01*
X29316947Y-11147186D01*
X29379467Y-11115993D01*
X29448927Y-11123554D01*
X29489004Y-11150371D01*
X30199181Y-11860548D01*
X30232666Y-11921871D01*
X30227682Y-11991563D01*
X30215816Y-12015268D01*
X30117387Y-12168427D01*
X30039274Y-12363544D01*
X30004318Y-12544915D01*
X29999500Y-12569915D01*
X29999500Y-12977425D01*
X30014472Y-13134218D01*
X30073684Y-13335875D01*
X30135907Y-13456572D01*
X30169991Y-13522686D01*
X30299905Y-13687883D01*
X30299909Y-13687887D01*
X30458746Y-13825521D01*
X30640750Y-13930601D01*
X30640752Y-13930601D01*
X30640756Y-13930604D01*
X30839367Y-13999344D01*
X31047398Y-14029254D01*
X31257330Y-14019254D01*
X31461576Y-13969704D01*
X31559781Y-13924855D01*
X31652743Y-13882401D01*
X31652746Y-13882399D01*
X31652753Y-13882396D01*
X31823952Y-13760486D01*
X31869338Y-13712887D01*
X31968985Y-13608379D01*
X31968986Y-13608378D01*
X32082613Y-13431572D01*
X32160725Y-13236457D01*
X32200500Y-13030085D01*
X32200500Y-12622575D01*
X32185528Y-12465782D01*
X32126316Y-12264125D01*
X32030011Y-12077318D01*
X32030009Y-12077316D01*
X32030008Y-12077313D01*
X31900094Y-11912116D01*
X31900090Y-11912112D01*
X31893292Y-11906221D01*
X31855521Y-11847441D01*
X31850500Y-11812512D01*
X31850500Y-11763705D01*
X31851809Y-11745735D01*
X31852129Y-11743547D01*
X31855289Y-11721977D01*
X31854893Y-11717454D01*
X31850972Y-11672630D01*
X31850500Y-11661822D01*
X31850500Y-11656296D01*
X31850500Y-11656291D01*
X31846901Y-11625509D01*
X31846536Y-11621929D01*
X31839999Y-11547201D01*
X31838539Y-11540129D01*
X31838597Y-11540116D01*
X31836965Y-11532757D01*
X31836906Y-11532772D01*
X31835241Y-11525751D01*
X31835241Y-11525745D01*
X31809569Y-11455212D01*
X31808421Y-11451909D01*
X31784814Y-11380666D01*
X31784810Y-11380659D01*
X31781760Y-11374118D01*
X31781815Y-11374091D01*
X31778533Y-11367313D01*
X31778480Y-11367340D01*
X31775235Y-11360880D01*
X31734025Y-11298223D01*
X31732086Y-11295181D01*
X31723133Y-11280666D01*
X31692712Y-11231345D01*
X31692711Y-11231344D01*
X31692710Y-11231342D01*
X31688234Y-11225682D01*
X31688281Y-11225644D01*
X31683519Y-11219799D01*
X31683474Y-11219838D01*
X31678831Y-11214305D01*
X31624272Y-11162831D01*
X31621685Y-11160318D01*
X28461368Y-8000000D01*
X51244680Y-8000000D01*
X51263946Y-8379918D01*
X51321551Y-8755935D01*
X51416904Y-9124212D01*
X51549016Y-9480925D01*
X51549022Y-9480940D01*
X51716548Y-9822463D01*
X51716553Y-9822472D01*
X51917771Y-10145295D01*
X52090757Y-10368776D01*
X52150620Y-10446112D01*
X52304170Y-10607646D01*
X52412709Y-10721829D01*
X52701343Y-10969614D01*
X52701346Y-10969616D01*
X53013571Y-11186931D01*
X53346179Y-11371543D01*
X53695758Y-11521559D01*
X53695761Y-11521560D01*
X53695766Y-11521562D01*
X54058709Y-11635436D01*
X54058712Y-11635436D01*
X54058720Y-11635439D01*
X54431340Y-11712015D01*
X54734104Y-11742803D01*
X54809795Y-11750500D01*
X54809796Y-11750500D01*
X55190205Y-11750500D01*
X55253280Y-11744085D01*
X55568660Y-11712015D01*
X55941280Y-11635439D01*
X55972888Y-11625522D01*
X56304233Y-11521562D01*
X56304234Y-11521561D01*
X56304242Y-11521559D01*
X56653821Y-11371543D01*
X56986429Y-11186931D01*
X57298654Y-10969616D01*
X57587291Y-10721829D01*
X57849380Y-10446112D01*
X58082229Y-10145295D01*
X58283451Y-9822464D01*
X58450981Y-9480932D01*
X58583098Y-9124204D01*
X58678448Y-8755940D01*
X58736053Y-8379919D01*
X58755320Y-8000000D01*
X58736053Y-7620081D01*
X58678448Y-7244060D01*
X58583098Y-6875796D01*
X58579010Y-6864759D01*
X58478116Y-6592335D01*
X58450981Y-6519068D01*
X58447947Y-6512883D01*
X58283451Y-6177536D01*
X58283446Y-6177527D01*
X58147372Y-5959217D01*
X58082229Y-5854705D01*
X57849380Y-5553888D01*
X57587291Y-5278171D01*
X57587290Y-5278170D01*
X57298656Y-5030385D01*
X56986429Y-4813069D01*
X56986424Y-4813066D01*
X56653820Y-4628456D01*
X56304233Y-4478437D01*
X55941290Y-4364563D01*
X55941284Y-4364562D01*
X55941281Y-4364561D01*
X55941280Y-4364561D01*
X55568660Y-4287985D01*
X55568659Y-4287984D01*
X55568655Y-4287984D01*
X55190205Y-4249500D01*
X55190204Y-4249500D01*
X54809796Y-4249500D01*
X54809795Y-4249500D01*
X54431344Y-4287984D01*
X54058715Y-4364562D01*
X54058709Y-4364563D01*
X53695766Y-4478437D01*
X53346179Y-4628456D01*
X53013575Y-4813066D01*
X53013570Y-4813069D01*
X52701343Y-5030385D01*
X52412709Y-5278170D01*
X52150615Y-5553893D01*
X51917771Y-5854704D01*
X51716553Y-6177527D01*
X51716548Y-6177536D01*
X51549022Y-6519059D01*
X51549016Y-6519074D01*
X51416904Y-6875787D01*
X51321551Y-7244064D01*
X51263946Y-7620081D01*
X51244680Y-8000000D01*
X28461368Y-8000000D01*
X27575729Y-7114361D01*
X27563949Y-7100730D01*
X27549610Y-7081470D01*
X27511651Y-7049619D01*
X27503686Y-7042318D01*
X27499780Y-7038411D01*
X27475443Y-7019168D01*
X27472647Y-7016890D01*
X27415214Y-6968698D01*
X27409180Y-6964729D01*
X27409212Y-6964680D01*
X27402853Y-6960628D01*
X27402822Y-6960679D01*
X27396680Y-6956891D01*
X27396678Y-6956890D01*
X27396677Y-6956889D01*
X27328688Y-6925184D01*
X27325447Y-6923615D01*
X27261706Y-6891604D01*
X27258433Y-6889960D01*
X27258431Y-6889959D01*
X27258430Y-6889959D01*
X27251645Y-6887489D01*
X27251665Y-6887433D01*
X27244549Y-6884959D01*
X27244531Y-6885015D01*
X27237674Y-6882743D01*
X27164210Y-6867573D01*
X27160693Y-6866793D01*
X27087718Y-6849499D01*
X27080547Y-6848661D01*
X27080553Y-6848601D01*
X27073055Y-6847835D01*
X27073050Y-6847895D01*
X27065860Y-6847265D01*
X26990870Y-6849448D01*
X26987263Y-6849500D01*
X26816102Y-6849500D01*
X26749063Y-6829815D01*
X26703308Y-6777011D01*
X26693364Y-6707853D01*
X26722389Y-6644297D01*
X26744172Y-6624494D01*
X26798952Y-6585486D01*
X26819941Y-6563474D01*
X26943985Y-6433379D01*
X26966797Y-6397883D01*
X27057613Y-6256572D01*
X27135725Y-6061457D01*
X27175500Y-5855085D01*
X27175500Y-5397575D01*
X27160528Y-5240782D01*
X27101316Y-5039125D01*
X27005011Y-4852318D01*
X27005009Y-4852316D01*
X27005008Y-4852313D01*
X26875094Y-4687116D01*
X26875090Y-4687112D01*
X26716253Y-4549478D01*
X26576901Y-4469024D01*
X26528686Y-4418457D01*
X26516287Y-4380121D01*
X26510348Y-4340713D01*
X26510345Y-4340708D01*
X26507836Y-4332571D01*
X26505024Y-4324534D01*
X26505023Y-4324528D01*
X26478285Y-4273941D01*
X26476223Y-4269854D01*
X26451425Y-4218358D01*
X26451423Y-4218356D01*
X26451423Y-4218355D01*
X26446642Y-4211342D01*
X26441566Y-4204465D01*
X26441565Y-4204462D01*
X26401165Y-4164062D01*
X26397947Y-4160721D01*
X26359060Y-4118809D01*
X26351792Y-4113014D01*
X26352312Y-4112361D01*
X26340067Y-4102964D01*
X26099284Y-3862181D01*
X26065799Y-3800858D01*
X26070783Y-3731166D01*
X26112655Y-3675233D01*
X26178119Y-3650816D01*
X26186965Y-3650500D01*
X30962034Y-3650500D01*
X31029073Y-3670185D01*
X31049715Y-3686819D01*
X31577394Y-4214498D01*
X31610879Y-4275821D01*
X31605895Y-4345513D01*
X31564025Y-4401445D01*
X31442452Y-4492455D01*
X31356206Y-4607664D01*
X31356202Y-4607671D01*
X31305908Y-4742517D01*
X31303317Y-4766622D01*
X31299501Y-4802123D01*
X31299500Y-4802135D01*
X31299500Y-6397870D01*
X31299501Y-6397876D01*
X31305908Y-6457483D01*
X31356202Y-6592328D01*
X31356206Y-6592335D01*
X31442452Y-6707544D01*
X31442455Y-6707547D01*
X31557664Y-6793793D01*
X31557671Y-6793797D01*
X31692517Y-6844091D01*
X31692516Y-6844091D01*
X31699444Y-6844835D01*
X31752127Y-6850500D01*
X33047872Y-6850499D01*
X33107483Y-6844091D01*
X33242331Y-6793796D01*
X33357546Y-6707546D01*
X33443796Y-6592331D01*
X33494091Y-6457483D01*
X33500500Y-6397873D01*
X33500499Y-4802128D01*
X33494091Y-4742517D01*
X33473426Y-4687112D01*
X33443797Y-4607671D01*
X33443793Y-4607664D01*
X33357547Y-4492455D01*
X33357544Y-4492452D01*
X33242335Y-4406206D01*
X33242328Y-4406202D01*
X33107482Y-4355908D01*
X33107483Y-4355908D01*
X33047883Y-4349501D01*
X33047881Y-4349500D01*
X33047873Y-4349500D01*
X33047865Y-4349500D01*
X32988222Y-4349500D01*
X32921183Y-4329815D01*
X32878593Y-4283443D01*
X32868308Y-4263983D01*
X32866223Y-4259854D01*
X32862640Y-4252413D01*
X32841425Y-4208358D01*
X32841423Y-4208356D01*
X32841423Y-4208355D01*
X32836642Y-4201342D01*
X32831566Y-4194465D01*
X32831565Y-4194462D01*
X32791165Y-4154062D01*
X32787947Y-4150721D01*
X32749060Y-4108809D01*
X32741792Y-4103014D01*
X32742312Y-4102361D01*
X32730067Y-4092964D01*
X31699284Y-3062181D01*
X31665799Y-3000858D01*
X31670783Y-2931166D01*
X31712655Y-2875233D01*
X31778119Y-2850816D01*
X31786965Y-2850500D01*
X32562034Y-2850500D01*
X32629073Y-2870185D01*
X32649715Y-2886819D01*
X34190002Y-4427106D01*
X34223487Y-4488429D01*
X34218503Y-4558121D01*
X34179797Y-4609823D01*
X34180511Y-4610647D01*
X34176726Y-4613925D01*
X34176631Y-4614054D01*
X34176299Y-4614296D01*
X34176040Y-4614520D01*
X34031014Y-4766620D01*
X33917388Y-4943425D01*
X33839274Y-5138544D01*
X33803649Y-5323388D01*
X33799500Y-5344915D01*
X33799500Y-5802425D01*
X33814472Y-5959218D01*
X33873684Y-6160875D01*
X33923019Y-6256572D01*
X33969991Y-6347686D01*
X34099905Y-6512883D01*
X34099909Y-6512887D01*
X34258746Y-6650521D01*
X34440750Y-6755601D01*
X34440752Y-6755601D01*
X34440756Y-6755604D01*
X34639367Y-6824344D01*
X34847398Y-6854254D01*
X35057330Y-6844254D01*
X35261576Y-6794704D01*
X35347199Y-6755601D01*
X35452743Y-6707401D01*
X35452746Y-6707399D01*
X35452753Y-6707396D01*
X35623952Y-6585486D01*
X35644941Y-6563474D01*
X35768985Y-6433379D01*
X35791797Y-6397883D01*
X35882613Y-6256572D01*
X35960725Y-6061457D01*
X36000500Y-5855085D01*
X36000500Y-5397575D01*
X35985528Y-5240782D01*
X35926316Y-5039125D01*
X35830011Y-4852318D01*
X35830009Y-4852316D01*
X35830008Y-4852313D01*
X35700094Y-4687116D01*
X35700090Y-4687112D01*
X35541255Y-4549480D01*
X35456534Y-4500566D01*
X35408319Y-4449999D01*
X35400045Y-4429731D01*
X35397836Y-4422571D01*
X35395024Y-4414534D01*
X35395023Y-4414528D01*
X35368285Y-4363941D01*
X35366223Y-4359854D01*
X35341425Y-4308358D01*
X35341423Y-4308356D01*
X35341423Y-4308355D01*
X35336642Y-4301342D01*
X35331566Y-4294465D01*
X35331565Y-4294462D01*
X35291165Y-4254062D01*
X35287947Y-4250721D01*
X35249060Y-4208809D01*
X35241792Y-4203014D01*
X35242312Y-4202361D01*
X35230067Y-4192964D01*
X33299284Y-2262181D01*
X33265799Y-2200858D01*
X33270783Y-2131166D01*
X33312655Y-2075233D01*
X33378119Y-2050816D01*
X33386965Y-2050500D01*
X38162034Y-2050500D01*
X38229073Y-2070185D01*
X38249715Y-2086819D01*
X40377394Y-4214498D01*
X40410879Y-4275821D01*
X40405895Y-4345513D01*
X40364025Y-4401445D01*
X40242452Y-4492455D01*
X40156206Y-4607664D01*
X40156202Y-4607671D01*
X40105908Y-4742517D01*
X40103317Y-4766622D01*
X40099501Y-4802123D01*
X40099500Y-4802135D01*
X40099500Y-6397870D01*
X40099501Y-6397876D01*
X40105908Y-6457483D01*
X40156202Y-6592328D01*
X40156206Y-6592335D01*
X40242452Y-6707544D01*
X40242455Y-6707547D01*
X40357664Y-6793793D01*
X40357671Y-6793797D01*
X40492517Y-6844091D01*
X40492516Y-6844091D01*
X40499444Y-6844835D01*
X40552127Y-6850500D01*
X41847872Y-6850499D01*
X41907483Y-6844091D01*
X42042331Y-6793796D01*
X42157546Y-6707546D01*
X42243796Y-6592331D01*
X42294091Y-6457483D01*
X42300500Y-6397873D01*
X42300499Y-4802128D01*
X42294091Y-4742517D01*
X42273426Y-4687112D01*
X42243797Y-4607671D01*
X42243793Y-4607664D01*
X42157547Y-4492455D01*
X42157544Y-4492452D01*
X42042335Y-4406206D01*
X42042328Y-4406202D01*
X41907482Y-4355908D01*
X41907483Y-4355908D01*
X41847883Y-4349501D01*
X41847881Y-4349500D01*
X41847873Y-4349500D01*
X41847865Y-4349500D01*
X41831829Y-4349500D01*
X41764790Y-4329815D01*
X41738615Y-4304343D01*
X41737735Y-4305160D01*
X41736672Y-4304014D01*
X41733095Y-4298972D01*
X41729376Y-4295353D01*
X41726615Y-4291304D01*
X41721567Y-4284465D01*
X41721566Y-4284462D01*
X41681152Y-4244048D01*
X41677935Y-4240708D01*
X41639057Y-4198807D01*
X41631790Y-4193012D01*
X41632310Y-4192359D01*
X41620070Y-4182966D01*
X38899284Y-1462181D01*
X38865799Y-1400858D01*
X38870783Y-1331166D01*
X38912655Y-1275233D01*
X38978119Y-1250816D01*
X38986965Y-1250500D01*
X39962034Y-1250500D01*
X40029073Y-1270185D01*
X40049715Y-1286819D01*
X43106818Y-4343922D01*
X43140303Y-4405245D01*
X43135319Y-4474937D01*
X43093447Y-4530870D01*
X43091065Y-4532610D01*
X42976048Y-4614513D01*
X42976040Y-4614520D01*
X42831014Y-4766620D01*
X42717388Y-4943425D01*
X42639274Y-5138544D01*
X42603649Y-5323388D01*
X42599500Y-5344915D01*
X42599500Y-5802425D01*
X42614472Y-5959218D01*
X42673684Y-6160875D01*
X42723019Y-6256572D01*
X42769991Y-6347686D01*
X42899905Y-6512883D01*
X42899909Y-6512887D01*
X43058746Y-6650521D01*
X43240750Y-6755601D01*
X43240752Y-6755601D01*
X43240756Y-6755604D01*
X43439367Y-6824344D01*
X43647398Y-6854254D01*
X43857330Y-6844254D01*
X44061576Y-6794704D01*
X44147199Y-6755601D01*
X44252743Y-6707401D01*
X44252746Y-6707399D01*
X44252753Y-6707396D01*
X44423952Y-6585486D01*
X44444941Y-6563474D01*
X44568985Y-6433379D01*
X44591797Y-6397883D01*
X44682613Y-6256572D01*
X44760725Y-6061457D01*
X44800500Y-5855085D01*
X44800500Y-5397575D01*
X44785528Y-5240782D01*
X44726316Y-5039125D01*
X44630011Y-4852318D01*
X44630009Y-4852316D01*
X44630008Y-4852313D01*
X44500094Y-4687116D01*
X44500091Y-4687113D01*
X44463842Y-4655703D01*
X44350901Y-4557839D01*
X44313129Y-4499063D01*
X44308886Y-4450243D01*
X44310270Y-4437965D01*
X44299637Y-4381770D01*
X44298864Y-4377217D01*
X44296957Y-4364562D01*
X44290348Y-4320713D01*
X44290347Y-4320711D01*
X44290347Y-4320709D01*
X44287831Y-4312552D01*
X44285024Y-4304528D01*
X44258306Y-4253977D01*
X44256215Y-4249835D01*
X44253428Y-4244048D01*
X44231425Y-4198358D01*
X44231424Y-4198357D01*
X44231424Y-4198356D01*
X44226642Y-4191342D01*
X44221567Y-4184466D01*
X44221566Y-4184463D01*
X44181165Y-4144062D01*
X44177947Y-4140721D01*
X44139060Y-4098809D01*
X44131792Y-4093014D01*
X44132312Y-4092361D01*
X44120067Y-4082964D01*
X40541368Y-504265D01*
X40532102Y-493897D01*
X40521111Y-480115D01*
X40509879Y-466030D01*
X40509878Y-466029D01*
X40509877Y-466028D01*
X40484350Y-448624D01*
X40462633Y-433818D01*
X40458869Y-431147D01*
X40412886Y-397209D01*
X40405297Y-393198D01*
X40397675Y-389528D01*
X40343049Y-372679D01*
X40338644Y-371230D01*
X40335060Y-369976D01*
X40327033Y-367167D01*
X40284695Y-352352D01*
X40276326Y-350768D01*
X40267904Y-349500D01*
X40267902Y-349500D01*
X40210738Y-349500D01*
X40206101Y-349413D01*
X40204085Y-349337D01*
X40148989Y-347275D01*
X40139756Y-348316D01*
X40139662Y-347486D01*
X40124364Y-349500D01*
X15932262Y-349500D01*
X15918379Y-348720D01*
X15914371Y-348268D01*
X15882965Y-344729D01*
X15826782Y-355358D01*
X15822218Y-356133D01*
X15765715Y-364651D01*
X15757556Y-367167D01*
X15749529Y-369976D01*
X15703373Y-394370D01*
X15698964Y-396700D01*
X15694829Y-398787D01*
X15643358Y-423575D01*
X15636308Y-428380D01*
X15629459Y-433435D01*
X15589059Y-473836D01*
X15585722Y-477051D01*
X15543804Y-515946D01*
X15538013Y-523208D01*
X15537362Y-522688D01*
X15527967Y-534928D01*
X10904263Y-5158632D01*
X10893898Y-5167895D01*
X10866033Y-5190117D01*
X10866030Y-5190121D01*
X10833823Y-5237357D01*
X10831144Y-5241132D01*
X10797206Y-5287118D01*
X10793216Y-5294667D01*
X10789528Y-5302325D01*
X10772673Y-5356967D01*
X10771225Y-5361368D01*
X10752353Y-5415304D01*
X10750771Y-5423659D01*
X10749500Y-5432100D01*
X10749500Y-5489260D01*
X10749413Y-5493897D01*
X10747275Y-5551009D01*
X10748316Y-5560243D01*
X10747485Y-5560336D01*
X10749500Y-5575635D01*
X10749500Y-14567738D01*
X10748720Y-14581623D01*
X10744729Y-14617036D01*
X499Y-14617036D01*
X499Y-3003244D01*
X669Y-2996755D01*
X4106Y-2931166D01*
X7497Y-2866457D01*
X17627Y-2686086D01*
X18953Y-2673693D01*
X42512Y-2524946D01*
X42699Y-2523808D01*
X69738Y-2364665D01*
X72198Y-2353401D01*
X112148Y-2204308D01*
X112716Y-2202266D01*
X156350Y-2050812D01*
X159719Y-2040762D01*
X215592Y-1895209D01*
X216714Y-1892398D01*
X276434Y-1748221D01*
X280482Y-1739439D01*
X351585Y-1599891D01*
X353486Y-1596310D01*
X428595Y-1460412D01*
X433078Y-1452941D01*
X518622Y-1321214D01*
X521428Y-1317083D01*
X611014Y-1190825D01*
X615751Y-1184579D01*
X714694Y-1062394D01*
X718521Y-1057895D01*
X821612Y-942536D01*
X826322Y-937555D01*
X937555Y-826322D01*
X942536Y-821612D01*
X1057895Y-718521D01*
X1062394Y-714694D01*
X1184579Y-615751D01*
X1190840Y-611003D01*
X1317083Y-521428D01*
X1321214Y-518622D01*
X1452941Y-433078D01*
X1460420Y-428591D01*
X1596316Y-353484D01*
X1599892Y-351585D01*
X1739439Y-280482D01*
X1748221Y-276434D01*
X1892422Y-216704D01*
X1895208Y-215592D01*
X2040762Y-159719D01*
X2050817Y-156348D01*
X2202266Y-112716D01*
X2204308Y-112148D01*
X2353401Y-72198D01*
X2364665Y-69738D01*
X2523808Y-42699D01*
X2524946Y-42512D01*
X2673693Y-18953D01*
X2686086Y-17627D01*
X2866457Y-7497D01*
X2996755Y-668D01*
X3003244Y-499D01*
X56996754Y-499D01*
X57003242Y-668D01*
G37*
%TD.AperFunction*%
%TA.AperFunction,Conductor*%
G36*
X20399124Y-24030185D02*
G01*
X20419766Y-24046819D01*
X21206666Y-24833719D01*
X21240151Y-24895042D01*
X21235167Y-24964734D01*
X21193295Y-25020667D01*
X21127831Y-25045084D01*
X21059558Y-25030232D01*
X21045351Y-25021170D01*
X21012885Y-24997209D01*
X21012883Y-24997208D01*
X21012882Y-24997207D01*
X21012879Y-24997206D01*
X21005297Y-24993198D01*
X20997675Y-24989528D01*
X20943049Y-24972679D01*
X20938644Y-24971230D01*
X20884695Y-24952352D01*
X20876326Y-24950768D01*
X20867904Y-24949500D01*
X20867902Y-24949500D01*
X20810738Y-24949500D01*
X20806101Y-24949413D01*
X20804085Y-24949337D01*
X20748989Y-24947275D01*
X20739756Y-24948316D01*
X20739662Y-24947486D01*
X20724364Y-24949500D01*
X18941840Y-24949500D01*
X18874801Y-24929815D01*
X18830841Y-24880773D01*
X18799673Y-24818179D01*
X18676764Y-24655421D01*
X18676762Y-24655418D01*
X18526041Y-24518019D01*
X18526039Y-24518017D01*
X18352642Y-24410655D01*
X18352635Y-24410651D01*
X18257546Y-24373814D01*
X18162456Y-24336976D01*
X17961976Y-24299500D01*
X17758024Y-24299500D01*
X17557544Y-24336976D01*
X17557541Y-24336976D01*
X17557541Y-24336977D01*
X17367364Y-24410651D01*
X17367357Y-24410655D01*
X17193960Y-24518017D01*
X17193958Y-24518019D01*
X17043237Y-24655418D01*
X16920327Y-24818178D01*
X16829422Y-25000739D01*
X16829417Y-25000752D01*
X16773602Y-25196917D01*
X16754785Y-25399999D01*
X16754785Y-25400000D01*
X16773602Y-25603082D01*
X16829417Y-25799247D01*
X16829422Y-25799260D01*
X16920327Y-25981821D01*
X17043237Y-26144581D01*
X17193958Y-26281980D01*
X17193960Y-26281982D01*
X17293141Y-26343392D01*
X17367363Y-26389348D01*
X17557544Y-26463024D01*
X17758024Y-26500500D01*
X17758026Y-26500500D01*
X17961974Y-26500500D01*
X17961976Y-26500500D01*
X18162456Y-26463024D01*
X18352637Y-26389348D01*
X18526041Y-26281981D01*
X18676764Y-26144579D01*
X18799673Y-25981821D01*
X18830841Y-25919226D01*
X18878342Y-25867992D01*
X18941840Y-25850500D01*
X20562034Y-25850500D01*
X20629073Y-25870185D01*
X20649715Y-25886819D01*
X22040715Y-27277819D01*
X22074200Y-27339142D01*
X22069216Y-27408834D01*
X22027344Y-27464767D01*
X21961880Y-27489184D01*
X21953034Y-27489500D01*
X21950738Y-27489500D01*
X21946101Y-27489413D01*
X21944085Y-27489337D01*
X21888989Y-27487275D01*
X21879756Y-27488316D01*
X21879662Y-27487486D01*
X21864364Y-27489500D01*
X18941840Y-27489500D01*
X18874801Y-27469815D01*
X18830841Y-27420773D01*
X18799673Y-27358179D01*
X18676764Y-27195421D01*
X18676762Y-27195418D01*
X18526041Y-27058019D01*
X18526039Y-27058017D01*
X18352642Y-26950655D01*
X18352635Y-26950651D01*
X18163700Y-26877458D01*
X18162456Y-26876976D01*
X17961976Y-26839500D01*
X17758024Y-26839500D01*
X17557544Y-26876976D01*
X17557541Y-26876976D01*
X17557541Y-26876977D01*
X17367364Y-26950651D01*
X17367357Y-26950655D01*
X17193960Y-27058017D01*
X17193958Y-27058019D01*
X17043237Y-27195418D01*
X16920327Y-27358178D01*
X16829422Y-27540739D01*
X16829417Y-27540752D01*
X16773602Y-27736917D01*
X16754785Y-27939999D01*
X16754785Y-27940000D01*
X16773602Y-28143082D01*
X16829417Y-28339247D01*
X16829422Y-28339260D01*
X16920327Y-28521821D01*
X17043237Y-28684581D01*
X17193958Y-28821980D01*
X17193960Y-28821982D01*
X17293141Y-28883392D01*
X17367363Y-28929348D01*
X17557544Y-29003024D01*
X17758024Y-29040500D01*
X17758026Y-29040500D01*
X17961974Y-29040500D01*
X17961976Y-29040500D01*
X18162456Y-29003024D01*
X18352637Y-28929348D01*
X18526041Y-28821981D01*
X18676764Y-28684579D01*
X18799673Y-28521821D01*
X18830841Y-28459226D01*
X18878342Y-28407992D01*
X18941840Y-28390500D01*
X21702034Y-28390500D01*
X21769073Y-28410185D01*
X21789715Y-28426819D01*
X24906818Y-31543922D01*
X24940303Y-31605245D01*
X24935319Y-31674937D01*
X24893447Y-31730870D01*
X24891065Y-31732610D01*
X24776048Y-31814513D01*
X24776040Y-31814520D01*
X24631014Y-31966620D01*
X24517388Y-32143425D01*
X24439274Y-32338544D01*
X24399500Y-32544914D01*
X24399500Y-32544915D01*
X24399500Y-33002425D01*
X24414472Y-33159218D01*
X24473684Y-33360875D01*
X24523019Y-33456572D01*
X24569991Y-33547686D01*
X24699905Y-33712883D01*
X24699909Y-33712887D01*
X24858746Y-33850521D01*
X25040750Y-33955601D01*
X25040752Y-33955601D01*
X25040756Y-33955604D01*
X25239367Y-34024344D01*
X25447398Y-34054254D01*
X25657330Y-34044254D01*
X25861576Y-33994704D01*
X25961675Y-33948990D01*
X26052743Y-33907401D01*
X26052746Y-33907399D01*
X26052753Y-33907396D01*
X26223952Y-33785486D01*
X26246313Y-33762035D01*
X26368985Y-33633379D01*
X26368986Y-33633378D01*
X26482613Y-33456572D01*
X26560725Y-33261457D01*
X26600500Y-33055085D01*
X26600500Y-32597575D01*
X26585528Y-32440782D01*
X26526316Y-32239125D01*
X26430011Y-32052318D01*
X26430009Y-32052316D01*
X26430008Y-32052313D01*
X26299290Y-31886094D01*
X26297403Y-31884784D01*
X26141256Y-31749481D01*
X26141257Y-31749481D01*
X26141253Y-31749478D01*
X26012500Y-31675143D01*
X25964284Y-31624576D01*
X25950500Y-31567756D01*
X25950500Y-31532261D01*
X25951280Y-31518377D01*
X25955867Y-31477668D01*
X25982934Y-31413254D01*
X26040529Y-31373699D01*
X26110366Y-31371562D01*
X26166768Y-31403871D01*
X26466284Y-31703388D01*
X26468996Y-31708356D01*
X26483643Y-31720746D01*
X27313181Y-32550284D01*
X27346666Y-32611607D01*
X27349500Y-32637965D01*
X27349500Y-33762035D01*
X27329815Y-33829074D01*
X27313181Y-33849716D01*
X26049716Y-35113181D01*
X25988393Y-35146666D01*
X25962035Y-35149500D01*
X24837965Y-35149500D01*
X24770926Y-35129815D01*
X24750284Y-35113181D01*
X23822605Y-34185502D01*
X23789120Y-34124179D01*
X23794104Y-34054487D01*
X23835975Y-33998555D01*
X23939588Y-33920989D01*
X23957546Y-33907546D01*
X24043796Y-33792331D01*
X24094091Y-33657483D01*
X24100500Y-33597873D01*
X24100499Y-32002128D01*
X24094091Y-31942517D01*
X24085506Y-31919500D01*
X24043797Y-31807671D01*
X24043793Y-31807664D01*
X23957547Y-31692455D01*
X23957544Y-31692452D01*
X23842335Y-31606206D01*
X23842328Y-31606202D01*
X23707482Y-31555908D01*
X23707483Y-31555908D01*
X23647883Y-31549501D01*
X23647881Y-31549500D01*
X23647873Y-31549500D01*
X23647864Y-31549500D01*
X22352129Y-31549500D01*
X22352123Y-31549501D01*
X22292516Y-31555908D01*
X22157671Y-31606202D01*
X22157664Y-31606206D01*
X22042455Y-31692452D01*
X22042452Y-31692455D01*
X21956206Y-31807664D01*
X21956202Y-31807671D01*
X21905908Y-31942517D01*
X21903317Y-31966622D01*
X21899501Y-32002123D01*
X21899500Y-32002135D01*
X21899500Y-33597870D01*
X21899501Y-33597876D01*
X21905908Y-33657483D01*
X21956202Y-33792328D01*
X21956206Y-33792335D01*
X22042452Y-33907544D01*
X22042455Y-33907547D01*
X22157664Y-33993793D01*
X22157671Y-33993797D01*
X22196934Y-34008441D01*
X22292517Y-34044091D01*
X22352127Y-34050500D01*
X22447290Y-34050499D01*
X22514328Y-34070183D01*
X22560084Y-34122986D01*
X22565778Y-34137940D01*
X22567165Y-34142435D01*
X22569976Y-34150470D01*
X22569976Y-34150471D01*
X22569977Y-34150472D01*
X22590018Y-34188392D01*
X22596688Y-34201011D01*
X22598776Y-34205149D01*
X22623574Y-34256641D01*
X22628362Y-34263665D01*
X22633431Y-34270532D01*
X22633434Y-34270538D01*
X22633438Y-34270542D01*
X22673846Y-34310950D01*
X22677063Y-34314289D01*
X22715947Y-34356196D01*
X22723210Y-34361988D01*
X22722689Y-34362641D01*
X22734930Y-34372034D01*
X24258630Y-35895733D01*
X24267895Y-35906100D01*
X24290121Y-35933971D01*
X24290804Y-35934604D01*
X24291327Y-35935482D01*
X24295914Y-35941234D01*
X24295126Y-35941861D01*
X24326557Y-35994634D01*
X24324180Y-36064463D01*
X24284427Y-36121922D01*
X24219921Y-36148767D01*
X24206460Y-36149500D01*
X23237966Y-36149500D01*
X23170927Y-36129815D01*
X23150285Y-36113181D01*
X21286819Y-34249715D01*
X21253334Y-34188392D01*
X21250500Y-34162034D01*
X21250500Y-32432261D01*
X21251280Y-32418376D01*
X21255270Y-32382966D01*
X21255270Y-32382965D01*
X21244633Y-32326753D01*
X21243864Y-32322219D01*
X21236811Y-32275421D01*
X21235348Y-32265713D01*
X21235346Y-32265709D01*
X21232833Y-32257561D01*
X21230021Y-32249523D01*
X21203312Y-32198989D01*
X21201221Y-32194847D01*
X21176425Y-32143358D01*
X21171624Y-32136316D01*
X21166567Y-32129465D01*
X21166566Y-32129462D01*
X21126151Y-32089047D01*
X21122935Y-32085708D01*
X21084057Y-32043807D01*
X21076790Y-32038012D01*
X21077310Y-32037359D01*
X21065070Y-32027966D01*
X19221368Y-30184265D01*
X19212102Y-30173897D01*
X19210143Y-30171440D01*
X19189879Y-30146030D01*
X19189878Y-30146029D01*
X19189877Y-30146028D01*
X19164350Y-30128624D01*
X19142633Y-30113818D01*
X19138869Y-30111147D01*
X19092886Y-30077209D01*
X19085297Y-30073198D01*
X19077675Y-30069528D01*
X19023049Y-30052679D01*
X19018644Y-30051230D01*
X19015060Y-30049976D01*
X19007056Y-30047175D01*
X18964695Y-30032352D01*
X18956326Y-30030768D01*
X18947904Y-30029500D01*
X18947902Y-30029500D01*
X18941840Y-30029500D01*
X18874801Y-30009815D01*
X18830841Y-29960773D01*
X18799673Y-29898179D01*
X18676764Y-29735421D01*
X18676762Y-29735418D01*
X18526041Y-29598019D01*
X18526039Y-29598017D01*
X18352642Y-29490655D01*
X18352635Y-29490651D01*
X18257546Y-29453814D01*
X18162456Y-29416976D01*
X17961976Y-29379500D01*
X17758024Y-29379500D01*
X17557544Y-29416976D01*
X17557541Y-29416976D01*
X17557541Y-29416977D01*
X17367364Y-29490651D01*
X17367357Y-29490655D01*
X17193960Y-29598017D01*
X17193958Y-29598019D01*
X17043237Y-29735418D01*
X16920327Y-29898178D01*
X16829422Y-30080739D01*
X16829417Y-30080752D01*
X16773602Y-30276917D01*
X16754785Y-30479999D01*
X16754785Y-30480000D01*
X16773602Y-30683082D01*
X16829417Y-30879247D01*
X16829422Y-30879260D01*
X16920327Y-31061821D01*
X17043237Y-31224581D01*
X17193958Y-31361980D01*
X17193960Y-31361982D01*
X17246749Y-31394667D01*
X17367363Y-31469348D01*
X17557544Y-31543024D01*
X17758024Y-31580500D01*
X17758026Y-31580500D01*
X17961974Y-31580500D01*
X17961976Y-31580500D01*
X18162456Y-31543024D01*
X18352637Y-31469348D01*
X18526041Y-31361981D01*
X18676764Y-31224579D01*
X18724575Y-31161265D01*
X18780681Y-31119631D01*
X18850393Y-31114938D01*
X18911209Y-31148312D01*
X20313181Y-32550284D01*
X20346666Y-32611607D01*
X20349500Y-32637965D01*
X20349500Y-34367738D01*
X20348720Y-34381625D01*
X20344132Y-34422334D01*
X20317063Y-34486747D01*
X20259467Y-34526301D01*
X20189630Y-34528436D01*
X20133231Y-34496128D01*
X18978828Y-33341725D01*
X18945343Y-33280402D01*
X18946967Y-33229024D01*
X18945343Y-33228721D01*
X18946397Y-33223081D01*
X18952315Y-33159221D01*
X18965215Y-33020000D01*
X18963586Y-33002425D01*
X18946397Y-32816917D01*
X18925277Y-32742688D01*
X18890582Y-32620750D01*
X18886029Y-32611607D01*
X18800967Y-32440778D01*
X18799673Y-32438179D01*
X18724432Y-32338544D01*
X18676762Y-32275418D01*
X18526041Y-32138019D01*
X18526039Y-32138017D01*
X18352642Y-32030655D01*
X18352635Y-32030651D01*
X18187350Y-31966620D01*
X18162456Y-31956976D01*
X17961976Y-31919500D01*
X17758024Y-31919500D01*
X17557544Y-31956976D01*
X17557541Y-31956976D01*
X17557541Y-31956977D01*
X17367364Y-32030651D01*
X17367357Y-32030655D01*
X17193960Y-32138017D01*
X17193958Y-32138019D01*
X17043237Y-32275418D01*
X16920327Y-32438178D01*
X16829422Y-32620739D01*
X16829417Y-32620752D01*
X16773602Y-32816917D01*
X16754785Y-33019999D01*
X16754785Y-33020000D01*
X16773602Y-33223082D01*
X16829417Y-33419247D01*
X16829422Y-33419260D01*
X16920327Y-33601821D01*
X17043237Y-33764581D01*
X17193958Y-33901980D01*
X17193960Y-33901982D01*
X17254819Y-33939664D01*
X17367363Y-34009348D01*
X17557544Y-34083024D01*
X17758024Y-34120500D01*
X17758026Y-34120500D01*
X17961974Y-34120500D01*
X17961976Y-34120500D01*
X18162456Y-34083024D01*
X18236119Y-34054487D01*
X18291427Y-34033061D01*
X18361050Y-34027198D01*
X18422790Y-34059908D01*
X18423902Y-34061006D01*
X19328298Y-34965402D01*
X19361783Y-35026725D01*
X19356799Y-35096417D01*
X19314927Y-35152350D01*
X19249463Y-35176767D01*
X19181190Y-35161915D01*
X19178293Y-35160067D01*
X19165297Y-35153198D01*
X19157675Y-35149528D01*
X19103049Y-35132679D01*
X19098644Y-35131230D01*
X19044695Y-35112352D01*
X19036326Y-35110768D01*
X19027904Y-35109500D01*
X19027902Y-35109500D01*
X18970738Y-35109500D01*
X18966104Y-35109413D01*
X18962289Y-35109270D01*
X18936650Y-35108310D01*
X18870394Y-35086130D01*
X18830291Y-35039668D01*
X18817209Y-35013396D01*
X18799673Y-34978179D01*
X18695843Y-34840686D01*
X18676762Y-34815418D01*
X18526041Y-34678019D01*
X18526039Y-34678017D01*
X18352642Y-34570655D01*
X18352635Y-34570651D01*
X18238153Y-34526301D01*
X18162456Y-34496976D01*
X17961976Y-34459500D01*
X17758024Y-34459500D01*
X17557544Y-34496976D01*
X17557541Y-34496976D01*
X17557541Y-34496977D01*
X17367364Y-34570651D01*
X17367357Y-34570655D01*
X17193960Y-34678017D01*
X17193958Y-34678019D01*
X17043237Y-34815418D01*
X16920327Y-34978178D01*
X16829422Y-35160739D01*
X16829417Y-35160752D01*
X16773602Y-35356917D01*
X16754785Y-35559999D01*
X16754785Y-35560000D01*
X16773602Y-35763082D01*
X16829417Y-35959247D01*
X16829422Y-35959260D01*
X16920327Y-36141821D01*
X17043237Y-36304581D01*
X17193958Y-36441980D01*
X17193960Y-36441982D01*
X17293141Y-36503392D01*
X17367363Y-36549348D01*
X17557544Y-36623024D01*
X17758024Y-36660500D01*
X17758026Y-36660500D01*
X17961974Y-36660500D01*
X17961976Y-36660500D01*
X18162456Y-36623024D01*
X18352637Y-36549348D01*
X18526041Y-36441981D01*
X18676764Y-36304579D01*
X18758996Y-36195685D01*
X18815102Y-36154052D01*
X18884814Y-36149359D01*
X18945629Y-36182733D01*
X19913181Y-37150284D01*
X19946666Y-37211607D01*
X19949500Y-37237965D01*
X19949500Y-40013035D01*
X19929815Y-40080074D01*
X19877011Y-40125829D01*
X19807853Y-40135773D01*
X19744297Y-40106748D01*
X19737819Y-40100716D01*
X18913333Y-39276230D01*
X18879848Y-39214907D01*
X18884832Y-39145215D01*
X18897909Y-39119662D01*
X18945966Y-39047740D01*
X18960500Y-38974674D01*
X18960500Y-37225326D01*
X18960500Y-37225323D01*
X18960499Y-37225321D01*
X18945967Y-37152264D01*
X18945966Y-37152260D01*
X18930969Y-37129815D01*
X18890601Y-37069399D01*
X18831670Y-37030023D01*
X18807739Y-37014033D01*
X18807735Y-37014032D01*
X18734677Y-36999500D01*
X18734674Y-36999500D01*
X16985326Y-36999500D01*
X16985323Y-36999500D01*
X16912264Y-37014032D01*
X16912260Y-37014033D01*
X16829399Y-37069399D01*
X16774033Y-37152260D01*
X16774032Y-37152264D01*
X16759500Y-37225321D01*
X16759500Y-38974678D01*
X16774032Y-39047735D01*
X16774033Y-39047739D01*
X16777093Y-39052318D01*
X16829399Y-39130601D01*
X16886355Y-39168657D01*
X16912260Y-39185966D01*
X16912264Y-39185967D01*
X16985321Y-39200499D01*
X16985324Y-39200500D01*
X16985326Y-39200500D01*
X17512034Y-39200500D01*
X17579073Y-39220185D01*
X17599715Y-39236819D01*
X19223331Y-40860435D01*
X20700716Y-42337819D01*
X20734201Y-42399142D01*
X20729217Y-42468834D01*
X20687345Y-42524767D01*
X20621881Y-42549184D01*
X20613035Y-42549500D01*
X19437965Y-42549500D01*
X19370926Y-42529815D01*
X19350284Y-42513181D01*
X15990531Y-39153428D01*
X15957046Y-39092105D01*
X15962030Y-39022413D01*
X15994670Y-38974114D01*
X16136764Y-38844579D01*
X16259673Y-38681821D01*
X16350582Y-38499250D01*
X16406397Y-38303083D01*
X16425215Y-38100000D01*
X16412935Y-37967480D01*
X16406397Y-37896917D01*
X16397334Y-37865066D01*
X16350582Y-37700750D01*
X16259673Y-37518179D01*
X16136764Y-37355421D01*
X16136762Y-37355418D01*
X15986041Y-37218019D01*
X15986039Y-37218017D01*
X15812642Y-37110655D01*
X15812635Y-37110651D01*
X15706150Y-37069399D01*
X15622456Y-37036976D01*
X15421976Y-36999500D01*
X15218024Y-36999500D01*
X15017544Y-37036976D01*
X15017541Y-37036976D01*
X15017541Y-37036977D01*
X14827364Y-37110651D01*
X14827357Y-37110655D01*
X14653960Y-37218017D01*
X14653958Y-37218019D01*
X14503237Y-37355418D01*
X14380327Y-37518178D01*
X14289422Y-37700739D01*
X14289417Y-37700752D01*
X14233602Y-37896917D01*
X14214785Y-38099999D01*
X14214785Y-38100000D01*
X14233602Y-38303082D01*
X14289417Y-38499247D01*
X14289422Y-38499260D01*
X14380327Y-38681821D01*
X14503237Y-38844581D01*
X14653958Y-38981980D01*
X14653960Y-38981982D01*
X14813055Y-39080489D01*
X14859691Y-39132517D01*
X14869616Y-39162863D01*
X14875355Y-39193195D01*
X14876132Y-39197765D01*
X14884652Y-39254291D01*
X14887162Y-39262427D01*
X14889976Y-39270470D01*
X14916688Y-39321011D01*
X14918776Y-39325149D01*
X14943574Y-39376641D01*
X14948362Y-39383665D01*
X14953431Y-39390532D01*
X14953434Y-39390538D01*
X14953438Y-39390542D01*
X14993847Y-39430951D01*
X14997064Y-39434290D01*
X15026280Y-39465778D01*
X15035947Y-39476196D01*
X15043210Y-39481988D01*
X15042689Y-39482641D01*
X15054930Y-39492034D01*
X16934439Y-41371543D01*
X18700716Y-43137819D01*
X18734201Y-43199142D01*
X18729217Y-43268834D01*
X18687345Y-43324767D01*
X18621881Y-43349184D01*
X18613035Y-43349500D01*
X18037965Y-43349500D01*
X17970926Y-43329815D01*
X17950284Y-43313181D01*
X13886819Y-39249716D01*
X13853334Y-39188393D01*
X13850500Y-39162035D01*
X13850500Y-36837964D01*
X13870185Y-36770925D01*
X13886815Y-36750287D01*
X14330212Y-36306889D01*
X14391535Y-36273405D01*
X14461227Y-36278389D01*
X14501431Y-36302934D01*
X14653958Y-36441980D01*
X14653960Y-36441982D01*
X14753141Y-36503392D01*
X14827363Y-36549348D01*
X15017544Y-36623024D01*
X15218024Y-36660500D01*
X15218026Y-36660500D01*
X15421974Y-36660500D01*
X15421976Y-36660500D01*
X15622456Y-36623024D01*
X15812637Y-36549348D01*
X15986041Y-36441981D01*
X16114122Y-36325219D01*
X16136762Y-36304581D01*
X16147682Y-36290121D01*
X16259673Y-36141821D01*
X16350582Y-35959250D01*
X16406397Y-35763083D01*
X16425215Y-35560000D01*
X16422629Y-35532097D01*
X16406397Y-35356917D01*
X16402447Y-35343035D01*
X16350582Y-35160750D01*
X16350571Y-35160728D01*
X16277209Y-35013396D01*
X16259673Y-34978179D01*
X16155843Y-34840686D01*
X16136762Y-34815418D01*
X15986041Y-34678019D01*
X15986039Y-34678017D01*
X15812642Y-34570655D01*
X15812635Y-34570651D01*
X15698153Y-34526301D01*
X15622456Y-34496976D01*
X15421976Y-34459500D01*
X15218024Y-34459500D01*
X15017544Y-34496976D01*
X15017541Y-34496976D01*
X15017541Y-34496977D01*
X14827364Y-34570651D01*
X14827357Y-34570655D01*
X14653960Y-34678017D01*
X14653958Y-34678019D01*
X14503237Y-34815418D01*
X14380328Y-34978176D01*
X14380323Y-34978184D01*
X14327957Y-35083350D01*
X14280454Y-35134587D01*
X14274898Y-35137708D01*
X14238986Y-35156688D01*
X14234848Y-35158777D01*
X14183358Y-35183573D01*
X14176338Y-35188359D01*
X14169460Y-35193435D01*
X14129058Y-35233837D01*
X14125722Y-35237051D01*
X14083804Y-35275946D01*
X14078013Y-35283208D01*
X14077362Y-35282688D01*
X14067967Y-35294928D01*
X13262181Y-36100715D01*
X13200858Y-36134200D01*
X13131167Y-36129216D01*
X13075233Y-36087344D01*
X13050816Y-36021880D01*
X13050500Y-36013034D01*
X13050500Y-35037964D01*
X13070185Y-34970925D01*
X13086814Y-34950288D01*
X14303211Y-33733890D01*
X14364532Y-33700407D01*
X14434224Y-33705391D01*
X14489842Y-33746844D01*
X14503234Y-33764577D01*
X14503236Y-33764580D01*
X14653958Y-33901980D01*
X14653960Y-33901982D01*
X14714819Y-33939664D01*
X14827363Y-34009348D01*
X15017544Y-34083024D01*
X15218024Y-34120500D01*
X15218026Y-34120500D01*
X15421974Y-34120500D01*
X15421976Y-34120500D01*
X15622456Y-34083024D01*
X15812637Y-34009348D01*
X15986041Y-33901981D01*
X16136764Y-33764579D01*
X16259673Y-33601821D01*
X16350582Y-33419250D01*
X16406397Y-33223083D01*
X16425215Y-33020000D01*
X16423586Y-33002425D01*
X16406397Y-32816917D01*
X16385277Y-32742688D01*
X16350582Y-32620750D01*
X16346029Y-32611607D01*
X16260967Y-32440778D01*
X16259673Y-32438179D01*
X16184432Y-32338544D01*
X16136762Y-32275418D01*
X15986041Y-32138019D01*
X15986039Y-32138017D01*
X15812642Y-32030655D01*
X15812635Y-32030651D01*
X15647350Y-31966620D01*
X15622456Y-31956976D01*
X15421976Y-31919500D01*
X15218024Y-31919500D01*
X15017544Y-31956976D01*
X15017541Y-31956976D01*
X15017541Y-31956977D01*
X14827364Y-32030651D01*
X14827357Y-32030655D01*
X14653960Y-32138017D01*
X14653958Y-32138019D01*
X14503237Y-32275418D01*
X14380327Y-32438178D01*
X14341143Y-32516870D01*
X14293640Y-32568107D01*
X14248628Y-32584212D01*
X14245720Y-32584650D01*
X14245714Y-32584651D01*
X14245713Y-32584652D01*
X14245712Y-32584652D01*
X14237532Y-32587175D01*
X14229529Y-32589976D01*
X14178985Y-32616689D01*
X14174848Y-32618777D01*
X14123358Y-32643573D01*
X14116338Y-32648359D01*
X14109460Y-32653435D01*
X14069058Y-32693837D01*
X14065722Y-32697051D01*
X14023804Y-32735946D01*
X14018013Y-32743208D01*
X14017362Y-32742688D01*
X14007967Y-32754928D01*
X12462181Y-34300715D01*
X12400858Y-34334200D01*
X12331166Y-34329216D01*
X12275233Y-34287344D01*
X12250816Y-34221880D01*
X12250500Y-34213034D01*
X12250500Y-33237965D01*
X12270185Y-33170926D01*
X12286819Y-33150284D01*
X13242256Y-32194847D01*
X14277397Y-31159705D01*
X14338718Y-31126222D01*
X14408410Y-31131206D01*
X14464029Y-31172660D01*
X14475170Y-31187413D01*
X14503238Y-31224581D01*
X14540590Y-31258632D01*
X14649562Y-31357973D01*
X14653958Y-31361980D01*
X14653960Y-31361982D01*
X14706749Y-31394667D01*
X14827363Y-31469348D01*
X15017544Y-31543024D01*
X15218024Y-31580500D01*
X15218026Y-31580500D01*
X15421974Y-31580500D01*
X15421976Y-31580500D01*
X15622456Y-31543024D01*
X15812637Y-31469348D01*
X15986041Y-31361981D01*
X16136764Y-31224579D01*
X16259673Y-31061821D01*
X16350582Y-30879250D01*
X16406397Y-30683083D01*
X16425215Y-30480000D01*
X16406397Y-30276917D01*
X16350582Y-30080750D01*
X16347405Y-30074370D01*
X16259673Y-29898180D01*
X16259673Y-29898179D01*
X16136764Y-29735421D01*
X16136762Y-29735418D01*
X15986041Y-29598019D01*
X15986039Y-29598017D01*
X15812642Y-29490655D01*
X15812635Y-29490651D01*
X15717546Y-29453814D01*
X15622456Y-29416976D01*
X15421976Y-29379500D01*
X15218024Y-29379500D01*
X15017544Y-29416976D01*
X15017541Y-29416976D01*
X15017541Y-29416977D01*
X14827364Y-29490651D01*
X14827357Y-29490655D01*
X14653960Y-29598017D01*
X14653958Y-29598019D01*
X14503237Y-29735418D01*
X14380328Y-29898176D01*
X14380326Y-29898180D01*
X14346249Y-29966615D01*
X14298745Y-30017851D01*
X14258301Y-30033180D01*
X14246809Y-30035355D01*
X14242241Y-30036131D01*
X14185715Y-30044651D01*
X14177532Y-30047175D01*
X14169529Y-30049976D01*
X14118985Y-30076689D01*
X14114848Y-30078777D01*
X14063358Y-30103573D01*
X14056338Y-30108359D01*
X14049460Y-30113435D01*
X14009058Y-30153837D01*
X14005722Y-30157051D01*
X13963804Y-30195946D01*
X13958013Y-30203208D01*
X13957362Y-30202688D01*
X13947967Y-30214928D01*
X11562181Y-32600715D01*
X11500858Y-32634200D01*
X11431166Y-32629216D01*
X11375233Y-32587344D01*
X11350816Y-32521880D01*
X11350500Y-32513034D01*
X11350500Y-29127915D01*
X11370185Y-29060876D01*
X11386819Y-29040234D01*
X12737054Y-27689999D01*
X14247471Y-27689999D01*
X14247472Y-27690000D01*
X14886314Y-27690000D01*
X14860507Y-27730156D01*
X14820000Y-27868111D01*
X14820000Y-28011889D01*
X14860507Y-28149844D01*
X14886314Y-28190000D01*
X14247472Y-28190000D01*
X14289885Y-28339065D01*
X14289890Y-28339078D01*
X14380754Y-28521556D01*
X14503608Y-28684242D01*
X14654260Y-28821578D01*
X14827584Y-28928897D01*
X15017678Y-29002539D01*
X15070000Y-29012320D01*
X15070000Y-28375501D01*
X15177685Y-28424680D01*
X15284237Y-28440000D01*
X15355763Y-28440000D01*
X15462315Y-28424680D01*
X15570000Y-28375501D01*
X15570000Y-29012320D01*
X15622321Y-29002539D01*
X15812415Y-28928897D01*
X15985739Y-28821578D01*
X16136391Y-28684242D01*
X16259245Y-28521556D01*
X16350109Y-28339078D01*
X16350114Y-28339065D01*
X16392528Y-28190000D01*
X15753686Y-28190000D01*
X15779493Y-28149844D01*
X15820000Y-28011889D01*
X15820000Y-27868111D01*
X15779493Y-27730156D01*
X15753686Y-27690000D01*
X16392528Y-27690000D01*
X16392528Y-27689999D01*
X16350114Y-27540934D01*
X16350109Y-27540921D01*
X16259245Y-27358443D01*
X16136391Y-27195757D01*
X15985739Y-27058421D01*
X15812413Y-26951101D01*
X15622315Y-26877458D01*
X15622309Y-26877456D01*
X15570001Y-26867677D01*
X15570000Y-26867679D01*
X15570000Y-27504498D01*
X15462315Y-27455320D01*
X15355763Y-27440000D01*
X15284237Y-27440000D01*
X15177685Y-27455320D01*
X15070000Y-27504498D01*
X15070000Y-26867679D01*
X15069998Y-26867677D01*
X15017690Y-26877456D01*
X15017684Y-26877458D01*
X14827586Y-26951101D01*
X14654260Y-27058421D01*
X14503608Y-27195757D01*
X14380754Y-27358443D01*
X14289890Y-27540921D01*
X14289885Y-27540934D01*
X14247471Y-27689999D01*
X12737054Y-27689999D01*
X13840234Y-26586819D01*
X13901557Y-26553334D01*
X13927915Y-26550500D01*
X15373190Y-26550500D01*
X15373194Y-26550500D01*
X15532310Y-26535756D01*
X15737389Y-26477405D01*
X15737393Y-26477403D01*
X15737394Y-26477403D01*
X15928253Y-26382367D01*
X15928253Y-26382366D01*
X15928255Y-26382366D01*
X16098407Y-26253872D01*
X16242052Y-26096302D01*
X16354298Y-25915019D01*
X16431321Y-25716198D01*
X16470500Y-25506610D01*
X16470500Y-25293390D01*
X16431321Y-25083802D01*
X16354298Y-24884981D01*
X16242052Y-24703698D01*
X16098407Y-24546128D01*
X16061185Y-24518019D01*
X15928253Y-24417632D01*
X15737393Y-24322596D01*
X15532310Y-24264244D01*
X15464610Y-24257970D01*
X15399674Y-24232185D01*
X15358986Y-24175385D01*
X15355466Y-24105604D01*
X15390231Y-24044997D01*
X15452244Y-24012807D01*
X15476052Y-24010500D01*
X17806806Y-24010500D01*
X20332085Y-24010500D01*
X20399124Y-24030185D01*
G37*
%TD.AperFunction*%
%TD*%
D23*
X56749999Y-7999999D02*
G75*
G03*
X53249999Y-7999999I-1750000J0D01*
G01*
X53249999Y-7999999D02*
G75*
G03*
X56749999Y-7999999I1750000J0D01*
G01*
X59999999Y-42999999D02*
X59999999Y-2999999D01*
X2999999Y-45999999D02*
X56999999Y-45999999D01*
X-1Y-2999999D02*
X-1Y-42999999D01*
X31749999Y-22999999D02*
G75*
G03*
X28249999Y-22999999I-1750000J0D01*
G01*
X28249999Y-22999999D02*
G75*
G03*
X31749999Y-22999999I1750000J0D01*
G01*
X2999999Y1D02*
G75*
G03*
X-1Y-2999999I1J-3000001D01*
G01*
X56749999Y-37999999D02*
G75*
G03*
X53249999Y-37999999I-1750000J0D01*
G01*
X53249999Y-37999999D02*
G75*
G03*
X56749999Y-37999999I1750000J0D01*
G01*
X60000001Y-2999999D02*
G75*
G03*
X56999999Y1I-3000001J-1D01*
G01*
X56999999Y-45999999D02*
G75*
G03*
X59999999Y-42999999I1J2999999D01*
G01*
X56999999Y1D02*
X2999999Y1D01*
X1Y-42999999D02*
G75*
G03*
X2999999Y-45999999I2999999J-1D01*
G01*
M02*
