M48
; DRILL file {KiCad 7.0.10} date Tue Apr 16 13:05:26 2024
; FORMAT={-:-/ absolute / metric / decimal}
; #@! TF.CreationDate,2024-04-16T13:05:26-05:00
; #@! TF.GenerationSoftware,Kicad,Pcbnew,7.0.10
; #@! TF.FileFunction,MixedPlating,1,2
FMAT,2
METRIC
; #@! TA.AperFunction,Plated,PTH,ComponentDrill
T1C0.950
; #@! TA.AperFunction,Plated,PTH,ViaDrill
T2C1.000
; #@! TA.AperFunction,Plated,PTH,ComponentDrill
T3C1.000
; #@! TA.AperFunction,Plated,PTH,ComponentDrill
T4C1.200
; #@! TA.AperFunction,NonPlated,NPTH,ComponentDrill
T5C3.500
%
G90
G05
T1
X31.75Y-16.51
X34.25Y-16.51
X36.75Y-16.51
X39.25Y-16.51
X46.99Y-13.97
X49.49Y-13.97
X51.99Y-13.97
X54.49Y-13.97
X56.99Y-13.97
T2
X3.09Y-41.83
X51.425Y-19.4
X58.6Y-19.4
T3
X10.16Y-5.08
X10.16Y-7.62
X10.16Y-10.16
X10.16Y-12.7
X10.16Y-15.24
X10.16Y-17.78
X10.16Y-20.32
X10.16Y-22.86
X10.16Y-25.4
X10.16Y-27.94
X10.16Y-30.48
X10.16Y-33.02
X10.16Y-35.56
X12.7Y-5.08
X12.7Y-7.62
X12.7Y-10.16
X12.7Y-12.7
X12.7Y-15.24
X12.7Y-17.78
X12.7Y-20.32
X12.7Y-22.86
X12.7Y-25.4
X12.7Y-27.94
X12.7Y-30.48
X12.7Y-33.02
X12.7Y-35.56
X17.78Y-6.35
X20.28Y-6.35
X26.67Y-6.35
X29.17Y-6.35
X35.56Y-6.35
X38.06Y-6.35
X42.6Y-29.2
X44.45Y-6.35
X45.1Y-29.2
X46.95Y-6.35
X51.4Y-29.2
X53.34Y-6.35
X53.9Y-29.2
X55.84Y-6.35
T4
X17.78Y-17.78
X21.28Y-17.78
T5
X9.0Y-42.0
X46.0Y-22.0
M30
