%TF.GenerationSoftware,KiCad,Pcbnew,7.0.10*%
%TF.CreationDate,2024-04-15T19:16:32-05:00*%
%TF.ProjectId,QIDI Breakout Board,51494449-2042-4726-9561-6b6f75742042,rev?*%
%TF.SameCoordinates,PX1e84800PY243d580*%
%TF.FileFunction,Copper,L1,Top*%
%TF.FilePolarity,Positive*%
%FSLAX46Y46*%
G04 Gerber Fmt 4.6, Leading zero omitted, Abs format (unit mm)*
G04 Created by KiCad (PCBNEW 7.0.10) date 2024-04-15 19:16:32*
%MOMM*%
%LPD*%
G01*
G04 APERTURE LIST*
G04 Aperture macros list*
%AMRoundRect*
0 Rectangle with rounded corners*
0 $1 Rounding radius*
0 $2 $3 $4 $5 $6 $7 $8 $9 X,Y pos of 4 corners*
0 Add a 4 corners polygon primitive as box body*
4,1,4,$2,$3,$4,$5,$6,$7,$8,$9,$2,$3,0*
0 Add four circle primitives for the rounded corners*
1,1,$1+$1,$2,$3*
1,1,$1+$1,$4,$5*
1,1,$1+$1,$6,$7*
1,1,$1+$1,$8,$9*
0 Add four rect primitives between the rounded corners*
20,1,$1+$1,$2,$3,$4,$5,0*
20,1,$1+$1,$4,$5,$6,$7,0*
20,1,$1+$1,$6,$7,$8,$9,0*
20,1,$1+$1,$8,$9,$2,$3,0*%
G04 Aperture macros list end*
%TA.AperFunction,ComponentPad*%
%ADD10R,1.700000X1.700000*%
%TD*%
%TA.AperFunction,ComponentPad*%
%ADD11O,1.700000X1.700000*%
%TD*%
%TA.AperFunction,SMDPad,CuDef*%
%ADD12RoundRect,0.250000X0.325000X0.450000X-0.325000X0.450000X-0.325000X-0.450000X0.325000X-0.450000X0*%
%TD*%
%TA.AperFunction,ComponentPad*%
%ADD13RoundRect,0.250000X-0.600000X-0.725000X0.600000X-0.725000X0.600000X0.725000X-0.600000X0.725000X0*%
%TD*%
%TA.AperFunction,ComponentPad*%
%ADD14O,1.700000X1.950000*%
%TD*%
%TA.AperFunction,ComponentPad*%
%ADD15RoundRect,0.250000X-0.600000X-0.750000X0.600000X-0.750000X0.600000X0.750000X-0.600000X0.750000X0*%
%TD*%
%TA.AperFunction,ComponentPad*%
%ADD16O,1.700000X2.000000*%
%TD*%
%TA.AperFunction,ComponentPad*%
%ADD17R,2.400000X2.400000*%
%TD*%
%TA.AperFunction,ComponentPad*%
%ADD18C,2.400000*%
%TD*%
%TA.AperFunction,ViaPad*%
%ADD19C,2.000000*%
%TD*%
%TA.AperFunction,Conductor*%
%ADD20C,1.000000*%
%TD*%
%TA.AperFunction,Profile*%
%ADD21C,0.250000*%
%TD*%
G04 APERTURE END LIST*
D10*
%TO.P,J6,1,Pin_1*%
%TO.N,/OUT*%
X12700000Y-35560000D03*
D11*
%TO.P,J6,2,Pin_2*%
%TO.N,/SW1*%
X10160000Y-35560000D03*
%TO.P,J6,3,Pin_3*%
%TO.N,/IN*%
X12700000Y-33020000D03*
%TO.P,J6,4,Pin_4*%
%TO.N,/SW2*%
X10160000Y-33020000D03*
%TO.P,J6,5,Pin_5*%
%TO.N,/GF2*%
X12700000Y-30480000D03*
%TO.P,J6,6,Pin_6*%
%TO.N,/EXT1*%
X10160000Y-30480000D03*
%TO.P,J6,7,Pin_7*%
%TO.N,/VF2*%
X12700000Y-27940000D03*
%TO.P,J6,8,Pin_8*%
%TO.N,/EXT2*%
X10160000Y-27940000D03*
%TO.P,J6,9,Pin_9*%
%TO.N,/GF1*%
X12700000Y-25400000D03*
%TO.P,J6,10,Pin_10*%
%TO.N,GND*%
X10160000Y-25400000D03*
%TO.P,J6,11,Pin_11*%
%TO.N,/VF1*%
X12700000Y-22860000D03*
%TO.P,J6,12,Pin_12*%
%TO.N,+5V*%
X10160000Y-22860000D03*
%TO.P,J6,13,Pin_13*%
%TO.N,/Heater*%
X12700000Y-20320000D03*
%TO.P,J6,14,Pin_14*%
X10160000Y-20320000D03*
%TO.P,J6,15,Pin_15*%
%TO.N,/VBB*%
X12700000Y-17780000D03*
%TO.P,J6,16,Pin_16*%
X10160000Y-17780000D03*
%TO.P,J6,17,Pin_17*%
%TO.N,/1A*%
X12700000Y-15240000D03*
%TO.P,J6,18,Pin_18*%
%TO.N,/Ther3b*%
X10160000Y-15240000D03*
%TO.P,J6,19,Pin_19*%
%TO.N,/1B*%
X12700000Y-12700000D03*
%TO.P,J6,20,Pin_20*%
%TO.N,/Ther3a*%
X10160000Y-12700000D03*
%TO.P,J6,21,Pin_21*%
%TO.N,/2A*%
X12700000Y-10160000D03*
%TO.P,J6,22,Pin_22*%
%TO.N,/Ther2b*%
X10160000Y-10160000D03*
%TO.P,J6,23,Pin_23*%
%TO.N,/2B*%
X12700000Y-7620000D03*
%TO.P,J6,24,Pin_24*%
%TO.N,/Ther2a*%
X10160000Y-7620000D03*
%TO.P,J6,25,Pin_25*%
%TO.N,/Ther1a*%
X12700000Y-5080000D03*
%TO.P,J6,26,Pin_26*%
%TO.N,/Ther1b*%
X10160000Y-5080000D03*
%TD*%
D12*
%TO.P,C1,1*%
%TO.N,+5V*%
X56224999Y-19400000D03*
%TO.P,C1,2*%
%TO.N,GND*%
X54174999Y-19400000D03*
%TD*%
D13*
%TO.P,J8,1,Pin_1*%
%TO.N,/1A*%
X31750000Y-16510000D03*
D14*
%TO.P,J8,2,Pin_2*%
%TO.N,/1B*%
X34250000Y-16510000D03*
%TO.P,J8,3,Pin_3*%
%TO.N,/2A*%
X36750000Y-16510000D03*
%TO.P,J8,4,Pin_4*%
%TO.N,/2B*%
X39250000Y-16510000D03*
%TD*%
D15*
%TO.P,J10,1,Pin_1*%
%TO.N,/SW1*%
X51400000Y-29200000D03*
D16*
%TO.P,J10,2,Pin_2*%
%TO.N,/SW2*%
X53900000Y-29200000D03*
%TD*%
D15*
%TO.P,J11,1,Pin_1*%
%TO.N,/EXT1*%
X42600000Y-29200000D03*
D16*
%TO.P,J11,2,Pin_2*%
%TO.N,/EXT2*%
X45100000Y-29200000D03*
%TD*%
D13*
%TO.P,J9,1,Pin_1*%
%TO.N,GND*%
X46990000Y-13970000D03*
D14*
%TO.P,J9,2,Pin_2*%
%TO.N,+5V*%
X49490000Y-13970000D03*
%TO.P,J9,3,Pin_3*%
%TO.N,/IN*%
X51990000Y-13970000D03*
%TO.P,J9,4,Pin_4*%
%TO.N,GND*%
X54490000Y-13970000D03*
%TO.P,J9,5,Pin_5*%
%TO.N,/OUT*%
X56990000Y-13970000D03*
%TD*%
D15*
%TO.P,J1,1,Pin_1*%
%TO.N,/Ther1a*%
X17780000Y-6350000D03*
D16*
%TO.P,J1,2,Pin_2*%
%TO.N,/Ther1b*%
X20280000Y-6350000D03*
%TD*%
D15*
%TO.P,J3,1,Pin_1*%
%TO.N,/Ther3a*%
X35560000Y-6350000D03*
D16*
%TO.P,J3,2,Pin_2*%
%TO.N,/Ther3b*%
X38060000Y-6350000D03*
%TD*%
D15*
%TO.P,J4,1,Pin_1*%
%TO.N,/VF1*%
X44450000Y-6350000D03*
D16*
%TO.P,J4,2,Pin_2*%
%TO.N,/GF1*%
X46950000Y-6350000D03*
%TD*%
D15*
%TO.P,J5,1,Pin_1*%
%TO.N,/VF2*%
X53340000Y-6350000D03*
D16*
%TO.P,J5,2,Pin_2*%
%TO.N,/GF2*%
X55840000Y-6350000D03*
%TD*%
D17*
%TO.P,J7,1,Pin_1*%
%TO.N,/VBB*%
X17780000Y-17780000D03*
D18*
%TO.P,J7,2,Pin_2*%
%TO.N,/Heater*%
X21280000Y-17780000D03*
%TD*%
D15*
%TO.P,J2,1,Pin_1*%
%TO.N,/Ther2a*%
X26670000Y-6350000D03*
D16*
%TO.P,J2,2,Pin_2*%
%TO.N,/Ther2b*%
X29170000Y-6350000D03*
%TD*%
D19*
%TO.N,GND*%
X51424999Y-19400000D03*
%TO.N,+5V*%
X58599999Y-19400000D03*
X3089999Y-41829999D03*
%TD*%
D20*
%TO.N,GND*%
X54174999Y-19400000D02*
X51424999Y-19400000D01*
%TD*%
%TA.AperFunction,Conductor*%
%TO.N,+5V*%
G36*
X58000628Y-531D02*
G01*
X58133311Y-7485D01*
X58318957Y-17910D01*
X58321311Y-18162D01*
X58475666Y-42609D01*
X58639928Y-70519D01*
X58642107Y-70995D01*
X58796600Y-112392D01*
X58796786Y-112444D01*
X58953301Y-157535D01*
X58955235Y-158183D01*
X59105980Y-216048D01*
X59106400Y-216216D01*
X59255392Y-277931D01*
X59257075Y-278706D01*
X59392366Y-347640D01*
X59401562Y-352326D01*
X59402275Y-352705D01*
X59542653Y-430289D01*
X59544115Y-431166D01*
X59680450Y-519703D01*
X59681267Y-520258D01*
X59811739Y-612833D01*
X59812941Y-613743D01*
X59939504Y-716232D01*
X59940361Y-716963D01*
X60059495Y-823428D01*
X60060473Y-824352D01*
X60175641Y-939519D01*
X60176564Y-940496D01*
X60283045Y-1059648D01*
X60283762Y-1060489D01*
X60323152Y-1109131D01*
X60386254Y-1187057D01*
X60387175Y-1188273D01*
X60479732Y-1318718D01*
X60480287Y-1319535D01*
X60568835Y-1455887D01*
X60569712Y-1457349D01*
X60647288Y-1597713D01*
X60647667Y-1598426D01*
X60721285Y-1742909D01*
X60722074Y-1744621D01*
X60783748Y-1893516D01*
X60783981Y-1894099D01*
X60841810Y-2044747D01*
X60842466Y-2046704D01*
X60887523Y-2203101D01*
X60887643Y-2203534D01*
X60929000Y-2357885D01*
X60929479Y-2360076D01*
X60957364Y-2524188D01*
X60957408Y-2524454D01*
X60981833Y-2678667D01*
X60982090Y-2681075D01*
X60992527Y-2866939D01*
X60992532Y-2867029D01*
X60999466Y-2999330D01*
X60999499Y-3000586D01*
X60999499Y-29999372D01*
X60999466Y-30000628D01*
X60992519Y-30133178D01*
X60992514Y-30133268D01*
X60982088Y-30318928D01*
X60981831Y-30321336D01*
X60957414Y-30475498D01*
X60957370Y-30475764D01*
X60929478Y-30639921D01*
X60928999Y-30642113D01*
X60887639Y-30796471D01*
X60887519Y-30796903D01*
X60842464Y-30953291D01*
X60841808Y-30955248D01*
X60783985Y-31105884D01*
X60783752Y-31106467D01*
X60722071Y-31255379D01*
X60721282Y-31257091D01*
X60647664Y-31401571D01*
X60647285Y-31402284D01*
X60569712Y-31542644D01*
X60568835Y-31544106D01*
X60480287Y-31680458D01*
X60479732Y-31681275D01*
X60387173Y-31811724D01*
X60386252Y-31812940D01*
X60283777Y-31939488D01*
X60283020Y-31940376D01*
X60176579Y-32059483D01*
X60175655Y-32060462D01*
X60060462Y-32175655D01*
X60059483Y-32176579D01*
X59940376Y-32283020D01*
X59939488Y-32283777D01*
X59812940Y-32386252D01*
X59811724Y-32387173D01*
X59681275Y-32479732D01*
X59680458Y-32480287D01*
X59544106Y-32568835D01*
X59542644Y-32569712D01*
X59402284Y-32647285D01*
X59401571Y-32647664D01*
X59257091Y-32721282D01*
X59255379Y-32722071D01*
X59106467Y-32783752D01*
X59105884Y-32783985D01*
X58955248Y-32841808D01*
X58953291Y-32842464D01*
X58796903Y-32887519D01*
X58796471Y-32887639D01*
X58642113Y-32928999D01*
X58639921Y-32929478D01*
X58475764Y-32957370D01*
X58475498Y-32957414D01*
X58321336Y-32981831D01*
X58318928Y-32982088D01*
X58133343Y-32992509D01*
X58133253Y-32992514D01*
X58000629Y-32999466D01*
X57999373Y-32999499D01*
X37500625Y-32999499D01*
X37499369Y-32999466D01*
X37366630Y-32992508D01*
X37366540Y-32992503D01*
X37181075Y-32982088D01*
X37178667Y-32981831D01*
X37024471Y-32957409D01*
X37024205Y-32957365D01*
X36860076Y-32929478D01*
X36857884Y-32928999D01*
X36703517Y-32887637D01*
X36703085Y-32887517D01*
X36546710Y-32842466D01*
X36544753Y-32841810D01*
X36394105Y-32783981D01*
X36393521Y-32783748D01*
X36244617Y-32722069D01*
X36242906Y-32721280D01*
X36098427Y-32647665D01*
X36097714Y-32647286D01*
X35957350Y-32569710D01*
X35955888Y-32568833D01*
X35819536Y-32480285D01*
X35818719Y-32479730D01*
X35688266Y-32387168D01*
X35687050Y-32386246D01*
X35560517Y-32283781D01*
X35559629Y-32283025D01*
X35440505Y-32176569D01*
X35439527Y-32175645D01*
X35324359Y-32060478D01*
X35323434Y-32059499D01*
X35321983Y-32057875D01*
X35216957Y-31940350D01*
X35216222Y-31939488D01*
X35113746Y-31812940D01*
X35112825Y-31811724D01*
X35020265Y-31681273D01*
X35019710Y-31680456D01*
X34940996Y-31559248D01*
X34931161Y-31544103D01*
X34930296Y-31542662D01*
X34862713Y-31420379D01*
X34852707Y-31402274D01*
X34852328Y-31401561D01*
X34796624Y-31292236D01*
X34778708Y-31257074D01*
X34777933Y-31255391D01*
X34716218Y-31106399D01*
X34716050Y-31105979D01*
X34658188Y-30955241D01*
X34657533Y-30953287D01*
X34612455Y-30796818D01*
X34612389Y-30796583D01*
X34570997Y-30642106D01*
X34570521Y-30639928D01*
X34542596Y-30475571D01*
X34518164Y-30321311D01*
X34517912Y-30318954D01*
X34507499Y-30133544D01*
X34500532Y-30000589D01*
X34500499Y-29999333D01*
X34500499Y-29989355D01*
X41399500Y-29989355D01*
X41414956Y-30106762D01*
X41414957Y-30106767D01*
X41475461Y-30252835D01*
X41475464Y-30252841D01*
X41571718Y-30378282D01*
X41697159Y-30474536D01*
X41700124Y-30475764D01*
X41843232Y-30535042D01*
X41843234Y-30535042D01*
X41843238Y-30535044D01*
X41960639Y-30550500D01*
X43239360Y-30550499D01*
X43356762Y-30535044D01*
X43502841Y-30474536D01*
X43628282Y-30378282D01*
X43724536Y-30252841D01*
X43785044Y-30106762D01*
X43800500Y-29989361D01*
X43800500Y-29405503D01*
X43899500Y-29405503D01*
X43914885Y-29571536D01*
X43942265Y-29667768D01*
X43975771Y-29785527D01*
X44074944Y-29984693D01*
X44209014Y-30162231D01*
X44209019Y-30162236D01*
X44373438Y-30312124D01*
X44562599Y-30429247D01*
X44562600Y-30429247D01*
X44562601Y-30429248D01*
X44618364Y-30450850D01*
X44770060Y-30509618D01*
X44988757Y-30550500D01*
X45211243Y-30550500D01*
X45429940Y-30509618D01*
X45637401Y-30429247D01*
X45826562Y-30312124D01*
X45990981Y-30162236D01*
X46121534Y-29989355D01*
X50199500Y-29989355D01*
X50214956Y-30106762D01*
X50214957Y-30106767D01*
X50275461Y-30252835D01*
X50275464Y-30252841D01*
X50371718Y-30378282D01*
X50497159Y-30474536D01*
X50500124Y-30475764D01*
X50643232Y-30535042D01*
X50643234Y-30535042D01*
X50643238Y-30535044D01*
X50760639Y-30550500D01*
X52039360Y-30550499D01*
X52156762Y-30535044D01*
X52302841Y-30474536D01*
X52428282Y-30378282D01*
X52524536Y-30252841D01*
X52585044Y-30106762D01*
X52600500Y-29989361D01*
X52600500Y-29405503D01*
X52699500Y-29405503D01*
X52714885Y-29571536D01*
X52742265Y-29667768D01*
X52775771Y-29785527D01*
X52874944Y-29984693D01*
X53009014Y-30162231D01*
X53009019Y-30162236D01*
X53173438Y-30312124D01*
X53362599Y-30429247D01*
X53362600Y-30429247D01*
X53362601Y-30429248D01*
X53418364Y-30450850D01*
X53570060Y-30509618D01*
X53788757Y-30550500D01*
X54011243Y-30550500D01*
X54229940Y-30509618D01*
X54437401Y-30429247D01*
X54626562Y-30312124D01*
X54790981Y-30162236D01*
X54925058Y-29984689D01*
X55024229Y-29785528D01*
X55085115Y-29571536D01*
X55100500Y-29405503D01*
X55100500Y-28994497D01*
X55085115Y-28828464D01*
X55024229Y-28614472D01*
X54925058Y-28415311D01*
X54925056Y-28415309D01*
X54925055Y-28415306D01*
X54790985Y-28237768D01*
X54790980Y-28237763D01*
X54626561Y-28087875D01*
X54437399Y-27970752D01*
X54437398Y-27970751D01*
X54229940Y-27890382D01*
X54011243Y-27849500D01*
X53788757Y-27849500D01*
X53570059Y-27890382D01*
X53362601Y-27970751D01*
X53362600Y-27970752D01*
X53173438Y-28087875D01*
X53009019Y-28237763D01*
X53009014Y-28237768D01*
X52874944Y-28415306D01*
X52874942Y-28415311D01*
X52775771Y-28614472D01*
X52714885Y-28828464D01*
X52699500Y-28994497D01*
X52699500Y-29405503D01*
X52600500Y-29405503D01*
X52600499Y-28410640D01*
X52585044Y-28293238D01*
X52562065Y-28237763D01*
X52524538Y-28147164D01*
X52524535Y-28147158D01*
X52428282Y-28021718D01*
X52302841Y-27925464D01*
X52302835Y-27925461D01*
X52156767Y-27864957D01*
X52156763Y-27864956D01*
X52137195Y-27862380D01*
X52039361Y-27849500D01*
X52039356Y-27849500D01*
X50760644Y-27849500D01*
X50643237Y-27864956D01*
X50643232Y-27864957D01*
X50497164Y-27925461D01*
X50497158Y-27925464D01*
X50371720Y-28021716D01*
X50371716Y-28021720D01*
X50275464Y-28147158D01*
X50275461Y-28147164D01*
X50214957Y-28293232D01*
X50214956Y-28293236D01*
X50214956Y-28293237D01*
X50214956Y-28293238D01*
X50199500Y-28410639D01*
X50199500Y-28410640D01*
X50199500Y-28410643D01*
X50199500Y-29989355D01*
X46121534Y-29989355D01*
X46125058Y-29984689D01*
X46224229Y-29785528D01*
X46285115Y-29571536D01*
X46300500Y-29405503D01*
X46300500Y-28994497D01*
X46285115Y-28828464D01*
X46224229Y-28614472D01*
X46125058Y-28415311D01*
X46125056Y-28415309D01*
X46125055Y-28415306D01*
X45990985Y-28237768D01*
X45990980Y-28237763D01*
X45826561Y-28087875D01*
X45637399Y-27970752D01*
X45637398Y-27970751D01*
X45429940Y-27890382D01*
X45211243Y-27849500D01*
X44988757Y-27849500D01*
X44770059Y-27890382D01*
X44562601Y-27970751D01*
X44562600Y-27970752D01*
X44373438Y-28087875D01*
X44209019Y-28237763D01*
X44209014Y-28237768D01*
X44074944Y-28415306D01*
X44074942Y-28415311D01*
X43975771Y-28614472D01*
X43914885Y-28828464D01*
X43899500Y-28994497D01*
X43899500Y-29405503D01*
X43800500Y-29405503D01*
X43800499Y-28410640D01*
X43785044Y-28293238D01*
X43762065Y-28237763D01*
X43724538Y-28147164D01*
X43724535Y-28147158D01*
X43628282Y-28021718D01*
X43502841Y-27925464D01*
X43502835Y-27925461D01*
X43356767Y-27864957D01*
X43356763Y-27864956D01*
X43337195Y-27862380D01*
X43239361Y-27849500D01*
X43239356Y-27849500D01*
X41960644Y-27849500D01*
X41843237Y-27864956D01*
X41843232Y-27864957D01*
X41697164Y-27925461D01*
X41697158Y-27925464D01*
X41571720Y-28021716D01*
X41571716Y-28021720D01*
X41475464Y-28147158D01*
X41475461Y-28147164D01*
X41414957Y-28293232D01*
X41414956Y-28293236D01*
X41414956Y-28293237D01*
X41414956Y-28293238D01*
X41399500Y-28410639D01*
X41399500Y-28410640D01*
X41399500Y-28410643D01*
X41399500Y-29989355D01*
X34500499Y-29989355D01*
X34500499Y-29009942D01*
X34500501Y-29009937D01*
X34500501Y-28842755D01*
X34500501Y-28842749D01*
X34467627Y-28529973D01*
X34402239Y-28222346D01*
X34305053Y-27923240D01*
X34177135Y-27635931D01*
X34019885Y-27363566D01*
X33835027Y-27109131D01*
X33730409Y-26992941D01*
X33624599Y-26875427D01*
X33624595Y-26875423D01*
X33624586Y-26875413D01*
X33624572Y-26875400D01*
X33624571Y-26875399D01*
X33390875Y-26664979D01*
X33390862Y-26664968D01*
X33136439Y-26480119D01*
X33136438Y-26480118D01*
X33136432Y-26480114D01*
X32901920Y-26344718D01*
X32864070Y-26322865D01*
X32576761Y-26194947D01*
X32576756Y-26194945D01*
X32277668Y-26097765D01*
X32277658Y-26097762D01*
X31970021Y-26032372D01*
X31832196Y-26017886D01*
X31657249Y-25999499D01*
X31500098Y-25999499D01*
X28500499Y-25999499D01*
X28499999Y-25999499D01*
X28342749Y-25999499D01*
X28180746Y-26016526D01*
X28029976Y-26032372D01*
X27722340Y-26097762D01*
X27722331Y-26097765D01*
X27423241Y-26194946D01*
X27423236Y-26194948D01*
X27135928Y-26322866D01*
X26998249Y-26402356D01*
X26863567Y-26480115D01*
X26863564Y-26480116D01*
X26863559Y-26480120D01*
X26609136Y-26664969D01*
X26609123Y-26664980D01*
X26375428Y-26875400D01*
X26375400Y-26875428D01*
X26164980Y-27109123D01*
X26164969Y-27109136D01*
X25980120Y-27363559D01*
X25822866Y-27635928D01*
X25694948Y-27923236D01*
X25694946Y-27923241D01*
X25597765Y-28222331D01*
X25597762Y-28222340D01*
X25532372Y-28529976D01*
X25515925Y-28686466D01*
X25499499Y-28842749D01*
X25499499Y-28842755D01*
X25499499Y-29999372D01*
X25499466Y-30000628D01*
X25492519Y-30133178D01*
X25492514Y-30133268D01*
X25482088Y-30318928D01*
X25481831Y-30321336D01*
X25457414Y-30475498D01*
X25457370Y-30475764D01*
X25429478Y-30639921D01*
X25428999Y-30642113D01*
X25387639Y-30796471D01*
X25387519Y-30796903D01*
X25342464Y-30953291D01*
X25341808Y-30955248D01*
X25283985Y-31105884D01*
X25283752Y-31106467D01*
X25222071Y-31255379D01*
X25221282Y-31257091D01*
X25147664Y-31401571D01*
X25147285Y-31402284D01*
X25069712Y-31542644D01*
X25068835Y-31544106D01*
X24980287Y-31680458D01*
X24979732Y-31681275D01*
X24887173Y-31811724D01*
X24886252Y-31812940D01*
X24783777Y-31939488D01*
X24783020Y-31940376D01*
X24676579Y-32059483D01*
X24675655Y-32060462D01*
X24560462Y-32175655D01*
X24559483Y-32176579D01*
X24440376Y-32283020D01*
X24439488Y-32283777D01*
X24312940Y-32386252D01*
X24311724Y-32387173D01*
X24181275Y-32479732D01*
X24180458Y-32480287D01*
X24044106Y-32568835D01*
X24042644Y-32569712D01*
X23902284Y-32647285D01*
X23901571Y-32647664D01*
X23757091Y-32721282D01*
X23755379Y-32722071D01*
X23606467Y-32783752D01*
X23605884Y-32783985D01*
X23455248Y-32841808D01*
X23453291Y-32842464D01*
X23296903Y-32887519D01*
X23296471Y-32887639D01*
X23142113Y-32928999D01*
X23139921Y-32929478D01*
X22975764Y-32957370D01*
X22975498Y-32957414D01*
X22821336Y-32981831D01*
X22818928Y-32982088D01*
X22633343Y-32992509D01*
X22633253Y-32992514D01*
X22500629Y-32999466D01*
X22499373Y-32999499D01*
X20000499Y-32999499D01*
X19999999Y-32999499D01*
X19842749Y-32999499D01*
X19680746Y-33016526D01*
X19529976Y-33032372D01*
X19222340Y-33097762D01*
X19222331Y-33097765D01*
X18923241Y-33194946D01*
X18923236Y-33194948D01*
X18635928Y-33322866D01*
X18498249Y-33402356D01*
X18363567Y-33480115D01*
X18363564Y-33480116D01*
X18363559Y-33480120D01*
X18109136Y-33664969D01*
X18109123Y-33664980D01*
X17875428Y-33875400D01*
X17875400Y-33875428D01*
X17664980Y-34109123D01*
X17664969Y-34109136D01*
X17480120Y-34363559D01*
X17480116Y-34363564D01*
X17480115Y-34363567D01*
X17447070Y-34420802D01*
X17322866Y-34635928D01*
X17194948Y-34923236D01*
X17194946Y-34923241D01*
X17097765Y-35222331D01*
X17097762Y-35222340D01*
X17032372Y-35529976D01*
X17015925Y-35686466D01*
X16999499Y-35842749D01*
X16999499Y-35842755D01*
X16999499Y-43999372D01*
X16999466Y-44000628D01*
X16992519Y-44133178D01*
X16992514Y-44133268D01*
X16982088Y-44318928D01*
X16981831Y-44321336D01*
X16957414Y-44475498D01*
X16957370Y-44475764D01*
X16929478Y-44639921D01*
X16928999Y-44642113D01*
X16887639Y-44796471D01*
X16887519Y-44796903D01*
X16842464Y-44953291D01*
X16841808Y-44955248D01*
X16783985Y-45105884D01*
X16783752Y-45106467D01*
X16722071Y-45255379D01*
X16721282Y-45257091D01*
X16647664Y-45401571D01*
X16647285Y-45402284D01*
X16569712Y-45542644D01*
X16568835Y-45544106D01*
X16480287Y-45680458D01*
X16479732Y-45681275D01*
X16387173Y-45811724D01*
X16386252Y-45812940D01*
X16283777Y-45939488D01*
X16283020Y-45940376D01*
X16176579Y-46059483D01*
X16175655Y-46060462D01*
X16060462Y-46175655D01*
X16059483Y-46176579D01*
X15940376Y-46283020D01*
X15939488Y-46283777D01*
X15812940Y-46386252D01*
X15811724Y-46387173D01*
X15681275Y-46479732D01*
X15680458Y-46480287D01*
X15544106Y-46568835D01*
X15542644Y-46569712D01*
X15402284Y-46647285D01*
X15401571Y-46647664D01*
X15257091Y-46721282D01*
X15255379Y-46722071D01*
X15106467Y-46783752D01*
X15105884Y-46783985D01*
X14955248Y-46841808D01*
X14953291Y-46842464D01*
X14796903Y-46887519D01*
X14796471Y-46887639D01*
X14642113Y-46928999D01*
X14639921Y-46929478D01*
X14475764Y-46957370D01*
X14475498Y-46957414D01*
X14321336Y-46981831D01*
X14318928Y-46982088D01*
X14133343Y-46992509D01*
X14133253Y-46992514D01*
X14000629Y-46999466D01*
X13999373Y-46999499D01*
X3000625Y-46999499D01*
X2999369Y-46999466D01*
X2866630Y-46992508D01*
X2866540Y-46992503D01*
X2681075Y-46982088D01*
X2678667Y-46981831D01*
X2524471Y-46957409D01*
X2524205Y-46957365D01*
X2360076Y-46929478D01*
X2357884Y-46928999D01*
X2203517Y-46887637D01*
X2203085Y-46887517D01*
X2046710Y-46842466D01*
X2044753Y-46841810D01*
X1894105Y-46783981D01*
X1893521Y-46783748D01*
X1744617Y-46722069D01*
X1742906Y-46721280D01*
X1598427Y-46647665D01*
X1597714Y-46647286D01*
X1457350Y-46569710D01*
X1455888Y-46568833D01*
X1319536Y-46480285D01*
X1318719Y-46479730D01*
X1188266Y-46387168D01*
X1187050Y-46386246D01*
X1060517Y-46283781D01*
X1059629Y-46283025D01*
X940505Y-46176569D01*
X939527Y-46175645D01*
X824359Y-46060478D01*
X823434Y-46059499D01*
X823420Y-46059483D01*
X716957Y-45940350D01*
X716222Y-45939488D01*
X613746Y-45812940D01*
X612825Y-45811724D01*
X520265Y-45681273D01*
X519710Y-45680456D01*
X431167Y-45544113D01*
X430296Y-45542662D01*
X362713Y-45420379D01*
X352707Y-45402274D01*
X352328Y-45401561D01*
X278717Y-45257091D01*
X278708Y-45257074D01*
X277933Y-45255391D01*
X216218Y-45106399D01*
X216050Y-45105979D01*
X158188Y-44955241D01*
X157533Y-44953287D01*
X112455Y-44796818D01*
X112389Y-44796583D01*
X70997Y-44642106D01*
X70521Y-44639928D01*
X42596Y-44475571D01*
X18164Y-44321311D01*
X17912Y-44318954D01*
X7499Y-44133544D01*
X532Y-44000589D01*
X499Y-43999333D01*
X499Y-41999998D01*
X6994389Y-41999998D01*
X7002486Y-42113210D01*
X7002547Y-42114922D01*
X7002547Y-42142860D01*
X7006523Y-42170516D01*
X7006706Y-42172219D01*
X7014802Y-42285423D01*
X7014803Y-42285427D01*
X7038927Y-42396330D01*
X7039231Y-42398014D01*
X7043208Y-42425670D01*
X7043209Y-42425673D01*
X7051078Y-42452475D01*
X7051501Y-42454134D01*
X7075628Y-42565039D01*
X7075629Y-42565043D01*
X7115292Y-42671384D01*
X7115833Y-42673008D01*
X7117768Y-42679600D01*
X7123706Y-42699820D01*
X7123707Y-42699822D01*
X7123708Y-42699824D01*
X7135310Y-42725230D01*
X7135966Y-42726813D01*
X7175634Y-42833165D01*
X7230023Y-42932771D01*
X7230790Y-42934303D01*
X7242398Y-42959719D01*
X7242401Y-42959726D01*
X7257504Y-42983226D01*
X7258378Y-42984699D01*
X7312772Y-43084312D01*
X7312779Y-43084323D01*
X7380788Y-43175174D01*
X7381764Y-43176580D01*
X7396870Y-43200083D01*
X7396872Y-43200086D01*
X7415167Y-43221200D01*
X7416242Y-43222533D01*
X7484259Y-43313393D01*
X7484264Y-43313398D01*
X7564514Y-43393649D01*
X7565681Y-43394902D01*
X7583979Y-43416019D01*
X7605086Y-43434308D01*
X7605094Y-43434315D01*
X7606347Y-43435482D01*
X7686599Y-43515733D01*
X7686604Y-43515738D01*
X7777463Y-43583754D01*
X7778796Y-43584829D01*
X7799909Y-43603123D01*
X7799918Y-43603130D01*
X7810232Y-43609757D01*
X7823428Y-43618238D01*
X7824806Y-43619195D01*
X7915684Y-43687225D01*
X8015293Y-43741616D01*
X8015297Y-43741618D01*
X8016759Y-43742485D01*
X8040277Y-43757599D01*
X8065684Y-43769202D01*
X8065693Y-43769206D01*
X8067225Y-43769973D01*
X8166832Y-43824363D01*
X8166833Y-43824363D01*
X8166838Y-43824366D01*
X8273200Y-43864037D01*
X8274749Y-43864679D01*
X8300178Y-43876292D01*
X8323818Y-43883233D01*
X8326987Y-43884164D01*
X8328612Y-43884705D01*
X8352227Y-43893512D01*
X8434953Y-43924368D01*
X8545880Y-43948498D01*
X8547498Y-43948912D01*
X8574325Y-43956789D01*
X8601991Y-43960766D01*
X8603649Y-43961065D01*
X8714571Y-43985195D01*
X8827818Y-43993294D01*
X8829438Y-43993468D01*
X8857138Y-43997451D01*
X8857139Y-43997451D01*
X8885075Y-43997451D01*
X8886786Y-43997511D01*
X8999999Y-44005609D01*
X9071447Y-44000499D01*
X9071448Y-44000499D01*
X9110923Y-43997675D01*
X9113213Y-43997512D01*
X9114924Y-43997451D01*
X9142859Y-43997451D01*
X9142860Y-43997451D01*
X9170538Y-43993471D01*
X9172196Y-43993293D01*
X9285428Y-43985195D01*
X9396349Y-43961065D01*
X9398011Y-43960766D01*
X9425673Y-43956789D01*
X9452512Y-43948908D01*
X9454105Y-43948501D01*
X9565046Y-43924368D01*
X9671439Y-43884685D01*
X9672980Y-43884172D01*
X9699820Y-43876292D01*
X9725269Y-43864669D01*
X9726775Y-43864045D01*
X9833161Y-43824366D01*
X9932807Y-43769954D01*
X9934268Y-43769222D01*
X9959721Y-43757599D01*
X9983251Y-43742477D01*
X9984635Y-43741654D01*
X10084315Y-43687225D01*
X10175233Y-43619163D01*
X10176539Y-43618257D01*
X10200085Y-43603126D01*
X10221221Y-43584811D01*
X10222497Y-43583783D01*
X10313395Y-43515738D01*
X10393683Y-43435449D01*
X10394865Y-43434348D01*
X10416019Y-43416019D01*
X10434348Y-43394865D01*
X10435449Y-43393683D01*
X10515739Y-43313394D01*
X10583781Y-43222499D01*
X10584817Y-43221214D01*
X10603126Y-43200085D01*
X10618256Y-43176541D01*
X10619162Y-43175236D01*
X10687226Y-43084314D01*
X10741660Y-42984624D01*
X10742469Y-42983262D01*
X10757599Y-42959721D01*
X10769217Y-42934280D01*
X10769956Y-42932805D01*
X10824367Y-42833160D01*
X10864051Y-42726762D01*
X10864670Y-42725267D01*
X10876292Y-42699820D01*
X10884170Y-42672989D01*
X10884686Y-42671438D01*
X10924369Y-42565045D01*
X10948504Y-42454095D01*
X10948911Y-42452500D01*
X10956789Y-42425673D01*
X10960768Y-42397996D01*
X10961064Y-42396358D01*
X10985196Y-42285427D01*
X10993296Y-42172159D01*
X10993469Y-42170549D01*
X10997451Y-42142860D01*
X10998124Y-42105113D01*
X10998176Y-42103932D01*
X11005610Y-41999999D01*
X10998176Y-41896069D01*
X10998124Y-41894880D01*
X10997451Y-41857138D01*
X10993470Y-41829454D01*
X10993296Y-41827832D01*
X10985196Y-41714571D01*
X10961062Y-41603631D01*
X10960765Y-41601982D01*
X10956789Y-41574325D01*
X10948915Y-41547507D01*
X10948501Y-41545888D01*
X10924369Y-41434953D01*
X10884701Y-41328599D01*
X10884160Y-41326974D01*
X10876292Y-41300178D01*
X10864683Y-41274759D01*
X10864043Y-41273214D01*
X10824367Y-41166838D01*
X10769968Y-41067214D01*
X10769201Y-41065682D01*
X10757600Y-41040280D01*
X10757599Y-41040277D01*
X10742480Y-41016752D01*
X10741635Y-41015326D01*
X10709114Y-40955769D01*
X10687229Y-40915688D01*
X10686892Y-40915238D01*
X10619181Y-40824787D01*
X10618239Y-40823429D01*
X10603126Y-40799913D01*
X10603122Y-40799908D01*
X10584837Y-40778805D01*
X10583762Y-40777472D01*
X10515739Y-40686604D01*
X10515734Y-40686599D01*
X10435476Y-40606340D01*
X10434309Y-40605087D01*
X10416022Y-40583983D01*
X10416019Y-40583979D01*
X10394909Y-40565687D01*
X10393656Y-40564520D01*
X10313399Y-40484264D01*
X10313394Y-40484259D01*
X10222526Y-40416236D01*
X10221193Y-40415161D01*
X10200088Y-40396874D01*
X10200085Y-40396872D01*
X10176565Y-40381756D01*
X10175196Y-40380805D01*
X10124554Y-40342896D01*
X10084317Y-40312774D01*
X10084313Y-40312772D01*
X9984693Y-40258375D01*
X9983220Y-40257501D01*
X9959721Y-40242399D01*
X9959714Y-40242395D01*
X9934309Y-40230793D01*
X9932777Y-40230026D01*
X9833165Y-40175634D01*
X9833163Y-40175633D01*
X9833161Y-40175632D01*
X9786329Y-40158164D01*
X9726809Y-40135964D01*
X9725227Y-40135308D01*
X9699829Y-40123709D01*
X9699812Y-40123703D01*
X9673013Y-40115833D01*
X9671389Y-40115293D01*
X9565044Y-40075629D01*
X9565040Y-40075628D01*
X9454144Y-40051504D01*
X9452485Y-40051081D01*
X9425673Y-40043209D01*
X9425656Y-40043205D01*
X9398017Y-40039230D01*
X9396333Y-40038927D01*
X9285428Y-40014803D01*
X9285424Y-40014802D01*
X9172216Y-40006705D01*
X9170513Y-40006522D01*
X9142861Y-40002547D01*
X9142860Y-40002547D01*
X9114924Y-40002547D01*
X9113212Y-40002486D01*
X9071448Y-39999499D01*
X9071447Y-39999499D01*
X9071445Y-39999498D01*
X8999999Y-39994389D01*
X8886787Y-40002486D01*
X8885075Y-40002547D01*
X8857137Y-40002547D01*
X8829481Y-40006523D01*
X8827778Y-40006706D01*
X8714574Y-40014802D01*
X8714570Y-40014803D01*
X8603666Y-40038927D01*
X8601982Y-40039231D01*
X8574327Y-40043208D01*
X8574320Y-40043210D01*
X8547507Y-40051082D01*
X8545849Y-40051505D01*
X8434958Y-40075628D01*
X8434954Y-40075629D01*
X8328612Y-40115292D01*
X8326988Y-40115832D01*
X8300185Y-40123703D01*
X8300180Y-40123705D01*
X8274770Y-40135309D01*
X8273189Y-40135964D01*
X8166830Y-40175635D01*
X8067230Y-40230020D01*
X8065700Y-40230786D01*
X8040279Y-40242397D01*
X8040274Y-40242400D01*
X8016759Y-40257510D01*
X8015287Y-40258383D01*
X7915685Y-40312772D01*
X7915674Y-40312779D01*
X7824829Y-40380784D01*
X7823424Y-40381760D01*
X7799910Y-40396873D01*
X7778804Y-40415162D01*
X7777471Y-40416237D01*
X7686604Y-40484259D01*
X7686599Y-40484264D01*
X7606354Y-40564508D01*
X7605102Y-40565674D01*
X7583984Y-40583974D01*
X7583974Y-40583984D01*
X7565674Y-40605102D01*
X7564508Y-40606354D01*
X7484264Y-40686599D01*
X7484259Y-40686604D01*
X7416237Y-40777471D01*
X7415162Y-40778804D01*
X7396873Y-40799910D01*
X7381760Y-40823424D01*
X7380784Y-40824829D01*
X7312779Y-40915674D01*
X7312772Y-40915685D01*
X7258383Y-41015287D01*
X7257510Y-41016759D01*
X7242400Y-41040274D01*
X7242397Y-41040279D01*
X7230786Y-41065700D01*
X7230020Y-41067230D01*
X7175635Y-41166830D01*
X7135964Y-41273189D01*
X7135309Y-41274770D01*
X7123705Y-41300180D01*
X7123703Y-41300185D01*
X7115832Y-41326988D01*
X7115292Y-41328612D01*
X7075629Y-41434954D01*
X7075628Y-41434958D01*
X7051505Y-41545849D01*
X7051082Y-41547507D01*
X7043210Y-41574320D01*
X7043208Y-41574327D01*
X7039231Y-41601982D01*
X7038927Y-41603666D01*
X7014803Y-41714570D01*
X7014802Y-41714574D01*
X7006706Y-41827778D01*
X7006523Y-41829481D01*
X7002547Y-41857137D01*
X7002547Y-41885074D01*
X7002486Y-41886786D01*
X6994389Y-41999998D01*
X499Y-41999998D01*
X499Y-35560000D01*
X8954357Y-35560000D01*
X8974885Y-35781536D01*
X9035771Y-35995528D01*
X9134942Y-36194689D01*
X9134944Y-36194693D01*
X9269014Y-36372231D01*
X9269019Y-36372236D01*
X9433438Y-36522124D01*
X9622599Y-36639247D01*
X9622600Y-36639247D01*
X9622601Y-36639248D01*
X9678364Y-36660850D01*
X9830060Y-36719618D01*
X10048757Y-36760500D01*
X10271243Y-36760500D01*
X10489940Y-36719618D01*
X10697401Y-36639247D01*
X10886562Y-36522124D01*
X10973068Y-36443263D01*
X11499500Y-36443263D01*
X11509425Y-36511390D01*
X11509426Y-36511391D01*
X11560800Y-36616480D01*
X11560801Y-36616481D01*
X11560802Y-36616483D01*
X11643517Y-36699198D01*
X11748607Y-36750573D01*
X11748608Y-36750573D01*
X11748609Y-36750574D01*
X11791489Y-36756820D01*
X11816740Y-36760500D01*
X11816746Y-36760500D01*
X13583254Y-36760500D01*
X13583260Y-36760500D01*
X13617326Y-36755536D01*
X13651390Y-36750574D01*
X13651390Y-36750573D01*
X13651393Y-36750573D01*
X13756483Y-36699198D01*
X13839198Y-36616483D01*
X13890573Y-36511393D01*
X13890573Y-36511390D01*
X13890574Y-36511390D01*
X13895536Y-36477326D01*
X13900500Y-36443260D01*
X13900500Y-34676740D01*
X13894554Y-34635928D01*
X13890574Y-34608609D01*
X13890573Y-34608608D01*
X13839199Y-34503519D01*
X13839198Y-34503518D01*
X13839198Y-34503517D01*
X13756483Y-34420802D01*
X13756481Y-34420801D01*
X13756480Y-34420800D01*
X13651391Y-34369426D01*
X13651390Y-34369425D01*
X13583263Y-34359500D01*
X13583260Y-34359500D01*
X11816740Y-34359500D01*
X11816736Y-34359500D01*
X11748609Y-34369425D01*
X11748608Y-34369426D01*
X11643519Y-34420800D01*
X11560800Y-34503519D01*
X11509426Y-34608608D01*
X11509425Y-34608609D01*
X11499500Y-34676736D01*
X11499500Y-36443263D01*
X10973068Y-36443263D01*
X11050981Y-36372236D01*
X11185058Y-36194689D01*
X11284229Y-35995528D01*
X11345115Y-35781536D01*
X11365643Y-35560000D01*
X11345115Y-35338464D01*
X11284229Y-35124472D01*
X11185058Y-34925311D01*
X11185056Y-34925309D01*
X11185055Y-34925306D01*
X11050985Y-34747768D01*
X11050980Y-34747763D01*
X10886561Y-34597875D01*
X10770214Y-34525837D01*
X10697401Y-34480753D01*
X10697399Y-34480752D01*
X10697398Y-34480751D01*
X10489940Y-34400382D01*
X10271243Y-34359500D01*
X10048757Y-34359500D01*
X9830059Y-34400382D01*
X9622601Y-34480751D01*
X9622600Y-34480752D01*
X9433438Y-34597875D01*
X9269019Y-34747763D01*
X9269014Y-34747768D01*
X9134944Y-34925306D01*
X9134942Y-34925311D01*
X9035771Y-35124472D01*
X8974885Y-35338464D01*
X8954357Y-35560000D01*
X499Y-35560000D01*
X499Y-33020000D01*
X8954357Y-33020000D01*
X8974885Y-33241536D01*
X9035771Y-33455528D01*
X9094441Y-33573353D01*
X9134944Y-33654693D01*
X9269014Y-33832231D01*
X9269019Y-33832236D01*
X9433438Y-33982124D01*
X9622599Y-34099247D01*
X9622600Y-34099247D01*
X9622601Y-34099248D01*
X9648092Y-34109123D01*
X9830060Y-34179618D01*
X10048757Y-34220500D01*
X10271243Y-34220500D01*
X10489940Y-34179618D01*
X10697401Y-34099247D01*
X10886562Y-33982124D01*
X11050981Y-33832236D01*
X11185058Y-33654689D01*
X11284229Y-33455528D01*
X11345115Y-33241536D01*
X11365643Y-33020000D01*
X11494357Y-33020000D01*
X11514885Y-33241536D01*
X11575771Y-33455528D01*
X11634441Y-33573353D01*
X11674944Y-33654693D01*
X11809014Y-33832231D01*
X11809019Y-33832236D01*
X11973438Y-33982124D01*
X12162599Y-34099247D01*
X12162600Y-34099247D01*
X12162601Y-34099248D01*
X12188092Y-34109123D01*
X12370060Y-34179618D01*
X12588757Y-34220500D01*
X12811243Y-34220500D01*
X13029940Y-34179618D01*
X13237401Y-34099247D01*
X13426562Y-33982124D01*
X13590981Y-33832236D01*
X13725058Y-33654689D01*
X13824229Y-33455528D01*
X13885115Y-33241536D01*
X13905643Y-33020000D01*
X13885115Y-32798464D01*
X13824229Y-32584472D01*
X13725058Y-32385311D01*
X13725056Y-32385309D01*
X13725055Y-32385306D01*
X13590985Y-32207768D01*
X13590980Y-32207763D01*
X13426561Y-32057875D01*
X13237399Y-31940752D01*
X13237398Y-31940751D01*
X13029940Y-31860382D01*
X12811243Y-31819500D01*
X12588757Y-31819500D01*
X12370059Y-31860382D01*
X12162601Y-31940751D01*
X12162600Y-31940752D01*
X11973438Y-32057875D01*
X11809019Y-32207763D01*
X11809014Y-32207768D01*
X11674944Y-32385306D01*
X11575771Y-32584472D01*
X11514885Y-32798463D01*
X11510869Y-32841808D01*
X11494357Y-33020000D01*
X11365643Y-33020000D01*
X11345115Y-32798464D01*
X11284229Y-32584472D01*
X11185058Y-32385311D01*
X11185056Y-32385309D01*
X11185055Y-32385306D01*
X11050985Y-32207768D01*
X11050980Y-32207763D01*
X10886561Y-32057875D01*
X10697399Y-31940752D01*
X10697398Y-31940751D01*
X10489940Y-31860382D01*
X10271243Y-31819500D01*
X10048757Y-31819500D01*
X9830059Y-31860382D01*
X9622601Y-31940751D01*
X9622600Y-31940752D01*
X9433438Y-32057875D01*
X9269019Y-32207763D01*
X9269014Y-32207768D01*
X9134944Y-32385306D01*
X9035771Y-32584472D01*
X8974885Y-32798463D01*
X8970869Y-32841808D01*
X8954357Y-33020000D01*
X499Y-33020000D01*
X499Y-30480000D01*
X8954357Y-30480000D01*
X8974885Y-30701536D01*
X9035771Y-30915528D01*
X9130558Y-31105884D01*
X9134944Y-31114693D01*
X9269014Y-31292231D01*
X9269019Y-31292236D01*
X9433438Y-31442124D01*
X9622599Y-31559247D01*
X9622600Y-31559247D01*
X9622601Y-31559248D01*
X9678364Y-31580850D01*
X9830060Y-31639618D01*
X10048757Y-31680500D01*
X10271243Y-31680500D01*
X10489940Y-31639618D01*
X10697401Y-31559247D01*
X10886562Y-31442124D01*
X11050981Y-31292236D01*
X11077524Y-31257088D01*
X11185055Y-31114693D01*
X11185055Y-31114692D01*
X11185058Y-31114689D01*
X11284229Y-30915528D01*
X11345115Y-30701536D01*
X11365643Y-30480000D01*
X11494357Y-30480000D01*
X11514885Y-30701536D01*
X11575771Y-30915528D01*
X11670558Y-31105884D01*
X11674944Y-31114693D01*
X11809014Y-31292231D01*
X11809019Y-31292236D01*
X11973438Y-31442124D01*
X12162599Y-31559247D01*
X12162600Y-31559247D01*
X12162601Y-31559248D01*
X12218364Y-31580850D01*
X12370060Y-31639618D01*
X12588757Y-31680500D01*
X12811243Y-31680500D01*
X13029940Y-31639618D01*
X13237401Y-31559247D01*
X13426562Y-31442124D01*
X13590981Y-31292236D01*
X13617524Y-31257088D01*
X13725055Y-31114693D01*
X13725055Y-31114692D01*
X13725058Y-31114689D01*
X13824229Y-30915528D01*
X13885115Y-30701536D01*
X13905643Y-30480000D01*
X13885115Y-30258464D01*
X13824229Y-30044472D01*
X13725058Y-29845311D01*
X13725056Y-29845309D01*
X13725055Y-29845306D01*
X13590985Y-29667768D01*
X13590980Y-29667763D01*
X13426561Y-29517875D01*
X13245077Y-29405506D01*
X13237401Y-29400753D01*
X13237399Y-29400752D01*
X13237398Y-29400751D01*
X13029940Y-29320382D01*
X12811243Y-29279500D01*
X12588757Y-29279500D01*
X12370059Y-29320382D01*
X12162601Y-29400751D01*
X12162600Y-29400752D01*
X11973438Y-29517875D01*
X11809019Y-29667763D01*
X11809014Y-29667768D01*
X11674944Y-29845306D01*
X11575771Y-30044472D01*
X11516487Y-30252835D01*
X11514885Y-30258464D01*
X11494357Y-30480000D01*
X11365643Y-30480000D01*
X11345115Y-30258464D01*
X11284229Y-30044472D01*
X11185058Y-29845311D01*
X11185056Y-29845309D01*
X11185055Y-29845306D01*
X11050985Y-29667768D01*
X11050980Y-29667763D01*
X10886561Y-29517875D01*
X10705077Y-29405506D01*
X10697401Y-29400753D01*
X10697399Y-29400752D01*
X10697398Y-29400751D01*
X10489940Y-29320382D01*
X10271243Y-29279500D01*
X10048757Y-29279500D01*
X9830059Y-29320382D01*
X9622601Y-29400751D01*
X9622600Y-29400752D01*
X9433438Y-29517875D01*
X9269019Y-29667763D01*
X9269014Y-29667768D01*
X9134944Y-29845306D01*
X9035771Y-30044472D01*
X8976487Y-30252835D01*
X8974885Y-30258464D01*
X8954357Y-30480000D01*
X499Y-30480000D01*
X499Y-27940000D01*
X8954357Y-27940000D01*
X8974885Y-28161536D01*
X9035771Y-28375528D01*
X9134942Y-28574689D01*
X9134944Y-28574693D01*
X9269014Y-28752231D01*
X9269019Y-28752236D01*
X9433438Y-28902124D01*
X9622599Y-29019247D01*
X9622600Y-29019247D01*
X9622601Y-29019248D01*
X9678364Y-29040850D01*
X9830060Y-29099618D01*
X10048757Y-29140500D01*
X10271243Y-29140500D01*
X10489940Y-29099618D01*
X10697401Y-29019247D01*
X10886562Y-28902124D01*
X11050981Y-28752236D01*
X11185058Y-28574689D01*
X11284229Y-28375528D01*
X11345115Y-28161536D01*
X11365643Y-27940000D01*
X11494357Y-27940000D01*
X11514885Y-28161536D01*
X11575771Y-28375528D01*
X11674942Y-28574689D01*
X11674944Y-28574693D01*
X11809014Y-28752231D01*
X11809019Y-28752236D01*
X11973438Y-28902124D01*
X12162599Y-29019247D01*
X12162600Y-29019247D01*
X12162601Y-29019248D01*
X12218364Y-29040850D01*
X12370060Y-29099618D01*
X12588757Y-29140500D01*
X12811243Y-29140500D01*
X13029940Y-29099618D01*
X13237401Y-29019247D01*
X13426562Y-28902124D01*
X13590981Y-28752236D01*
X13725058Y-28574689D01*
X13824229Y-28375528D01*
X13885115Y-28161536D01*
X13905643Y-27940000D01*
X13885115Y-27718464D01*
X13824229Y-27504472D01*
X13725058Y-27305311D01*
X13725056Y-27305309D01*
X13725055Y-27305306D01*
X13590985Y-27127768D01*
X13590980Y-27127763D01*
X13426561Y-26977875D01*
X13237399Y-26860752D01*
X13237398Y-26860751D01*
X13029940Y-26780382D01*
X12811243Y-26739500D01*
X12588757Y-26739500D01*
X12370059Y-26780382D01*
X12162601Y-26860751D01*
X12162600Y-26860752D01*
X11973438Y-26977875D01*
X11809019Y-27127763D01*
X11809014Y-27127768D01*
X11674944Y-27305306D01*
X11575771Y-27504472D01*
X11538368Y-27635931D01*
X11514885Y-27718464D01*
X11494357Y-27940000D01*
X11365643Y-27940000D01*
X11345115Y-27718464D01*
X11284229Y-27504472D01*
X11185058Y-27305311D01*
X11185056Y-27305309D01*
X11185055Y-27305306D01*
X11050985Y-27127768D01*
X11050980Y-27127763D01*
X10886561Y-26977875D01*
X10697399Y-26860752D01*
X10697398Y-26860751D01*
X10489940Y-26780382D01*
X10271243Y-26739500D01*
X10048757Y-26739500D01*
X9830059Y-26780382D01*
X9622601Y-26860751D01*
X9622600Y-26860752D01*
X9433438Y-26977875D01*
X9269019Y-27127763D01*
X9269014Y-27127768D01*
X9134944Y-27305306D01*
X9035771Y-27504472D01*
X8998368Y-27635931D01*
X8974885Y-27718464D01*
X8954357Y-27940000D01*
X499Y-27940000D01*
X499Y-25400000D01*
X8954357Y-25400000D01*
X8974885Y-25621536D01*
X9035771Y-25835527D01*
X9134944Y-26034693D01*
X9269014Y-26212231D01*
X9269019Y-26212236D01*
X9433438Y-26362124D01*
X9622599Y-26479247D01*
X9622600Y-26479247D01*
X9622601Y-26479248D01*
X9624852Y-26480120D01*
X9830060Y-26559618D01*
X10048757Y-26600500D01*
X10271243Y-26600500D01*
X10489940Y-26559618D01*
X10697401Y-26479247D01*
X10886562Y-26362124D01*
X11050981Y-26212236D01*
X11185058Y-26034689D01*
X11284229Y-25835528D01*
X11345115Y-25621536D01*
X11365643Y-25400000D01*
X11494357Y-25400000D01*
X11514885Y-25621536D01*
X11575771Y-25835527D01*
X11674944Y-26034693D01*
X11809014Y-26212231D01*
X11809019Y-26212236D01*
X11973438Y-26362124D01*
X12162599Y-26479247D01*
X12162600Y-26479247D01*
X12162601Y-26479248D01*
X12164852Y-26480120D01*
X12370060Y-26559618D01*
X12588757Y-26600500D01*
X12811243Y-26600500D01*
X13029940Y-26559618D01*
X13237401Y-26479247D01*
X13426562Y-26362124D01*
X13590981Y-26212236D01*
X13725058Y-26034689D01*
X13824229Y-25835528D01*
X13885115Y-25621536D01*
X13905643Y-25400000D01*
X13885115Y-25178464D01*
X13824229Y-24964472D01*
X13725058Y-24765311D01*
X13725056Y-24765309D01*
X13725055Y-24765306D01*
X13590985Y-24587768D01*
X13590980Y-24587763D01*
X13426561Y-24437875D01*
X13237399Y-24320752D01*
X13237398Y-24320751D01*
X13029940Y-24240382D01*
X12811243Y-24199500D01*
X12588757Y-24199500D01*
X12370059Y-24240382D01*
X12162601Y-24320751D01*
X12162600Y-24320752D01*
X11973438Y-24437875D01*
X11809019Y-24587763D01*
X11809014Y-24587768D01*
X11674944Y-24765306D01*
X11575771Y-24964472D01*
X11514885Y-25178463D01*
X11494357Y-25400000D01*
X11365643Y-25400000D01*
X11345115Y-25178464D01*
X11284229Y-24964472D01*
X11185058Y-24765311D01*
X11185056Y-24765309D01*
X11185055Y-24765306D01*
X11050985Y-24587768D01*
X11050980Y-24587763D01*
X10886561Y-24437875D01*
X10697399Y-24320752D01*
X10697398Y-24320751D01*
X10489940Y-24240382D01*
X10271243Y-24199500D01*
X10048757Y-24199500D01*
X9830059Y-24240382D01*
X9622601Y-24320751D01*
X9622600Y-24320752D01*
X9433438Y-24437875D01*
X9269019Y-24587763D01*
X9269014Y-24587768D01*
X9134944Y-24765306D01*
X9035771Y-24964472D01*
X8974885Y-25178463D01*
X8954357Y-25400000D01*
X499Y-25400000D01*
X499Y-23160000D01*
X8997731Y-23160000D01*
X9036240Y-23295349D01*
X9135370Y-23494429D01*
X9269385Y-23671893D01*
X9269390Y-23671898D01*
X9433740Y-23821723D01*
X9622814Y-23938793D01*
X9622825Y-23938798D01*
X9830197Y-24019135D01*
X9860000Y-24024705D01*
X9860000Y-23261643D01*
X9886900Y-23284952D01*
X10017685Y-23344680D01*
X10124237Y-23360000D01*
X10195763Y-23360000D01*
X10302315Y-23344680D01*
X10433100Y-23284952D01*
X10460000Y-23261643D01*
X10460000Y-24024704D01*
X10489802Y-24019135D01*
X10697174Y-23938798D01*
X10697185Y-23938793D01*
X10886259Y-23821723D01*
X11050609Y-23671898D01*
X11050614Y-23671893D01*
X11184629Y-23494429D01*
X11283759Y-23295349D01*
X11322269Y-23160000D01*
X10561554Y-23160000D01*
X10619493Y-23069844D01*
X10660000Y-22931889D01*
X10660000Y-22860000D01*
X11494357Y-22860000D01*
X11514885Y-23081536D01*
X11575771Y-23295528D01*
X11624630Y-23393649D01*
X11674944Y-23494693D01*
X11809014Y-23672231D01*
X11809019Y-23672236D01*
X11973438Y-23822124D01*
X12162599Y-23939247D01*
X12162600Y-23939247D01*
X12162601Y-23939248D01*
X12187555Y-23948915D01*
X12370060Y-24019618D01*
X12588757Y-24060500D01*
X12811243Y-24060500D01*
X13029940Y-24019618D01*
X13237401Y-23939247D01*
X13426562Y-23822124D01*
X13590981Y-23672236D01*
X13725058Y-23494689D01*
X13824229Y-23295528D01*
X13885115Y-23081536D01*
X13905643Y-22860000D01*
X13885115Y-22638464D01*
X13824229Y-22424472D01*
X13725058Y-22225311D01*
X13725056Y-22225309D01*
X13725055Y-22225306D01*
X13590985Y-22047768D01*
X13590980Y-22047763D01*
X13538585Y-21999999D01*
X43994389Y-21999999D01*
X43997805Y-22047768D01*
X44002486Y-22113210D01*
X44002547Y-22114922D01*
X44002547Y-22142860D01*
X44006523Y-22170516D01*
X44006706Y-22172219D01*
X44014802Y-22285423D01*
X44014803Y-22285427D01*
X44038927Y-22396330D01*
X44039231Y-22398014D01*
X44043208Y-22425670D01*
X44043209Y-22425673D01*
X44051078Y-22452475D01*
X44051501Y-22454134D01*
X44075628Y-22565039D01*
X44075629Y-22565043D01*
X44115292Y-22671384D01*
X44115833Y-22673008D01*
X44123706Y-22699820D01*
X44123707Y-22699822D01*
X44123708Y-22699824D01*
X44135310Y-22725230D01*
X44135966Y-22726813D01*
X44175634Y-22833165D01*
X44230023Y-22932771D01*
X44230790Y-22934303D01*
X44242398Y-22959719D01*
X44242401Y-22959726D01*
X44257504Y-22983226D01*
X44258378Y-22984699D01*
X44312772Y-23084312D01*
X44312779Y-23084323D01*
X44380786Y-23175171D01*
X44381762Y-23176576D01*
X44392288Y-23192952D01*
X44396872Y-23200085D01*
X44396874Y-23200087D01*
X44415171Y-23221205D01*
X44416246Y-23222538D01*
X44444837Y-23260730D01*
X44484260Y-23313394D01*
X44484265Y-23313399D01*
X44564514Y-23393649D01*
X44565681Y-23394902D01*
X44583979Y-23416019D01*
X44605078Y-23434301D01*
X44605094Y-23434315D01*
X44606347Y-23435482D01*
X44686600Y-23515734D01*
X44686605Y-23515739D01*
X44777465Y-23583756D01*
X44778798Y-23584831D01*
X44799909Y-23603123D01*
X44799918Y-23603130D01*
X44809832Y-23609500D01*
X44823426Y-23618237D01*
X44824802Y-23619192D01*
X44915685Y-23687226D01*
X44977469Y-23720963D01*
X45015301Y-23741621D01*
X45016774Y-23742495D01*
X45016779Y-23742498D01*
X45040277Y-23757599D01*
X45065706Y-23769212D01*
X45067204Y-23769962D01*
X45138535Y-23808911D01*
X45166833Y-23824364D01*
X45166834Y-23824364D01*
X45166839Y-23824367D01*
X45273213Y-23864042D01*
X45274751Y-23864680D01*
X45300178Y-23876292D01*
X45327008Y-23884170D01*
X45328569Y-23884689D01*
X45434954Y-23924369D01*
X45545895Y-23948502D01*
X45547497Y-23948911D01*
X45574325Y-23956789D01*
X45602006Y-23960768D01*
X45603639Y-23961064D01*
X45681993Y-23978108D01*
X45714561Y-23985194D01*
X45714567Y-23985194D01*
X45714572Y-23985196D01*
X45827827Y-23993296D01*
X45829454Y-23993470D01*
X45857138Y-23997451D01*
X45857139Y-23997451D01*
X45885062Y-23997451D01*
X45886773Y-23997511D01*
X45928552Y-24000500D01*
X45928562Y-24000500D01*
X45928968Y-24000529D01*
X45928974Y-24000529D01*
X45999999Y-24005609D01*
X46071433Y-24000500D01*
X46071448Y-24000500D01*
X46113226Y-23997511D01*
X46114938Y-23997451D01*
X46142859Y-23997451D01*
X46142860Y-23997451D01*
X46170524Y-23993473D01*
X46172182Y-23993295D01*
X46285428Y-23985196D01*
X46396367Y-23961062D01*
X46398020Y-23960764D01*
X46425673Y-23956789D01*
X46452488Y-23948915D01*
X46454096Y-23948504D01*
X46565046Y-23924369D01*
X46671430Y-23884689D01*
X46673005Y-23884165D01*
X46699820Y-23876292D01*
X46725257Y-23864674D01*
X46726763Y-23864051D01*
X46833161Y-23824367D01*
X46932817Y-23769950D01*
X46934302Y-23769207D01*
X46959721Y-23757599D01*
X46983248Y-23742478D01*
X46984655Y-23741644D01*
X47062079Y-23699367D01*
X47084314Y-23687227D01*
X47104346Y-23672231D01*
X47175234Y-23619164D01*
X47176558Y-23618245D01*
X47200085Y-23603126D01*
X47221211Y-23584819D01*
X47222489Y-23583790D01*
X47313395Y-23515739D01*
X47393691Y-23435442D01*
X47394886Y-23434330D01*
X47416019Y-23416019D01*
X47434330Y-23394886D01*
X47435442Y-23393691D01*
X47515739Y-23313395D01*
X47583790Y-23222489D01*
X47584819Y-23221211D01*
X47603126Y-23200085D01*
X47618245Y-23176558D01*
X47619164Y-23175234D01*
X47687226Y-23084315D01*
X47688744Y-23081536D01*
X47699367Y-23062079D01*
X47741644Y-22984655D01*
X47742478Y-22983248D01*
X47757599Y-22959721D01*
X47769207Y-22934302D01*
X47769950Y-22932817D01*
X47824367Y-22833161D01*
X47864051Y-22726763D01*
X47864674Y-22725257D01*
X47876292Y-22699820D01*
X47884165Y-22673005D01*
X47884689Y-22671430D01*
X47924369Y-22565046D01*
X47948504Y-22454096D01*
X47948919Y-22452475D01*
X47956789Y-22425673D01*
X47960766Y-22398014D01*
X47961062Y-22396367D01*
X47985196Y-22285428D01*
X47993295Y-22172182D01*
X47993473Y-22170524D01*
X47997451Y-22142860D01*
X47998124Y-22105117D01*
X47998176Y-22103931D01*
X48005610Y-22000000D01*
X47998176Y-21896070D01*
X47998124Y-21894882D01*
X47997451Y-21857138D01*
X47993471Y-21829457D01*
X47993296Y-21827826D01*
X47985196Y-21714572D01*
X47961064Y-21603640D01*
X47960765Y-21601982D01*
X47956789Y-21574325D01*
X47948911Y-21547497D01*
X47948502Y-21545895D01*
X47924369Y-21434954D01*
X47884689Y-21328569D01*
X47884170Y-21327008D01*
X47876292Y-21300178D01*
X47864680Y-21274751D01*
X47864042Y-21273213D01*
X47824367Y-21166839D01*
X47769962Y-21067204D01*
X47769209Y-21065700D01*
X47757599Y-21040277D01*
X47757596Y-21040272D01*
X47757596Y-21040271D01*
X47742495Y-21016774D01*
X47741621Y-21015301D01*
X47708524Y-20954689D01*
X47687226Y-20915685D01*
X47619193Y-20824803D01*
X47618237Y-20823426D01*
X47609500Y-20809832D01*
X47603130Y-20799918D01*
X47603123Y-20799909D01*
X47584831Y-20778798D01*
X47583756Y-20777465D01*
X47515739Y-20686605D01*
X47515734Y-20686600D01*
X47435482Y-20606347D01*
X47434315Y-20605094D01*
X47416022Y-20583983D01*
X47416019Y-20583979D01*
X47394894Y-20565674D01*
X47393649Y-20564514D01*
X47313399Y-20484265D01*
X47313394Y-20484260D01*
X47268295Y-20450499D01*
X47222531Y-20416240D01*
X47221198Y-20415165D01*
X47200087Y-20396874D01*
X47200088Y-20396874D01*
X47200085Y-20396872D01*
X47193546Y-20392669D01*
X47176581Y-20381765D01*
X47175176Y-20380789D01*
X47084323Y-20312779D01*
X47084312Y-20312772D01*
X46984699Y-20258378D01*
X46983226Y-20257504D01*
X46959726Y-20242401D01*
X46959719Y-20242398D01*
X46934303Y-20230790D01*
X46932771Y-20230023D01*
X46833165Y-20175634D01*
X46726813Y-20135966D01*
X46725230Y-20135310D01*
X46699824Y-20123708D01*
X46699825Y-20123708D01*
X46699820Y-20123706D01*
X46679600Y-20117768D01*
X46673008Y-20115833D01*
X46671384Y-20115292D01*
X46565043Y-20075629D01*
X46565039Y-20075628D01*
X46454134Y-20051501D01*
X46452475Y-20051078D01*
X46425673Y-20043209D01*
X46425670Y-20043208D01*
X46398014Y-20039231D01*
X46396330Y-20038927D01*
X46285427Y-20014803D01*
X46285423Y-20014802D01*
X46172219Y-20006706D01*
X46170516Y-20006523D01*
X46142861Y-20002547D01*
X46142860Y-20002547D01*
X46114923Y-20002547D01*
X46113211Y-20002486D01*
X45999999Y-19994389D01*
X45886787Y-20002486D01*
X45885075Y-20002547D01*
X45857137Y-20002547D01*
X45829481Y-20006523D01*
X45827778Y-20006706D01*
X45714574Y-20014802D01*
X45714570Y-20014803D01*
X45603666Y-20038927D01*
X45601982Y-20039231D01*
X45574327Y-20043208D01*
X45574320Y-20043210D01*
X45547507Y-20051082D01*
X45545849Y-20051505D01*
X45434958Y-20075628D01*
X45434954Y-20075629D01*
X45328612Y-20115292D01*
X45326988Y-20115832D01*
X45300185Y-20123703D01*
X45300180Y-20123705D01*
X45274770Y-20135309D01*
X45273189Y-20135964D01*
X45166830Y-20175635D01*
X45067230Y-20230020D01*
X45065700Y-20230786D01*
X45040279Y-20242397D01*
X45040274Y-20242400D01*
X45016759Y-20257510D01*
X45015287Y-20258383D01*
X44915685Y-20312772D01*
X44915674Y-20312779D01*
X44824829Y-20380784D01*
X44823424Y-20381760D01*
X44799910Y-20396873D01*
X44778804Y-20415162D01*
X44777471Y-20416237D01*
X44686604Y-20484259D01*
X44686599Y-20484264D01*
X44606354Y-20564508D01*
X44605102Y-20565674D01*
X44583984Y-20583974D01*
X44583974Y-20583984D01*
X44565674Y-20605102D01*
X44564508Y-20606354D01*
X44484264Y-20686599D01*
X44484259Y-20686604D01*
X44416237Y-20777471D01*
X44415162Y-20778804D01*
X44396873Y-20799910D01*
X44381760Y-20823424D01*
X44380784Y-20824829D01*
X44312779Y-20915674D01*
X44312772Y-20915685D01*
X44258383Y-21015287D01*
X44257510Y-21016759D01*
X44242400Y-21040274D01*
X44242397Y-21040279D01*
X44230786Y-21065700D01*
X44230020Y-21067230D01*
X44175635Y-21166830D01*
X44135964Y-21273189D01*
X44135309Y-21274770D01*
X44123705Y-21300180D01*
X44123703Y-21300185D01*
X44115832Y-21326988D01*
X44115292Y-21328612D01*
X44075629Y-21434954D01*
X44075628Y-21434958D01*
X44051505Y-21545849D01*
X44051082Y-21547507D01*
X44043210Y-21574320D01*
X44043208Y-21574327D01*
X44039231Y-21601982D01*
X44038927Y-21603666D01*
X44014803Y-21714570D01*
X44014802Y-21714574D01*
X44006706Y-21827778D01*
X44006523Y-21829481D01*
X44002547Y-21857137D01*
X44002547Y-21885074D01*
X44002486Y-21886786D01*
X43994389Y-21999999D01*
X13538585Y-21999999D01*
X13426561Y-21897875D01*
X13310214Y-21825837D01*
X13237401Y-21780753D01*
X13237399Y-21780752D01*
X13237398Y-21780751D01*
X13029940Y-21700382D01*
X12811243Y-21659500D01*
X12588757Y-21659500D01*
X12370059Y-21700382D01*
X12162601Y-21780751D01*
X12162600Y-21780752D01*
X11973438Y-21897875D01*
X11809019Y-22047763D01*
X11809014Y-22047768D01*
X11674944Y-22225306D01*
X11575771Y-22424472D01*
X11514885Y-22638463D01*
X11511833Y-22671405D01*
X11494357Y-22860000D01*
X10660000Y-22860000D01*
X10660000Y-22788111D01*
X10619493Y-22650156D01*
X10561554Y-22560000D01*
X11322269Y-22560000D01*
X11283759Y-22424650D01*
X11184629Y-22225570D01*
X11050614Y-22048106D01*
X11050609Y-22048101D01*
X10886259Y-21898276D01*
X10697185Y-21781206D01*
X10697174Y-21781201D01*
X10489802Y-21700864D01*
X10460000Y-21695292D01*
X10460000Y-22458356D01*
X10433100Y-22435048D01*
X10302315Y-22375320D01*
X10195763Y-22360000D01*
X10124237Y-22360000D01*
X10017685Y-22375320D01*
X9886900Y-22435048D01*
X9860000Y-22458356D01*
X9860000Y-21695292D01*
X9830197Y-21700864D01*
X9622825Y-21781201D01*
X9622814Y-21781206D01*
X9433740Y-21898276D01*
X9269390Y-22048101D01*
X9269385Y-22048106D01*
X9135370Y-22225570D01*
X9036240Y-22424650D01*
X8997731Y-22560000D01*
X9758446Y-22560000D01*
X9700507Y-22650156D01*
X9660000Y-22788111D01*
X9660000Y-22931889D01*
X9700507Y-23069844D01*
X9758446Y-23160000D01*
X8997731Y-23160000D01*
X499Y-23160000D01*
X499Y-20320000D01*
X8954357Y-20320000D01*
X8974885Y-20541536D01*
X9035771Y-20755528D01*
X9070272Y-20824815D01*
X9134944Y-20954693D01*
X9269014Y-21132231D01*
X9269019Y-21132236D01*
X9433438Y-21282124D01*
X9622599Y-21399247D01*
X9622600Y-21399247D01*
X9622601Y-21399248D01*
X9678364Y-21420850D01*
X9830060Y-21479618D01*
X10048757Y-21520500D01*
X10271243Y-21520500D01*
X10489940Y-21479618D01*
X10697401Y-21399247D01*
X10886562Y-21282124D01*
X11050981Y-21132236D01*
X11185058Y-20954689D01*
X11284229Y-20755528D01*
X11345115Y-20541536D01*
X11365643Y-20320000D01*
X11494357Y-20320000D01*
X11514885Y-20541536D01*
X11575771Y-20755528D01*
X11610272Y-20824815D01*
X11674944Y-20954693D01*
X11809014Y-21132231D01*
X11809019Y-21132236D01*
X11973438Y-21282124D01*
X12162599Y-21399247D01*
X12162600Y-21399247D01*
X12162601Y-21399248D01*
X12218364Y-21420850D01*
X12370060Y-21479618D01*
X12588757Y-21520500D01*
X12811243Y-21520500D01*
X13029940Y-21479618D01*
X13237401Y-21399247D01*
X13426562Y-21282124D01*
X13590981Y-21132236D01*
X13725058Y-20954689D01*
X13824229Y-20755528D01*
X13885115Y-20541536D01*
X13905643Y-20320000D01*
X13885115Y-20098464D01*
X13824229Y-19884472D01*
X13725058Y-19685311D01*
X13725056Y-19685309D01*
X13725055Y-19685306D01*
X13590985Y-19507768D01*
X13590980Y-19507763D01*
X13472770Y-19400000D01*
X50069340Y-19400000D01*
X50089936Y-19635409D01*
X50151095Y-19863662D01*
X50250960Y-20077823D01*
X50250962Y-20077826D01*
X50250964Y-20077830D01*
X50386504Y-20271401D01*
X50553598Y-20438495D01*
X50747169Y-20574035D01*
X50747174Y-20574037D01*
X50747175Y-20574038D01*
X50813775Y-20605094D01*
X50961336Y-20673903D01*
X51189591Y-20735063D01*
X51424999Y-20755659D01*
X51660407Y-20735063D01*
X51888662Y-20673903D01*
X52102829Y-20574035D01*
X52296400Y-20438495D01*
X52463494Y-20271401D01*
X52470963Y-20260733D01*
X52486456Y-20250865D01*
X52490623Y-20250500D01*
X53388564Y-20250500D01*
X53405535Y-20257529D01*
X53407598Y-20259883D01*
X53421717Y-20278282D01*
X53547158Y-20374536D01*
X53547163Y-20374538D01*
X53693231Y-20435042D01*
X53693233Y-20435042D01*
X53693237Y-20435044D01*
X53810638Y-20450500D01*
X54539359Y-20450499D01*
X54656761Y-20435044D01*
X54802840Y-20374536D01*
X54928281Y-20278282D01*
X55024535Y-20152841D01*
X55085043Y-20006762D01*
X55100499Y-19889361D01*
X55100499Y-19889318D01*
X55300000Y-19889318D01*
X55315443Y-20006631D01*
X55315444Y-20006636D01*
X55375897Y-20152583D01*
X55375903Y-20152594D01*
X55472068Y-20277918D01*
X55472080Y-20277930D01*
X55597404Y-20374095D01*
X55597415Y-20374101D01*
X55743362Y-20434554D01*
X55743366Y-20434555D01*
X55860680Y-20449999D01*
X55924997Y-20449999D01*
X55924999Y-20449998D01*
X56524999Y-20449998D01*
X56525000Y-20449999D01*
X56589318Y-20449999D01*
X56706630Y-20434555D01*
X56706635Y-20434554D01*
X56852582Y-20374101D01*
X56852593Y-20374095D01*
X56977917Y-20277930D01*
X56977929Y-20277918D01*
X57074094Y-20152594D01*
X57074100Y-20152583D01*
X57134553Y-20006636D01*
X57134554Y-20006632D01*
X57149999Y-19889318D01*
X57149999Y-19700001D01*
X57149998Y-19700000D01*
X56525000Y-19700000D01*
X56524999Y-19700001D01*
X56524999Y-20449998D01*
X55924999Y-20449998D01*
X55924999Y-19700001D01*
X55924998Y-19700000D01*
X55300001Y-19700000D01*
X55300000Y-19700001D01*
X55300000Y-19889318D01*
X55100499Y-19889318D01*
X55100498Y-19099999D01*
X55299999Y-19099999D01*
X55300000Y-19100000D01*
X55924998Y-19100000D01*
X55924999Y-19099999D01*
X56524999Y-19099999D01*
X56525000Y-19100000D01*
X57149997Y-19100000D01*
X57149998Y-19099999D01*
X57149998Y-18910681D01*
X57134554Y-18793368D01*
X57134553Y-18793363D01*
X57074100Y-18647416D01*
X57074094Y-18647405D01*
X56977929Y-18522081D01*
X56977917Y-18522069D01*
X56852593Y-18425904D01*
X56852582Y-18425898D01*
X56706635Y-18365445D01*
X56706631Y-18365444D01*
X56589318Y-18350000D01*
X56525000Y-18350000D01*
X56524999Y-18350001D01*
X56524999Y-19099999D01*
X55924999Y-19099999D01*
X55924999Y-18350001D01*
X55924998Y-18350000D01*
X55860680Y-18350000D01*
X55743367Y-18365444D01*
X55743362Y-18365445D01*
X55597415Y-18425898D01*
X55597404Y-18425904D01*
X55472080Y-18522069D01*
X55472068Y-18522081D01*
X55375903Y-18647405D01*
X55375897Y-18647416D01*
X55315444Y-18793363D01*
X55315443Y-18793367D01*
X55299999Y-18910681D01*
X55299999Y-19099999D01*
X55100498Y-19099999D01*
X55100498Y-18910640D01*
X55085043Y-18793238D01*
X55024535Y-18647159D01*
X54928281Y-18521718D01*
X54802840Y-18425464D01*
X54802834Y-18425461D01*
X54656766Y-18364957D01*
X54656762Y-18364956D01*
X54637194Y-18362380D01*
X54539360Y-18349500D01*
X54539355Y-18349500D01*
X53810643Y-18349500D01*
X53693236Y-18364956D01*
X53693231Y-18364957D01*
X53547163Y-18425461D01*
X53547157Y-18425464D01*
X53421719Y-18521716D01*
X53421715Y-18521720D01*
X53421438Y-18522081D01*
X53407603Y-18540110D01*
X53391697Y-18549295D01*
X53388564Y-18549500D01*
X52490623Y-18549500D01*
X52473652Y-18542471D01*
X52470963Y-18539266D01*
X52463493Y-18528598D01*
X52296400Y-18361505D01*
X52102829Y-18225965D01*
X52102825Y-18225963D01*
X52102822Y-18225961D01*
X51888661Y-18126096D01*
X51660407Y-18064937D01*
X51660409Y-18064937D01*
X51424999Y-18044341D01*
X51189589Y-18064937D01*
X50961336Y-18126096D01*
X50747176Y-18225961D01*
X50553597Y-18361505D01*
X50386504Y-18528598D01*
X50250960Y-18722177D01*
X50151095Y-18936337D01*
X50089936Y-19164590D01*
X50069340Y-19400000D01*
X13472770Y-19400000D01*
X13426561Y-19357875D01*
X13237399Y-19240752D01*
X13237398Y-19240751D01*
X13029940Y-19160382D01*
X12811243Y-19119500D01*
X12588757Y-19119500D01*
X12370059Y-19160382D01*
X12162601Y-19240751D01*
X12162600Y-19240752D01*
X11973438Y-19357875D01*
X11809019Y-19507763D01*
X11809014Y-19507768D01*
X11674944Y-19685306D01*
X11575771Y-19884472D01*
X11514885Y-20098463D01*
X11513096Y-20117768D01*
X11494357Y-20320000D01*
X11365643Y-20320000D01*
X11345115Y-20098464D01*
X11284229Y-19884472D01*
X11185058Y-19685311D01*
X11185056Y-19685309D01*
X11185055Y-19685306D01*
X11050985Y-19507768D01*
X11050980Y-19507763D01*
X10886561Y-19357875D01*
X10697399Y-19240752D01*
X10697398Y-19240751D01*
X10489940Y-19160382D01*
X10271243Y-19119500D01*
X10048757Y-19119500D01*
X9830059Y-19160382D01*
X9622601Y-19240751D01*
X9622600Y-19240752D01*
X9433438Y-19357875D01*
X9269019Y-19507763D01*
X9269014Y-19507768D01*
X9134944Y-19685306D01*
X9035771Y-19884472D01*
X8974885Y-20098463D01*
X8973096Y-20117768D01*
X8954357Y-20320000D01*
X499Y-20320000D01*
X499Y-19013263D01*
X16229500Y-19013263D01*
X16239425Y-19081390D01*
X16239426Y-19081391D01*
X16290800Y-19186480D01*
X16290801Y-19186481D01*
X16290802Y-19186483D01*
X16373517Y-19269198D01*
X16478607Y-19320573D01*
X16478608Y-19320573D01*
X16478609Y-19320574D01*
X16521489Y-19326820D01*
X16546740Y-19330500D01*
X16546746Y-19330500D01*
X19013254Y-19330500D01*
X19013260Y-19330500D01*
X19047326Y-19325536D01*
X19081390Y-19320574D01*
X19081390Y-19320573D01*
X19081393Y-19320573D01*
X19186483Y-19269198D01*
X19269198Y-19186483D01*
X19320573Y-19081393D01*
X19320573Y-19081390D01*
X19320574Y-19081390D01*
X19326857Y-19038261D01*
X19330500Y-19013260D01*
X19330500Y-17780000D01*
X19724706Y-17780000D01*
X19743853Y-18023296D01*
X19743854Y-18023305D01*
X19800827Y-18260610D01*
X19800828Y-18260614D01*
X19894221Y-18486086D01*
X19894224Y-18486091D01*
X20021736Y-18694173D01*
X20021738Y-18694175D01*
X20021739Y-18694177D01*
X20021741Y-18694179D01*
X20180241Y-18879759D01*
X20365821Y-19038259D01*
X20365823Y-19038260D01*
X20365824Y-19038261D01*
X20365826Y-19038263D01*
X20498394Y-19119500D01*
X20571977Y-19164592D01*
X20573908Y-19165775D01*
X20573913Y-19165778D01*
X20799385Y-19259171D01*
X20799386Y-19259171D01*
X20799388Y-19259172D01*
X21036698Y-19316146D01*
X21280000Y-19335294D01*
X21523302Y-19316146D01*
X21760612Y-19259172D01*
X21986089Y-19165777D01*
X22132902Y-19075809D01*
X22194173Y-19038263D01*
X22194173Y-19038262D01*
X22194179Y-19038259D01*
X22379759Y-18879759D01*
X22538259Y-18694179D01*
X22566916Y-18647416D01*
X22600733Y-18592231D01*
X22665777Y-18486089D01*
X22759172Y-18260612D01*
X22816146Y-18023302D01*
X22835294Y-17780000D01*
X22833683Y-17759536D01*
X22826108Y-17663279D01*
X22816146Y-17536698D01*
X22759172Y-17299388D01*
X22748803Y-17274356D01*
X22748803Y-17274355D01*
X30549500Y-17274355D01*
X30564956Y-17391762D01*
X30564957Y-17391767D01*
X30625461Y-17537835D01*
X30625464Y-17537841D01*
X30721718Y-17663282D01*
X30847159Y-17759536D01*
X30847164Y-17759538D01*
X30993232Y-17820042D01*
X30993234Y-17820042D01*
X30993238Y-17820044D01*
X31110639Y-17835500D01*
X32389360Y-17835499D01*
X32506762Y-17820044D01*
X32652841Y-17759536D01*
X32778282Y-17663282D01*
X32874536Y-17537841D01*
X32935044Y-17391762D01*
X32950500Y-17274361D01*
X32950500Y-16690506D01*
X33049500Y-16690506D01*
X33050450Y-16700753D01*
X33064885Y-16856536D01*
X33125771Y-17070528D01*
X33163009Y-17145311D01*
X33224944Y-17269693D01*
X33359014Y-17447231D01*
X33359019Y-17447236D01*
X33523438Y-17597124D01*
X33712599Y-17714247D01*
X33712600Y-17714247D01*
X33712601Y-17714248D01*
X33768364Y-17735850D01*
X33920060Y-17794618D01*
X34138757Y-17835500D01*
X34361243Y-17835500D01*
X34579940Y-17794618D01*
X34787401Y-17714247D01*
X34976562Y-17597124D01*
X35140981Y-17447236D01*
X35275058Y-17269689D01*
X35374229Y-17070528D01*
X35435115Y-16856536D01*
X35450500Y-16690506D01*
X35549500Y-16690506D01*
X35550450Y-16700753D01*
X35564885Y-16856536D01*
X35625771Y-17070528D01*
X35663009Y-17145311D01*
X35724944Y-17269693D01*
X35859014Y-17447231D01*
X35859019Y-17447236D01*
X36023438Y-17597124D01*
X36212599Y-17714247D01*
X36212600Y-17714247D01*
X36212601Y-17714248D01*
X36268364Y-17735850D01*
X36420060Y-17794618D01*
X36638757Y-17835500D01*
X36861243Y-17835500D01*
X37079940Y-17794618D01*
X37287401Y-17714247D01*
X37476562Y-17597124D01*
X37640981Y-17447236D01*
X37775058Y-17269689D01*
X37874229Y-17070528D01*
X37935115Y-16856536D01*
X37950500Y-16690506D01*
X38049500Y-16690506D01*
X38050450Y-16700753D01*
X38064885Y-16856536D01*
X38125771Y-17070528D01*
X38163009Y-17145311D01*
X38224944Y-17269693D01*
X38359014Y-17447231D01*
X38359019Y-17447236D01*
X38523438Y-17597124D01*
X38712599Y-17714247D01*
X38712600Y-17714247D01*
X38712601Y-17714248D01*
X38768364Y-17735850D01*
X38920060Y-17794618D01*
X39138757Y-17835500D01*
X39361243Y-17835500D01*
X39579940Y-17794618D01*
X39787401Y-17714247D01*
X39976562Y-17597124D01*
X40140981Y-17447236D01*
X40275058Y-17269689D01*
X40374229Y-17070528D01*
X40435115Y-16856536D01*
X40450500Y-16690503D01*
X40450500Y-16329497D01*
X40435115Y-16163464D01*
X40374229Y-15949472D01*
X40275058Y-15750311D01*
X40275056Y-15750309D01*
X40275055Y-15750306D01*
X40140985Y-15572768D01*
X40140980Y-15572763D01*
X39976561Y-15422875D01*
X39787399Y-15305752D01*
X39787398Y-15305751D01*
X39579940Y-15225382D01*
X39361243Y-15184500D01*
X39138757Y-15184500D01*
X38920059Y-15225382D01*
X38712601Y-15305751D01*
X38712600Y-15305752D01*
X38523438Y-15422875D01*
X38359019Y-15572763D01*
X38359014Y-15572768D01*
X38224944Y-15750306D01*
X38125771Y-15949472D01*
X38064885Y-16163463D01*
X38049500Y-16329493D01*
X38049500Y-16690506D01*
X37950500Y-16690506D01*
X37950500Y-16690503D01*
X37950500Y-16329497D01*
X37935115Y-16163464D01*
X37874229Y-15949472D01*
X37775058Y-15750311D01*
X37775056Y-15750309D01*
X37775055Y-15750306D01*
X37640985Y-15572768D01*
X37640980Y-15572763D01*
X37476561Y-15422875D01*
X37287399Y-15305752D01*
X37287398Y-15305751D01*
X37079940Y-15225382D01*
X36861243Y-15184500D01*
X36638757Y-15184500D01*
X36420059Y-15225382D01*
X36212601Y-15305751D01*
X36212600Y-15305752D01*
X36023438Y-15422875D01*
X35859019Y-15572763D01*
X35859014Y-15572768D01*
X35724944Y-15750306D01*
X35625771Y-15949472D01*
X35564885Y-16163463D01*
X35549500Y-16329493D01*
X35549500Y-16690506D01*
X35450500Y-16690506D01*
X35450500Y-16690503D01*
X35450500Y-16329497D01*
X35435115Y-16163464D01*
X35374229Y-15949472D01*
X35275058Y-15750311D01*
X35275056Y-15750309D01*
X35275055Y-15750306D01*
X35140985Y-15572768D01*
X35140980Y-15572763D01*
X34976561Y-15422875D01*
X34787399Y-15305752D01*
X34787398Y-15305751D01*
X34579940Y-15225382D01*
X34361243Y-15184500D01*
X34138757Y-15184500D01*
X33920059Y-15225382D01*
X33712601Y-15305751D01*
X33712600Y-15305752D01*
X33523438Y-15422875D01*
X33359019Y-15572763D01*
X33359014Y-15572768D01*
X33224944Y-15750306D01*
X33125771Y-15949472D01*
X33064885Y-16163463D01*
X33049500Y-16329493D01*
X33049500Y-16690506D01*
X32950500Y-16690506D01*
X32950499Y-15745640D01*
X32935044Y-15628238D01*
X32912065Y-15572763D01*
X32874538Y-15482164D01*
X32874535Y-15482158D01*
X32858711Y-15461536D01*
X32778282Y-15356718D01*
X32652841Y-15260464D01*
X32652835Y-15260461D01*
X32506767Y-15199957D01*
X32506763Y-15199956D01*
X32487195Y-15197380D01*
X32389361Y-15184500D01*
X32389356Y-15184500D01*
X31110644Y-15184500D01*
X30993237Y-15199956D01*
X30993232Y-15199957D01*
X30847164Y-15260461D01*
X30847158Y-15260464D01*
X30721720Y-15356716D01*
X30721716Y-15356720D01*
X30625464Y-15482158D01*
X30625461Y-15482164D01*
X30564957Y-15628232D01*
X30564956Y-15628236D01*
X30564956Y-15628237D01*
X30564956Y-15628238D01*
X30549500Y-15745639D01*
X30549500Y-15745640D01*
X30549500Y-15745643D01*
X30549500Y-17274355D01*
X22748803Y-17274355D01*
X22665778Y-17073913D01*
X22665775Y-17073908D01*
X22538263Y-16865826D01*
X22538261Y-16865824D01*
X22538260Y-16865823D01*
X22538259Y-16865821D01*
X22379759Y-16680241D01*
X22194179Y-16521741D01*
X22194177Y-16521739D01*
X22194175Y-16521738D01*
X22194173Y-16521736D01*
X21986091Y-16394224D01*
X21986086Y-16394221D01*
X21760614Y-16300828D01*
X21760610Y-16300827D01*
X21523305Y-16243854D01*
X21523296Y-16243853D01*
X21280000Y-16224706D01*
X21036703Y-16243853D01*
X21036694Y-16243854D01*
X20799389Y-16300827D01*
X20799385Y-16300828D01*
X20573913Y-16394221D01*
X20573908Y-16394224D01*
X20365826Y-16521736D01*
X20365824Y-16521738D01*
X20180243Y-16680239D01*
X20180239Y-16680243D01*
X20021738Y-16865824D01*
X20021736Y-16865826D01*
X19894224Y-17073908D01*
X19894221Y-17073913D01*
X19800828Y-17299385D01*
X19800827Y-17299389D01*
X19743854Y-17536694D01*
X19743853Y-17536703D01*
X19724706Y-17779999D01*
X19724706Y-17780000D01*
X19330500Y-17780000D01*
X19330500Y-16546740D01*
X19326820Y-16521489D01*
X19320574Y-16478609D01*
X19320573Y-16478608D01*
X19301943Y-16440500D01*
X19269198Y-16373517D01*
X19186483Y-16290802D01*
X19186481Y-16290801D01*
X19186480Y-16290800D01*
X19081391Y-16239426D01*
X19081390Y-16239425D01*
X19013263Y-16229500D01*
X19013260Y-16229500D01*
X16546740Y-16229500D01*
X16546736Y-16229500D01*
X16478609Y-16239425D01*
X16478608Y-16239426D01*
X16373519Y-16290800D01*
X16290800Y-16373519D01*
X16239426Y-16478608D01*
X16239425Y-16478609D01*
X16229500Y-16546736D01*
X16229500Y-19013263D01*
X499Y-19013263D01*
X499Y-17780000D01*
X8954357Y-17780000D01*
X8974885Y-18001536D01*
X9035771Y-18215528D01*
X9102482Y-18349500D01*
X9134944Y-18414693D01*
X9269014Y-18592231D01*
X9269019Y-18592236D01*
X9433438Y-18742124D01*
X9622599Y-18859247D01*
X9622600Y-18859247D01*
X9622601Y-18859248D01*
X9675539Y-18879756D01*
X9830060Y-18939618D01*
X10048757Y-18980500D01*
X10271243Y-18980500D01*
X10489940Y-18939618D01*
X10697401Y-18859247D01*
X10886562Y-18742124D01*
X11050981Y-18592236D01*
X11083409Y-18549295D01*
X11185055Y-18414693D01*
X11185055Y-18414692D01*
X11185058Y-18414689D01*
X11284229Y-18215528D01*
X11345115Y-18001536D01*
X11365643Y-17780000D01*
X11494357Y-17780000D01*
X11514885Y-18001536D01*
X11575771Y-18215528D01*
X11642482Y-18349500D01*
X11674944Y-18414693D01*
X11809014Y-18592231D01*
X11809019Y-18592236D01*
X11973438Y-18742124D01*
X12162599Y-18859247D01*
X12162600Y-18859247D01*
X12162601Y-18859248D01*
X12215539Y-18879756D01*
X12370060Y-18939618D01*
X12588757Y-18980500D01*
X12811243Y-18980500D01*
X13029940Y-18939618D01*
X13237401Y-18859247D01*
X13426562Y-18742124D01*
X13590981Y-18592236D01*
X13623409Y-18549295D01*
X13725055Y-18414693D01*
X13725055Y-18414692D01*
X13725058Y-18414689D01*
X13824229Y-18215528D01*
X13885115Y-18001536D01*
X13905643Y-17780000D01*
X13885115Y-17558464D01*
X13824229Y-17344472D01*
X13725058Y-17145311D01*
X13725056Y-17145309D01*
X13725055Y-17145306D01*
X13590985Y-16967768D01*
X13590980Y-16967763D01*
X13426561Y-16817875D01*
X13237399Y-16700752D01*
X13237398Y-16700751D01*
X13029940Y-16620382D01*
X12811243Y-16579500D01*
X12588757Y-16579500D01*
X12370059Y-16620382D01*
X12162601Y-16700751D01*
X12162600Y-16700752D01*
X11973438Y-16817875D01*
X11809019Y-16967763D01*
X11809014Y-16967768D01*
X11674944Y-17145306D01*
X11575771Y-17344472D01*
X11520753Y-17537841D01*
X11514885Y-17558464D01*
X11494357Y-17780000D01*
X11365643Y-17780000D01*
X11345115Y-17558464D01*
X11284229Y-17344472D01*
X11185058Y-17145311D01*
X11185056Y-17145309D01*
X11185055Y-17145306D01*
X11050985Y-16967768D01*
X11050980Y-16967763D01*
X10886561Y-16817875D01*
X10697399Y-16700752D01*
X10697398Y-16700751D01*
X10489940Y-16620382D01*
X10271243Y-16579500D01*
X10048757Y-16579500D01*
X9830059Y-16620382D01*
X9622601Y-16700751D01*
X9622600Y-16700752D01*
X9433438Y-16817875D01*
X9269019Y-16967763D01*
X9269014Y-16967768D01*
X9134944Y-17145306D01*
X9035771Y-17344472D01*
X8980753Y-17537841D01*
X8974885Y-17558464D01*
X8954357Y-17780000D01*
X499Y-17780000D01*
X499Y-15240000D01*
X8954357Y-15240000D01*
X8974885Y-15461536D01*
X9035771Y-15675528D01*
X9073009Y-15750311D01*
X9134944Y-15874693D01*
X9269014Y-16052231D01*
X9269019Y-16052236D01*
X9433438Y-16202124D01*
X9622599Y-16319247D01*
X9622600Y-16319247D01*
X9622601Y-16319248D01*
X9678364Y-16340850D01*
X9830060Y-16399618D01*
X10048757Y-16440500D01*
X10271243Y-16440500D01*
X10489940Y-16399618D01*
X10697401Y-16319247D01*
X10886562Y-16202124D01*
X11050981Y-16052236D01*
X11185058Y-15874689D01*
X11284229Y-15675528D01*
X11345115Y-15461536D01*
X11365643Y-15240000D01*
X11494357Y-15240000D01*
X11514885Y-15461536D01*
X11575771Y-15675528D01*
X11613009Y-15750311D01*
X11674944Y-15874693D01*
X11809014Y-16052231D01*
X11809019Y-16052236D01*
X11973438Y-16202124D01*
X12162599Y-16319247D01*
X12162600Y-16319247D01*
X12162601Y-16319248D01*
X12218364Y-16340850D01*
X12370060Y-16399618D01*
X12588757Y-16440500D01*
X12811243Y-16440500D01*
X13029940Y-16399618D01*
X13237401Y-16319247D01*
X13426562Y-16202124D01*
X13590981Y-16052236D01*
X13725058Y-15874689D01*
X13824229Y-15675528D01*
X13885115Y-15461536D01*
X13905643Y-15240000D01*
X13885115Y-15018464D01*
X13824229Y-14804472D01*
X13789315Y-14734355D01*
X45789500Y-14734355D01*
X45804956Y-14851762D01*
X45804957Y-14851767D01*
X45865461Y-14997835D01*
X45865464Y-14997841D01*
X45961718Y-15123282D01*
X46087159Y-15219536D01*
X46105823Y-15227267D01*
X46233232Y-15280042D01*
X46233234Y-15280042D01*
X46233238Y-15280044D01*
X46350639Y-15295500D01*
X47629360Y-15295499D01*
X47746762Y-15280044D01*
X47892841Y-15219536D01*
X48018282Y-15123282D01*
X48114536Y-14997841D01*
X48175044Y-14851762D01*
X48190500Y-14734361D01*
X48190499Y-13670000D01*
X48301075Y-13670000D01*
X49118164Y-13670000D01*
X49053481Y-13770649D01*
X49015000Y-13901705D01*
X49015000Y-14038295D01*
X49053481Y-14169351D01*
X49118164Y-14270000D01*
X48301076Y-14270000D01*
X48305379Y-14316444D01*
X48366240Y-14530349D01*
X48465370Y-14729429D01*
X48599385Y-14906893D01*
X48599390Y-14906898D01*
X48763740Y-15056723D01*
X48952814Y-15173793D01*
X48952825Y-15173798D01*
X49160197Y-15254135D01*
X49190000Y-15259705D01*
X49190000Y-14338564D01*
X49230555Y-14373705D01*
X49354801Y-14430446D01*
X49456025Y-14445000D01*
X49523975Y-14445000D01*
X49625199Y-14430446D01*
X49749445Y-14373705D01*
X49790000Y-14338564D01*
X49790000Y-15259704D01*
X49819802Y-15254135D01*
X50027174Y-15173798D01*
X50027185Y-15173793D01*
X50216259Y-15056723D01*
X50380609Y-14906898D01*
X50380614Y-14906893D01*
X50514629Y-14729429D01*
X50613759Y-14530349D01*
X50674620Y-14316444D01*
X50678924Y-14270000D01*
X49861836Y-14270000D01*
X49926519Y-14169351D01*
X49932052Y-14150506D01*
X50789500Y-14150506D01*
X50790450Y-14160753D01*
X50804885Y-14316536D01*
X50865771Y-14530528D01*
X50903009Y-14605311D01*
X50964944Y-14729693D01*
X51099014Y-14907231D01*
X51099019Y-14907236D01*
X51263438Y-15057124D01*
X51452599Y-15174247D01*
X51452600Y-15174247D01*
X51452601Y-15174248D01*
X51508364Y-15195850D01*
X51660060Y-15254618D01*
X51878757Y-15295500D01*
X52101243Y-15295500D01*
X52319940Y-15254618D01*
X52527401Y-15174247D01*
X52716562Y-15057124D01*
X52880981Y-14907236D01*
X53015058Y-14729689D01*
X53114229Y-14530528D01*
X53175115Y-14316536D01*
X53190500Y-14150506D01*
X53289500Y-14150506D01*
X53290450Y-14160753D01*
X53304885Y-14316536D01*
X53365771Y-14530528D01*
X53403009Y-14605311D01*
X53464944Y-14729693D01*
X53599014Y-14907231D01*
X53599019Y-14907236D01*
X53763438Y-15057124D01*
X53952599Y-15174247D01*
X53952600Y-15174247D01*
X53952601Y-15174248D01*
X54008364Y-15195850D01*
X54160060Y-15254618D01*
X54378757Y-15295500D01*
X54601243Y-15295500D01*
X54819940Y-15254618D01*
X55027401Y-15174247D01*
X55216562Y-15057124D01*
X55380981Y-14907236D01*
X55515058Y-14729689D01*
X55614229Y-14530528D01*
X55675115Y-14316536D01*
X55690500Y-14150506D01*
X55789500Y-14150506D01*
X55790450Y-14160753D01*
X55804885Y-14316536D01*
X55865771Y-14530528D01*
X55903009Y-14605311D01*
X55964944Y-14729693D01*
X56099014Y-14907231D01*
X56099019Y-14907236D01*
X56263438Y-15057124D01*
X56452599Y-15174247D01*
X56452600Y-15174247D01*
X56452601Y-15174248D01*
X56508364Y-15195850D01*
X56660060Y-15254618D01*
X56878757Y-15295500D01*
X57101243Y-15295500D01*
X57319940Y-15254618D01*
X57527401Y-15174247D01*
X57716562Y-15057124D01*
X57880981Y-14907236D01*
X58015058Y-14729689D01*
X58114229Y-14530528D01*
X58175115Y-14316536D01*
X58190500Y-14150503D01*
X58190500Y-13789497D01*
X58175115Y-13623464D01*
X58114229Y-13409472D01*
X58015058Y-13210311D01*
X58015056Y-13210309D01*
X58015055Y-13210306D01*
X57880985Y-13032768D01*
X57880980Y-13032763D01*
X57716561Y-12882875D01*
X57600214Y-12810837D01*
X57527401Y-12765753D01*
X57527399Y-12765752D01*
X57527398Y-12765751D01*
X57319940Y-12685382D01*
X57101243Y-12644500D01*
X56878757Y-12644500D01*
X56660059Y-12685382D01*
X56452601Y-12765751D01*
X56452600Y-12765752D01*
X56263438Y-12882875D01*
X56099019Y-13032763D01*
X56099014Y-13032768D01*
X55964944Y-13210306D01*
X55865771Y-13409472D01*
X55804885Y-13623463D01*
X55789500Y-13789493D01*
X55789500Y-14150506D01*
X55690500Y-14150506D01*
X55690500Y-14150503D01*
X55690500Y-13789497D01*
X55675115Y-13623464D01*
X55614229Y-13409472D01*
X55515058Y-13210311D01*
X55515056Y-13210309D01*
X55515055Y-13210306D01*
X55380985Y-13032768D01*
X55380980Y-13032763D01*
X55216561Y-12882875D01*
X55100214Y-12810837D01*
X55027401Y-12765753D01*
X55027399Y-12765752D01*
X55027398Y-12765751D01*
X54819940Y-12685382D01*
X54601243Y-12644500D01*
X54378757Y-12644500D01*
X54160059Y-12685382D01*
X53952601Y-12765751D01*
X53952600Y-12765752D01*
X53763438Y-12882875D01*
X53599019Y-13032763D01*
X53599014Y-13032768D01*
X53464944Y-13210306D01*
X53365771Y-13409472D01*
X53304885Y-13623463D01*
X53289500Y-13789493D01*
X53289500Y-14150506D01*
X53190500Y-14150506D01*
X53190500Y-14150503D01*
X53190500Y-13789497D01*
X53175115Y-13623464D01*
X53114229Y-13409472D01*
X53015058Y-13210311D01*
X53015056Y-13210309D01*
X53015055Y-13210306D01*
X52880985Y-13032768D01*
X52880980Y-13032763D01*
X52716561Y-12882875D01*
X52600214Y-12810837D01*
X52527401Y-12765753D01*
X52527399Y-12765752D01*
X52527398Y-12765751D01*
X52319940Y-12685382D01*
X52101243Y-12644500D01*
X51878757Y-12644500D01*
X51660059Y-12685382D01*
X51452601Y-12765751D01*
X51452600Y-12765752D01*
X51263438Y-12882875D01*
X51099019Y-13032763D01*
X51099014Y-13032768D01*
X50964944Y-13210306D01*
X50865771Y-13409472D01*
X50804885Y-13623463D01*
X50789500Y-13789493D01*
X50789500Y-14150506D01*
X49932052Y-14150506D01*
X49965000Y-14038295D01*
X49965000Y-13901705D01*
X49926519Y-13770649D01*
X49861836Y-13670000D01*
X50678924Y-13670000D01*
X50674620Y-13623555D01*
X50613759Y-13409650D01*
X50514629Y-13210570D01*
X50380614Y-13033106D01*
X50380609Y-13033101D01*
X50216259Y-12883276D01*
X50027185Y-12766206D01*
X50027174Y-12766201D01*
X49819802Y-12685864D01*
X49790000Y-12680292D01*
X49790000Y-13601435D01*
X49749445Y-13566295D01*
X49625199Y-13509554D01*
X49523975Y-13495000D01*
X49456025Y-13495000D01*
X49354801Y-13509554D01*
X49230555Y-13566295D01*
X49190000Y-13601435D01*
X49190000Y-12680292D01*
X49160197Y-12685864D01*
X48952825Y-12766201D01*
X48952814Y-12766206D01*
X48763740Y-12883276D01*
X48599390Y-13033101D01*
X48599385Y-13033106D01*
X48465370Y-13210570D01*
X48366240Y-13409650D01*
X48305379Y-13623555D01*
X48301075Y-13670000D01*
X48190499Y-13670000D01*
X48190499Y-13205640D01*
X48175044Y-13088238D01*
X48152205Y-13033101D01*
X48114538Y-12942164D01*
X48114535Y-12942158D01*
X48098711Y-12921536D01*
X48018282Y-12816718D01*
X47892841Y-12720464D01*
X47892835Y-12720461D01*
X47746767Y-12659957D01*
X47746763Y-12659956D01*
X47727195Y-12657380D01*
X47629361Y-12644500D01*
X47629356Y-12644500D01*
X46350644Y-12644500D01*
X46233237Y-12659956D01*
X46233232Y-12659957D01*
X46087164Y-12720461D01*
X46087158Y-12720464D01*
X45961720Y-12816716D01*
X45961716Y-12816720D01*
X45865464Y-12942158D01*
X45865461Y-12942164D01*
X45804957Y-13088232D01*
X45804956Y-13088236D01*
X45804956Y-13088237D01*
X45804956Y-13088238D01*
X45789500Y-13205639D01*
X45789500Y-13205640D01*
X45789500Y-13205643D01*
X45789500Y-14734355D01*
X13789315Y-14734355D01*
X13725058Y-14605311D01*
X13725056Y-14605309D01*
X13725055Y-14605306D01*
X13590985Y-14427768D01*
X13590980Y-14427763D01*
X13426561Y-14277875D01*
X13237399Y-14160752D01*
X13237398Y-14160751D01*
X13029940Y-14080382D01*
X12811243Y-14039500D01*
X12588757Y-14039500D01*
X12370059Y-14080382D01*
X12162601Y-14160751D01*
X12162600Y-14160752D01*
X11973438Y-14277875D01*
X11809019Y-14427763D01*
X11809014Y-14427768D01*
X11674944Y-14605306D01*
X11575771Y-14804472D01*
X11520753Y-14997841D01*
X11514885Y-15018464D01*
X11494357Y-15240000D01*
X11365643Y-15240000D01*
X11345115Y-15018464D01*
X11284229Y-14804472D01*
X11185058Y-14605311D01*
X11185056Y-14605309D01*
X11185055Y-14605306D01*
X11050985Y-14427768D01*
X11050980Y-14427763D01*
X10886561Y-14277875D01*
X10697399Y-14160752D01*
X10697398Y-14160751D01*
X10489940Y-14080382D01*
X10271243Y-14039500D01*
X10048757Y-14039500D01*
X9830059Y-14080382D01*
X9622601Y-14160751D01*
X9622600Y-14160752D01*
X9433438Y-14277875D01*
X9269019Y-14427763D01*
X9269014Y-14427768D01*
X9134944Y-14605306D01*
X9035771Y-14804472D01*
X8980753Y-14997841D01*
X8974885Y-15018464D01*
X8954357Y-15240000D01*
X499Y-15240000D01*
X499Y-12700000D01*
X8954357Y-12700000D01*
X8974885Y-12921536D01*
X9035771Y-13135528D01*
X9073009Y-13210311D01*
X9134944Y-13334693D01*
X9269014Y-13512231D01*
X9269019Y-13512236D01*
X9433438Y-13662124D01*
X9622599Y-13779247D01*
X9622600Y-13779247D01*
X9622601Y-13779248D01*
X9678364Y-13800850D01*
X9830060Y-13859618D01*
X10048757Y-13900500D01*
X10271243Y-13900500D01*
X10489940Y-13859618D01*
X10697401Y-13779247D01*
X10886562Y-13662124D01*
X11050981Y-13512236D01*
X11053007Y-13509554D01*
X11185055Y-13334693D01*
X11185055Y-13334692D01*
X11185058Y-13334689D01*
X11284229Y-13135528D01*
X11345115Y-12921536D01*
X11365643Y-12700000D01*
X11494357Y-12700000D01*
X11514885Y-12921536D01*
X11575771Y-13135528D01*
X11613009Y-13210311D01*
X11674944Y-13334693D01*
X11809014Y-13512231D01*
X11809019Y-13512236D01*
X11973438Y-13662124D01*
X12162599Y-13779247D01*
X12162600Y-13779247D01*
X12162601Y-13779248D01*
X12218364Y-13800850D01*
X12370060Y-13859618D01*
X12588757Y-13900500D01*
X12811243Y-13900500D01*
X13029940Y-13859618D01*
X13237401Y-13779247D01*
X13426562Y-13662124D01*
X13590981Y-13512236D01*
X13593007Y-13509554D01*
X13725055Y-13334693D01*
X13725055Y-13334692D01*
X13725058Y-13334689D01*
X13824229Y-13135528D01*
X13885115Y-12921536D01*
X13905643Y-12700000D01*
X13885115Y-12478464D01*
X13824229Y-12264472D01*
X13725058Y-12065311D01*
X13725056Y-12065309D01*
X13725055Y-12065306D01*
X13590985Y-11887768D01*
X13590980Y-11887763D01*
X13426561Y-11737875D01*
X13237399Y-11620752D01*
X13237398Y-11620751D01*
X13029940Y-11540382D01*
X12811243Y-11499500D01*
X12588757Y-11499500D01*
X12370059Y-11540382D01*
X12162601Y-11620751D01*
X12162600Y-11620752D01*
X11973438Y-11737875D01*
X11809019Y-11887763D01*
X11809014Y-11887768D01*
X11674944Y-12065306D01*
X11674942Y-12065311D01*
X11575771Y-12264472D01*
X11514885Y-12478464D01*
X11494357Y-12700000D01*
X11365643Y-12700000D01*
X11345115Y-12478464D01*
X11284229Y-12264472D01*
X11185058Y-12065311D01*
X11185056Y-12065309D01*
X11185055Y-12065306D01*
X11050985Y-11887768D01*
X11050980Y-11887763D01*
X10886561Y-11737875D01*
X10697399Y-11620752D01*
X10697398Y-11620751D01*
X10489940Y-11540382D01*
X10271243Y-11499500D01*
X10048757Y-11499500D01*
X9830059Y-11540382D01*
X9622601Y-11620751D01*
X9622600Y-11620752D01*
X9433438Y-11737875D01*
X9269019Y-11887763D01*
X9269014Y-11887768D01*
X9134944Y-12065306D01*
X9134942Y-12065311D01*
X9035771Y-12264472D01*
X8974885Y-12478464D01*
X8954357Y-12700000D01*
X499Y-12700000D01*
X499Y-10160000D01*
X8954357Y-10160000D01*
X8974885Y-10381536D01*
X9035771Y-10595527D01*
X9134944Y-10794693D01*
X9269014Y-10972231D01*
X9269019Y-10972236D01*
X9433438Y-11122124D01*
X9622599Y-11239247D01*
X9622600Y-11239247D01*
X9622601Y-11239248D01*
X9678364Y-11260850D01*
X9830060Y-11319618D01*
X10048757Y-11360500D01*
X10271243Y-11360500D01*
X10489940Y-11319618D01*
X10697401Y-11239247D01*
X10886562Y-11122124D01*
X11050981Y-10972236D01*
X11185058Y-10794689D01*
X11284229Y-10595528D01*
X11345115Y-10381536D01*
X11365643Y-10160000D01*
X11494357Y-10160000D01*
X11514885Y-10381536D01*
X11575771Y-10595527D01*
X11674944Y-10794693D01*
X11809014Y-10972231D01*
X11809019Y-10972236D01*
X11973438Y-11122124D01*
X12162599Y-11239247D01*
X12162600Y-11239247D01*
X12162601Y-11239248D01*
X12218364Y-11260850D01*
X12370060Y-11319618D01*
X12588757Y-11360500D01*
X12811243Y-11360500D01*
X13029940Y-11319618D01*
X13237401Y-11239247D01*
X13426562Y-11122124D01*
X13590981Y-10972236D01*
X13725058Y-10794689D01*
X13824229Y-10595528D01*
X13885115Y-10381536D01*
X13905643Y-10160000D01*
X13885115Y-9938464D01*
X13824229Y-9724472D01*
X13725058Y-9525311D01*
X13725056Y-9525309D01*
X13725055Y-9525306D01*
X13590985Y-9347768D01*
X13590980Y-9347763D01*
X13426561Y-9197875D01*
X13237399Y-9080752D01*
X13237398Y-9080751D01*
X13029940Y-9000382D01*
X12811243Y-8959500D01*
X12588757Y-8959500D01*
X12370059Y-9000382D01*
X12162601Y-9080751D01*
X12162600Y-9080752D01*
X11973438Y-9197875D01*
X11809019Y-9347763D01*
X11809014Y-9347768D01*
X11674944Y-9525306D01*
X11575771Y-9724472D01*
X11514885Y-9938463D01*
X11494357Y-10160000D01*
X11365643Y-10160000D01*
X11345115Y-9938464D01*
X11284229Y-9724472D01*
X11185058Y-9525311D01*
X11185056Y-9525309D01*
X11185055Y-9525306D01*
X11050985Y-9347768D01*
X11050980Y-9347763D01*
X10886561Y-9197875D01*
X10697399Y-9080752D01*
X10697398Y-9080751D01*
X10489940Y-9000382D01*
X10271243Y-8959500D01*
X10048757Y-8959500D01*
X9830059Y-9000382D01*
X9622601Y-9080751D01*
X9622600Y-9080752D01*
X9433438Y-9197875D01*
X9269019Y-9347763D01*
X9269014Y-9347768D01*
X9134944Y-9525306D01*
X9035771Y-9724472D01*
X8974885Y-9938463D01*
X8954357Y-10160000D01*
X499Y-10160000D01*
X499Y-7620000D01*
X8954357Y-7620000D01*
X8974885Y-7841536D01*
X9035771Y-8055527D01*
X9134944Y-8254693D01*
X9269014Y-8432231D01*
X9269019Y-8432236D01*
X9433438Y-8582124D01*
X9622599Y-8699247D01*
X9622600Y-8699247D01*
X9622601Y-8699248D01*
X9678364Y-8720850D01*
X9830060Y-8779618D01*
X10048757Y-8820500D01*
X10271243Y-8820500D01*
X10489940Y-8779618D01*
X10697401Y-8699247D01*
X10886562Y-8582124D01*
X11050981Y-8432236D01*
X11185058Y-8254689D01*
X11284229Y-8055528D01*
X11345115Y-7841536D01*
X11365643Y-7620000D01*
X11494357Y-7620000D01*
X11514885Y-7841536D01*
X11575771Y-8055527D01*
X11674944Y-8254693D01*
X11809014Y-8432231D01*
X11809019Y-8432236D01*
X11973438Y-8582124D01*
X12162599Y-8699247D01*
X12162600Y-8699247D01*
X12162601Y-8699248D01*
X12218364Y-8720850D01*
X12370060Y-8779618D01*
X12588757Y-8820500D01*
X12811243Y-8820500D01*
X13029940Y-8779618D01*
X13237401Y-8699247D01*
X13426562Y-8582124D01*
X13590981Y-8432236D01*
X13725058Y-8254689D01*
X13824229Y-8055528D01*
X13885115Y-7841536D01*
X13905643Y-7620000D01*
X13885115Y-7398464D01*
X13824229Y-7184472D01*
X13801763Y-7139355D01*
X16579500Y-7139355D01*
X16594956Y-7256762D01*
X16594957Y-7256767D01*
X16655461Y-7402835D01*
X16655464Y-7402841D01*
X16751718Y-7528282D01*
X16877159Y-7624536D01*
X16877164Y-7624538D01*
X17023232Y-7685042D01*
X17023234Y-7685042D01*
X17023238Y-7685044D01*
X17140639Y-7700500D01*
X18419360Y-7700499D01*
X18536762Y-7685044D01*
X18682841Y-7624536D01*
X18808282Y-7528282D01*
X18904536Y-7402841D01*
X18965044Y-7256762D01*
X18980500Y-7139361D01*
X18980500Y-6555503D01*
X19079500Y-6555503D01*
X19094885Y-6721536D01*
X19155771Y-6935528D01*
X19254942Y-7134689D01*
X19254944Y-7134693D01*
X19389014Y-7312231D01*
X19389019Y-7312236D01*
X19553438Y-7462124D01*
X19742599Y-7579247D01*
X19742600Y-7579247D01*
X19742601Y-7579248D01*
X19798364Y-7600850D01*
X19950060Y-7659618D01*
X20168757Y-7700500D01*
X20391243Y-7700500D01*
X20609940Y-7659618D01*
X20817401Y-7579247D01*
X21006562Y-7462124D01*
X21170981Y-7312236D01*
X21301534Y-7139355D01*
X25469500Y-7139355D01*
X25484956Y-7256762D01*
X25484957Y-7256767D01*
X25545461Y-7402835D01*
X25545464Y-7402841D01*
X25641718Y-7528282D01*
X25767159Y-7624536D01*
X25767164Y-7624538D01*
X25913232Y-7685042D01*
X25913234Y-7685042D01*
X25913238Y-7685044D01*
X26030639Y-7700500D01*
X27309360Y-7700499D01*
X27426762Y-7685044D01*
X27572841Y-7624536D01*
X27698282Y-7528282D01*
X27794536Y-7402841D01*
X27855044Y-7256762D01*
X27870500Y-7139361D01*
X27870500Y-6555503D01*
X27969500Y-6555503D01*
X27984885Y-6721536D01*
X28045771Y-6935528D01*
X28144942Y-7134689D01*
X28144944Y-7134693D01*
X28279014Y-7312231D01*
X28279019Y-7312236D01*
X28443438Y-7462124D01*
X28632599Y-7579247D01*
X28632600Y-7579247D01*
X28632601Y-7579248D01*
X28688364Y-7600850D01*
X28840060Y-7659618D01*
X29058757Y-7700500D01*
X29281243Y-7700500D01*
X29499940Y-7659618D01*
X29707401Y-7579247D01*
X29896562Y-7462124D01*
X30060981Y-7312236D01*
X30191534Y-7139355D01*
X34359500Y-7139355D01*
X34374956Y-7256762D01*
X34374957Y-7256767D01*
X34435461Y-7402835D01*
X34435464Y-7402841D01*
X34531718Y-7528282D01*
X34657159Y-7624536D01*
X34657164Y-7624538D01*
X34803232Y-7685042D01*
X34803234Y-7685042D01*
X34803238Y-7685044D01*
X34920639Y-7700500D01*
X36199360Y-7700499D01*
X36316762Y-7685044D01*
X36462841Y-7624536D01*
X36588282Y-7528282D01*
X36684536Y-7402841D01*
X36745044Y-7256762D01*
X36760500Y-7139361D01*
X36760500Y-6555503D01*
X36859500Y-6555503D01*
X36874885Y-6721536D01*
X36935771Y-6935528D01*
X37034942Y-7134689D01*
X37034944Y-7134693D01*
X37169014Y-7312231D01*
X37169019Y-7312236D01*
X37333438Y-7462124D01*
X37522599Y-7579247D01*
X37522600Y-7579247D01*
X37522601Y-7579248D01*
X37578364Y-7600850D01*
X37730060Y-7659618D01*
X37948757Y-7700500D01*
X38171243Y-7700500D01*
X38389940Y-7659618D01*
X38597401Y-7579247D01*
X38786562Y-7462124D01*
X38950981Y-7312236D01*
X39081534Y-7139355D01*
X43249500Y-7139355D01*
X43264956Y-7256762D01*
X43264957Y-7256767D01*
X43325461Y-7402835D01*
X43325464Y-7402841D01*
X43421718Y-7528282D01*
X43547159Y-7624536D01*
X43547164Y-7624538D01*
X43693232Y-7685042D01*
X43693234Y-7685042D01*
X43693238Y-7685044D01*
X43810639Y-7700500D01*
X45089360Y-7700499D01*
X45206762Y-7685044D01*
X45352841Y-7624536D01*
X45478282Y-7528282D01*
X45574536Y-7402841D01*
X45635044Y-7256762D01*
X45650500Y-7139361D01*
X45650500Y-6555503D01*
X45749500Y-6555503D01*
X45764885Y-6721536D01*
X45825771Y-6935528D01*
X45924942Y-7134689D01*
X45924944Y-7134693D01*
X46059014Y-7312231D01*
X46059019Y-7312236D01*
X46223438Y-7462124D01*
X46412599Y-7579247D01*
X46412600Y-7579247D01*
X46412601Y-7579248D01*
X46468364Y-7600850D01*
X46620060Y-7659618D01*
X46838757Y-7700500D01*
X47061243Y-7700500D01*
X47279940Y-7659618D01*
X47487401Y-7579247D01*
X47676562Y-7462124D01*
X47840981Y-7312236D01*
X47971534Y-7139355D01*
X52139500Y-7139355D01*
X52154956Y-7256762D01*
X52154957Y-7256767D01*
X52215461Y-7402835D01*
X52215464Y-7402841D01*
X52311718Y-7528282D01*
X52437159Y-7624536D01*
X52437164Y-7624538D01*
X52583232Y-7685042D01*
X52583234Y-7685042D01*
X52583238Y-7685044D01*
X52700639Y-7700500D01*
X53979360Y-7700499D01*
X54096762Y-7685044D01*
X54242841Y-7624536D01*
X54368282Y-7528282D01*
X54464536Y-7402841D01*
X54525044Y-7256762D01*
X54540500Y-7139361D01*
X54540500Y-6555503D01*
X54639500Y-6555503D01*
X54654885Y-6721536D01*
X54715771Y-6935528D01*
X54814942Y-7134689D01*
X54814944Y-7134693D01*
X54949014Y-7312231D01*
X54949019Y-7312236D01*
X55113438Y-7462124D01*
X55302599Y-7579247D01*
X55302600Y-7579247D01*
X55302601Y-7579248D01*
X55358364Y-7600850D01*
X55510060Y-7659618D01*
X55728757Y-7700500D01*
X55951243Y-7700500D01*
X56169940Y-7659618D01*
X56377401Y-7579247D01*
X56566562Y-7462124D01*
X56730981Y-7312236D01*
X56865058Y-7134689D01*
X56964229Y-6935528D01*
X57025115Y-6721536D01*
X57040500Y-6555503D01*
X57040500Y-6144497D01*
X57025115Y-5978464D01*
X56964229Y-5764472D01*
X56865058Y-5565311D01*
X56865056Y-5565309D01*
X56865055Y-5565306D01*
X56730985Y-5387768D01*
X56730980Y-5387763D01*
X56566561Y-5237875D01*
X56377399Y-5120752D01*
X56377398Y-5120751D01*
X56169940Y-5040382D01*
X55951243Y-4999500D01*
X55728757Y-4999500D01*
X55510059Y-5040382D01*
X55302601Y-5120751D01*
X55302600Y-5120752D01*
X55113438Y-5237875D01*
X54949019Y-5387763D01*
X54949014Y-5387768D01*
X54814944Y-5565306D01*
X54814942Y-5565311D01*
X54715771Y-5764472D01*
X54654885Y-5978464D01*
X54639500Y-6144497D01*
X54639500Y-6555503D01*
X54540500Y-6555503D01*
X54540499Y-5560640D01*
X54525044Y-5443238D01*
X54502065Y-5387763D01*
X54464538Y-5297164D01*
X54464535Y-5297158D01*
X54368282Y-5171718D01*
X54242841Y-5075464D01*
X54242835Y-5075461D01*
X54096767Y-5014957D01*
X54096763Y-5014956D01*
X54077195Y-5012380D01*
X53979361Y-4999500D01*
X53979356Y-4999500D01*
X52700644Y-4999500D01*
X52583237Y-5014956D01*
X52583232Y-5014957D01*
X52437164Y-5075461D01*
X52437158Y-5075464D01*
X52311720Y-5171716D01*
X52311716Y-5171720D01*
X52215464Y-5297158D01*
X52215461Y-5297164D01*
X52154957Y-5443232D01*
X52154956Y-5443236D01*
X52154956Y-5443237D01*
X52154956Y-5443238D01*
X52139500Y-5560639D01*
X52139500Y-5560640D01*
X52139500Y-5560643D01*
X52139500Y-7139355D01*
X47971534Y-7139355D01*
X47975058Y-7134689D01*
X48074229Y-6935528D01*
X48135115Y-6721536D01*
X48150500Y-6555503D01*
X48150500Y-6144497D01*
X48135115Y-5978464D01*
X48074229Y-5764472D01*
X47975058Y-5565311D01*
X47975056Y-5565309D01*
X47975055Y-5565306D01*
X47840985Y-5387768D01*
X47840980Y-5387763D01*
X47676561Y-5237875D01*
X47487399Y-5120752D01*
X47487398Y-5120751D01*
X47279940Y-5040382D01*
X47061243Y-4999500D01*
X46838757Y-4999500D01*
X46620059Y-5040382D01*
X46412601Y-5120751D01*
X46412600Y-5120752D01*
X46223438Y-5237875D01*
X46059019Y-5387763D01*
X46059014Y-5387768D01*
X45924944Y-5565306D01*
X45924942Y-5565311D01*
X45825771Y-5764472D01*
X45764885Y-5978464D01*
X45749500Y-6144497D01*
X45749500Y-6555503D01*
X45650500Y-6555503D01*
X45650499Y-5560640D01*
X45635044Y-5443238D01*
X45612065Y-5387763D01*
X45574538Y-5297164D01*
X45574535Y-5297158D01*
X45478282Y-5171718D01*
X45352841Y-5075464D01*
X45352835Y-5075461D01*
X45206767Y-5014957D01*
X45206763Y-5014956D01*
X45187195Y-5012380D01*
X45089361Y-4999500D01*
X45089356Y-4999500D01*
X43810644Y-4999500D01*
X43693237Y-5014956D01*
X43693232Y-5014957D01*
X43547164Y-5075461D01*
X43547158Y-5075464D01*
X43421720Y-5171716D01*
X43421716Y-5171720D01*
X43325464Y-5297158D01*
X43325461Y-5297164D01*
X43264957Y-5443232D01*
X43264956Y-5443236D01*
X43264956Y-5443237D01*
X43264956Y-5443238D01*
X43249500Y-5560639D01*
X43249500Y-5560640D01*
X43249500Y-5560643D01*
X43249500Y-7139355D01*
X39081534Y-7139355D01*
X39085058Y-7134689D01*
X39184229Y-6935528D01*
X39245115Y-6721536D01*
X39260500Y-6555503D01*
X39260500Y-6144497D01*
X39245115Y-5978464D01*
X39184229Y-5764472D01*
X39085058Y-5565311D01*
X39085056Y-5565309D01*
X39085055Y-5565306D01*
X38950985Y-5387768D01*
X38950980Y-5387763D01*
X38786561Y-5237875D01*
X38597399Y-5120752D01*
X38597398Y-5120751D01*
X38389940Y-5040382D01*
X38171243Y-4999500D01*
X37948757Y-4999500D01*
X37730059Y-5040382D01*
X37522601Y-5120751D01*
X37522600Y-5120752D01*
X37333438Y-5237875D01*
X37169019Y-5387763D01*
X37169014Y-5387768D01*
X37034944Y-5565306D01*
X37034942Y-5565311D01*
X36935771Y-5764472D01*
X36874885Y-5978464D01*
X36859500Y-6144497D01*
X36859500Y-6555503D01*
X36760500Y-6555503D01*
X36760499Y-5560640D01*
X36745044Y-5443238D01*
X36722065Y-5387763D01*
X36684538Y-5297164D01*
X36684535Y-5297158D01*
X36588282Y-5171718D01*
X36462841Y-5075464D01*
X36462835Y-5075461D01*
X36316767Y-5014957D01*
X36316763Y-5014956D01*
X36297195Y-5012380D01*
X36199361Y-4999500D01*
X36199356Y-4999500D01*
X34920644Y-4999500D01*
X34803237Y-5014956D01*
X34803232Y-5014957D01*
X34657164Y-5075461D01*
X34657158Y-5075464D01*
X34531720Y-5171716D01*
X34531716Y-5171720D01*
X34435464Y-5297158D01*
X34435461Y-5297164D01*
X34374957Y-5443232D01*
X34374956Y-5443236D01*
X34374956Y-5443237D01*
X34374956Y-5443238D01*
X34359500Y-5560639D01*
X34359500Y-5560640D01*
X34359500Y-5560643D01*
X34359500Y-7139355D01*
X30191534Y-7139355D01*
X30195058Y-7134689D01*
X30294229Y-6935528D01*
X30355115Y-6721536D01*
X30370500Y-6555503D01*
X30370500Y-6144497D01*
X30355115Y-5978464D01*
X30294229Y-5764472D01*
X30195058Y-5565311D01*
X30195056Y-5565309D01*
X30195055Y-5565306D01*
X30060985Y-5387768D01*
X30060980Y-5387763D01*
X29896561Y-5237875D01*
X29707399Y-5120752D01*
X29707398Y-5120751D01*
X29499940Y-5040382D01*
X29281243Y-4999500D01*
X29058757Y-4999500D01*
X28840059Y-5040382D01*
X28632601Y-5120751D01*
X28632600Y-5120752D01*
X28443438Y-5237875D01*
X28279019Y-5387763D01*
X28279014Y-5387768D01*
X28144944Y-5565306D01*
X28144942Y-5565311D01*
X28045771Y-5764472D01*
X27984885Y-5978464D01*
X27969500Y-6144497D01*
X27969500Y-6555503D01*
X27870500Y-6555503D01*
X27870499Y-5560640D01*
X27855044Y-5443238D01*
X27832065Y-5387763D01*
X27794538Y-5297164D01*
X27794535Y-5297158D01*
X27698282Y-5171718D01*
X27572841Y-5075464D01*
X27572835Y-5075461D01*
X27426767Y-5014957D01*
X27426763Y-5014956D01*
X27407195Y-5012380D01*
X27309361Y-4999500D01*
X27309356Y-4999500D01*
X26030644Y-4999500D01*
X25913237Y-5014956D01*
X25913232Y-5014957D01*
X25767164Y-5075461D01*
X25767158Y-5075464D01*
X25641720Y-5171716D01*
X25641716Y-5171720D01*
X25545464Y-5297158D01*
X25545461Y-5297164D01*
X25484957Y-5443232D01*
X25484956Y-5443236D01*
X25484956Y-5443237D01*
X25484956Y-5443238D01*
X25469500Y-5560639D01*
X25469500Y-5560640D01*
X25469500Y-5560643D01*
X25469500Y-7139355D01*
X21301534Y-7139355D01*
X21305058Y-7134689D01*
X21404229Y-6935528D01*
X21465115Y-6721536D01*
X21480500Y-6555503D01*
X21480500Y-6144497D01*
X21465115Y-5978464D01*
X21404229Y-5764472D01*
X21305058Y-5565311D01*
X21305056Y-5565309D01*
X21305055Y-5565306D01*
X21170985Y-5387768D01*
X21170980Y-5387763D01*
X21006561Y-5237875D01*
X20817399Y-5120752D01*
X20817398Y-5120751D01*
X20609940Y-5040382D01*
X20391243Y-4999500D01*
X20168757Y-4999500D01*
X19950059Y-5040382D01*
X19742601Y-5120751D01*
X19742600Y-5120752D01*
X19553438Y-5237875D01*
X19389019Y-5387763D01*
X19389014Y-5387768D01*
X19254944Y-5565306D01*
X19254942Y-5565311D01*
X19155771Y-5764472D01*
X19094885Y-5978464D01*
X19079500Y-6144497D01*
X19079500Y-6555503D01*
X18980500Y-6555503D01*
X18980499Y-5560640D01*
X18965044Y-5443238D01*
X18942065Y-5387763D01*
X18904538Y-5297164D01*
X18904535Y-5297158D01*
X18808282Y-5171718D01*
X18682841Y-5075464D01*
X18682835Y-5075461D01*
X18536767Y-5014957D01*
X18536763Y-5014956D01*
X18517195Y-5012380D01*
X18419361Y-4999500D01*
X18419356Y-4999500D01*
X17140644Y-4999500D01*
X17023237Y-5014956D01*
X17023232Y-5014957D01*
X16877164Y-5075461D01*
X16877158Y-5075464D01*
X16751720Y-5171716D01*
X16751716Y-5171720D01*
X16655464Y-5297158D01*
X16655461Y-5297164D01*
X16594957Y-5443232D01*
X16594956Y-5443236D01*
X16594956Y-5443237D01*
X16594956Y-5443238D01*
X16579500Y-5560639D01*
X16579500Y-5560640D01*
X16579500Y-5560643D01*
X16579500Y-7139355D01*
X13801763Y-7139355D01*
X13725058Y-6985311D01*
X13725056Y-6985309D01*
X13725055Y-6985306D01*
X13590985Y-6807768D01*
X13590980Y-6807763D01*
X13426561Y-6657875D01*
X13237399Y-6540752D01*
X13237398Y-6540751D01*
X13029940Y-6460382D01*
X12811243Y-6419500D01*
X12588757Y-6419500D01*
X12370059Y-6460382D01*
X12162601Y-6540751D01*
X12162600Y-6540752D01*
X11973438Y-6657875D01*
X11809019Y-6807763D01*
X11809014Y-6807768D01*
X11674944Y-6985306D01*
X11575771Y-7184472D01*
X11514885Y-7398463D01*
X11494357Y-7620000D01*
X11365643Y-7620000D01*
X11345115Y-7398464D01*
X11284229Y-7184472D01*
X11185058Y-6985311D01*
X11185056Y-6985309D01*
X11185055Y-6985306D01*
X11050985Y-6807768D01*
X11050980Y-6807763D01*
X10886561Y-6657875D01*
X10697399Y-6540752D01*
X10697398Y-6540751D01*
X10489940Y-6460382D01*
X10271243Y-6419500D01*
X10048757Y-6419500D01*
X9830059Y-6460382D01*
X9622601Y-6540751D01*
X9622600Y-6540752D01*
X9433438Y-6657875D01*
X9269019Y-6807763D01*
X9269014Y-6807768D01*
X9134944Y-6985306D01*
X9035771Y-7184472D01*
X8974885Y-7398463D01*
X8954357Y-7620000D01*
X499Y-7620000D01*
X499Y-5080000D01*
X8954357Y-5080000D01*
X8974885Y-5301536D01*
X9035771Y-5515528D01*
X9134942Y-5714689D01*
X9134944Y-5714693D01*
X9269014Y-5892231D01*
X9269019Y-5892236D01*
X9433438Y-6042124D01*
X9622599Y-6159247D01*
X9622600Y-6159247D01*
X9622601Y-6159248D01*
X9678364Y-6180850D01*
X9830060Y-6239618D01*
X10048757Y-6280500D01*
X10271243Y-6280500D01*
X10489940Y-6239618D01*
X10697401Y-6159247D01*
X10886562Y-6042124D01*
X11050981Y-5892236D01*
X11185058Y-5714689D01*
X11284229Y-5515528D01*
X11345115Y-5301536D01*
X11365643Y-5080000D01*
X11494357Y-5080000D01*
X11514885Y-5301536D01*
X11575771Y-5515528D01*
X11674942Y-5714689D01*
X11674944Y-5714693D01*
X11809014Y-5892231D01*
X11809019Y-5892236D01*
X11973438Y-6042124D01*
X12162599Y-6159247D01*
X12162600Y-6159247D01*
X12162601Y-6159248D01*
X12218364Y-6180850D01*
X12370060Y-6239618D01*
X12588757Y-6280500D01*
X12811243Y-6280500D01*
X13029940Y-6239618D01*
X13237401Y-6159247D01*
X13426562Y-6042124D01*
X13590981Y-5892236D01*
X13725058Y-5714689D01*
X13824229Y-5515528D01*
X13885115Y-5301536D01*
X13905643Y-5080000D01*
X13885115Y-4858464D01*
X13824229Y-4644472D01*
X13725058Y-4445311D01*
X13725056Y-4445309D01*
X13725055Y-4445306D01*
X13590985Y-4267768D01*
X13590980Y-4267763D01*
X13426561Y-4117875D01*
X13237399Y-4000752D01*
X13237398Y-4000751D01*
X13029940Y-3920382D01*
X12811243Y-3879500D01*
X12588757Y-3879500D01*
X12370059Y-3920382D01*
X12162601Y-4000751D01*
X12162600Y-4000752D01*
X11973438Y-4117875D01*
X11809019Y-4267763D01*
X11809014Y-4267768D01*
X11674944Y-4445306D01*
X11674942Y-4445311D01*
X11575771Y-4644472D01*
X11514885Y-4858464D01*
X11494357Y-5080000D01*
X11365643Y-5080000D01*
X11345115Y-4858464D01*
X11284229Y-4644472D01*
X11185058Y-4445311D01*
X11185056Y-4445309D01*
X11185055Y-4445306D01*
X11050985Y-4267768D01*
X11050980Y-4267763D01*
X10886561Y-4117875D01*
X10697399Y-4000752D01*
X10697398Y-4000751D01*
X10489940Y-3920382D01*
X10271243Y-3879500D01*
X10048757Y-3879500D01*
X9830059Y-3920382D01*
X9622601Y-4000751D01*
X9622600Y-4000752D01*
X9433438Y-4117875D01*
X9269019Y-4267763D01*
X9269014Y-4267768D01*
X9134944Y-4445306D01*
X9134942Y-4445311D01*
X9035771Y-4644472D01*
X8974885Y-4858464D01*
X8954357Y-5080000D01*
X499Y-5080000D01*
X499Y-3000625D01*
X532Y-2999369D01*
X534Y-2999330D01*
X7496Y-2866485D01*
X17910Y-2681054D01*
X18162Y-2678690D01*
X42602Y-2524383D01*
X70521Y-2360060D01*
X70993Y-2357900D01*
X112437Y-2203233D01*
X157541Y-2046676D01*
X158174Y-2044786D01*
X216068Y-1893969D01*
X216206Y-1893623D01*
X277939Y-1744587D01*
X278697Y-1742944D01*
X352351Y-1598389D01*
X352680Y-1597770D01*
X430305Y-1457318D01*
X431151Y-1455908D01*
X519735Y-1319500D01*
X520226Y-1318778D01*
X612838Y-1188253D01*
X613745Y-1187057D01*
X716261Y-1060459D01*
X716912Y-1059695D01*
X823462Y-940466D01*
X824315Y-939562D01*
X939562Y-824315D01*
X940466Y-823462D01*
X1059695Y-716912D01*
X1060459Y-716261D01*
X1187062Y-613740D01*
X1188261Y-612833D01*
X1318778Y-520226D01*
X1319500Y-519735D01*
X1455908Y-431151D01*
X1457318Y-430305D01*
X1597770Y-352680D01*
X1598389Y-352351D01*
X1742944Y-278697D01*
X1744587Y-277939D01*
X1893623Y-216206D01*
X1893969Y-216068D01*
X2044786Y-158174D01*
X2046676Y-157541D01*
X2203233Y-112437D01*
X2203291Y-112420D01*
X2357900Y-70993D01*
X2360060Y-70521D01*
X2524373Y-42603D01*
X2678690Y-18162D01*
X2681054Y-17910D01*
X2866561Y-7492D01*
X2999369Y-531D01*
X3000625Y-499D01*
X57999373Y-499D01*
X58000628Y-531D01*
G37*
%TD.AperFunction*%
%TD*%
D21*
X19999999Y-32999999D02*
X22499999Y-32999999D01*
X2999999Y1D02*
G75*
G03*
X-1Y-2999999I1J-3000001D01*
G01*
X19999999Y-32999999D02*
G75*
G03*
X16999999Y-35999999I1J-3000001D01*
G01*
X25499999Y-29999999D02*
X25499999Y-28999999D01*
X61000001Y-2999999D02*
G75*
G03*
X57999999Y1I-3000001J-1D01*
G01*
X16999999Y-43999999D02*
X16999999Y-35999999D01*
X60999999Y-29999999D02*
X60999999Y-2999999D01*
X28499999Y-25999999D02*
X31499999Y-25999999D01*
X10999999Y-41999999D02*
G75*
G03*
X6999999Y-41999999I-2000000J0D01*
G01*
X6999999Y-41999999D02*
G75*
G03*
X10999999Y-41999999I2000000J0D01*
G01*
X34499999Y-28999999D02*
X34499999Y-29999999D01*
X34500001Y-28999999D02*
G75*
G03*
X31499999Y-25999999I-3000001J-1D01*
G01*
X57999999Y-32999999D02*
G75*
G03*
X60999999Y-29999999I1J2999999D01*
G01*
X-1Y-2999999D02*
X-1Y-43999999D01*
X13999999Y-46999999D02*
G75*
G03*
X16999999Y-43999999I1J2999999D01*
G01*
X1Y-43999999D02*
G75*
G03*
X2999999Y-46999999I2999999J-1D01*
G01*
X57999999Y1D02*
X2999999Y1D01*
X47999999Y-21999999D02*
G75*
G03*
X43999999Y-21999999I-2000000J0D01*
G01*
X43999999Y-21999999D02*
G75*
G03*
X47999999Y-21999999I2000000J0D01*
G01*
X22499999Y-32999999D02*
G75*
G03*
X25499999Y-29999999I1J2999999D01*
G01*
X2999999Y-46999999D02*
X13999999Y-46999999D01*
X28499999Y-25999999D02*
G75*
G03*
X25499999Y-28999999I1J-3000001D01*
G01*
X37499999Y-32999999D02*
X57999999Y-32999999D01*
X34500001Y-29999999D02*
G75*
G03*
X37499999Y-32999999I2999999J-1D01*
G01*
M02*
